<svg width="699" height="551" viewBox="0 0 699 551" fill="none" xmlns="http://www.w3.org/2000/svg">
<path d="M419.035 19.0939C384.443 38.5831 359.875 72.7636 335.486 109.144C332.296 113.903 329.098 118.663 325.813 123.364C298.876 161.951 259.806 200.048 211.145 199.591C189.2 199.386 167.981 191.134 146.036 190.991C100.677 190.691 62.6023 227.132 52.5151 267.548C41.2336 312.823 62.7319 360.94 95.0265 393.77C126.713 426.009 169.025 447.005 212.164 463.221C304.64 497.905 403.864 513.238 503.098 508.178C517.453 507.435 532.175 506.165 545.09 500.151C557.891 494.195 567.927 484.029 577.115 473.661C639.68 403.043 676.091 311.853 678.65 219.488C679.891 174.682 672.942 128.499 649.235 89.7878C617.914 38.639 554.896 5.25991 492.881 2.49617C463.416 1.18431 439.477 7.57685 419.035 19.0939Z" fill="#594771"/>
<path d="M222.581 115.392C211.395 119.166 198.794 120.06 187.956 115.392C175.539 110.023 166.815 97.5505 164.787 84.1734C162.76 70.7963 167.03 56.8421 175.192 46.0496C183.354 35.257 195.147 27.5188 207.881 23.0138C225.058 16.951 245.749 17.1298 259.847 28.6732C270.639 37.5197 276.007 52.2094 274.455 66.0819C271.477 92.9075 245.943 107.516 222.581 115.392Z" fill="#594771"/>
<path d="M108.047 312.152C96.7774 317.998 88.1349 328.065 81.9214 339.149C75.7079 350.232 71.7028 362.393 67.7354 374.468L64.2637 436.74C77.3776 414.397 87.9029 388.132 90.7466 362.373C87.8378 362.114 84.929 361.856 82.0202 361.595C87.8713 360.701 92.7828 356.455 95.9068 351.421C99.031 346.386 100.64 340.58 102.21 334.866C98.6602 335.394 95.112 335.923 91.5626 336.451C99.9016 330.878 105.946 321.968 108.047 312.152Z" fill="#4CCC92"/>
<path d="M62.3269 451.333C62.3269 451.333 33.8634 417.214 34.1922 384.644H45.6899C45.6899 384.644 33.2008 376.419 34.189 371.812C35.1771 367.206 35.5058 349.769 35.5058 349.769L46.0186 352.401C46.0186 352.401 38.1343 348.454 37.1492 342.202C36.1643 335.951 39.449 307 39.449 307C39.449 307 52.2604 320.488 56.2025 334.306C60.1447 348.124 70.4926 364.245 67.4536 406.356C64.4145 448.47 62.3269 451.333 62.3269 451.333Z" fill="#4CCC92"/>
<path d="M47.2234 336.748C47.2327 336.746 47.2675 336.865 47.3262 337.101C47.3892 337.365 47.4711 337.712 47.5751 338.15C47.7893 339.11 48.0929 340.466 48.4793 342.199C48.8742 343.957 49.3331 346.113 49.8318 348.623C50.338 351.131 50.9293 353.985 51.5068 357.153C52.726 363.479 54.0123 371.043 55.3377 379.457C56.6208 387.878 57.903 397.156 59.0425 406.919C60.1587 416.689 61.0239 426.018 61.6929 434.512C62.3198 443.008 62.7903 450.666 63.0444 457.103C63.2041 460.32 63.2786 463.233 63.3574 465.791C63.4446 468.349 63.4876 470.553 63.5044 472.353C63.5223 474.128 63.5369 475.519 63.5463 476.502C63.5453 476.953 63.5442 477.309 63.5432 477.58C63.539 477.823 63.5328 477.948 63.5233 477.948C63.5138 477.948 63.5012 477.824 63.4865 477.581C63.4739 477.31 63.456 476.955 63.4351 476.504C63.4004 475.522 63.3521 474.132 63.2902 472.359C63.2418 470.559 63.1662 468.357 63.0508 465.801C62.9436 463.246 62.8417 460.335 62.658 457.122C62.3544 450.689 61.8452 443.039 61.1899 434.55C60.4947 426.066 59.6136 416.746 58.4984 406.981C57.3601 397.224 56.0947 387.952 54.8388 379.533C53.5419 371.12 52.2964 363.555 51.1256 357.224C50.5722 354.052 50.0082 351.195 49.5304 348.682C49.061 346.168 48.6326 344.006 48.2692 342.242C47.9259 340.501 47.656 339.137 47.466 338.174C47.3841 337.73 47.3199 337.379 47.2706 337.113C47.2306 336.873 47.215 336.749 47.2234 336.748Z" fill="#E0E0E0"/>
<path d="M58.375 472.231C58.375 472.231 32.3279 442.634 24.2398 424.741L30.3453 422.128C25.92 422.86 21.3857 420.955 17.9538 418.063C14.5221 415.17 12.0029 411.366 9.53086 407.616L17.5737 406.256C10.2596 404.201 3.81613 399.202 0 392.623C9.49096 394.185 18.0778 399.408 25.1535 405.933C30.884 411.218 35.7365 417.353 40.3959 423.621C42.6694 426.677 44.6583 429.935 46.3154 433.367C50.6933 442.427 58.3897 461.362 58.375 472.231Z" fill="#4CCC92"/>
<path d="M60.5888 484.913C60.5699 484.915 60.5267 484.728 60.4627 484.37C60.3945 483.949 60.3094 483.43 60.2064 482.798C60.008 481.432 59.6678 479.462 59.1899 477.042C58.7216 474.621 58.0517 471.759 57.198 468.612C56.3169 465.473 55.2362 462.055 53.9194 458.531C52.5826 455.013 51.1367 451.732 49.7263 448.794C48.2898 445.867 46.9046 443.276 45.6582 441.148C44.419 439.017 43.3752 437.313 42.6223 436.156C42.2831 435.615 42.0038 435.169 41.7779 434.808C41.59 434.497 41.4987 434.327 41.5144 434.317C41.5302 434.306 41.652 434.454 41.8693 434.746C42.1182 435.092 42.4259 435.519 42.7997 436.038C43.6083 437.161 44.7057 438.837 45.9911 440.952C47.2847 443.062 48.7119 445.645 50.179 448.573C51.6207 451.513 53.0878 454.805 54.4319 458.34C55.7551 461.88 56.8261 465.321 57.6851 468.481C58.5158 471.649 59.1491 474.532 59.5701 476.972C60.0007 479.409 60.2831 481.395 60.4176 482.772C60.4795 483.409 60.5309 483.934 60.572 484.358C60.6013 484.719 60.6076 484.911 60.5888 484.913Z" fill="#E0E0E0"/>
<path d="M94.9575 477.949H37.9487V489.596H94.9575V477.949Z" fill="#455A64"/>
<path d="M43.3789 489.598L49.5452 528.77H83.9932L89.7415 489.598H43.3789Z" fill="#455A64"/>
<path d="M268.54 303.719C271.66 376.051 271.636 450.551 268.467 527.221H617.458C614.466 458.134 614.686 384.049 617.327 306.222H621.885V300.702L522.151 249.608L519.208 248.092H367.883L352.392 256.025L350.762 256.84L331.594 266.664L329.964 267.479L300.614 282.529L298.983 283.345L265.328 300.588V303.605L268.54 303.719ZM283.215 424.903H319.651C318.411 448.709 318.248 470.485 319.651 489.253H283.101C284.039 463.702 284.324 441.086 283.232 424.903H283.215ZM353.028 424.903H389.545C388.909 447.608 388.811 469.27 389.545 489.253H352.979C353.884 468.904 353.811 447.331 353.045 424.903H353.028ZM389.561 424.087H372.302L385.004 411.393C387.957 414.734 389.584 419.041 389.577 423.5C389.626 423.655 389.626 423.875 389.577 424.047L389.561 424.087ZM371.69 405.165C376.396 405.27 380.88 407.189 384.205 410.521C384.277 410.588 384.345 410.658 384.409 410.733L371.69 423.443V405.165ZM352.939 423.46C352.927 419.001 354.558 414.693 357.521 411.361L370.214 424.047H352.955C353.004 423.875 353.004 423.655 352.996 423.46H352.939ZM358.099 410.733C361.432 407.268 366.003 405.265 370.81 405.165V423.443L358.099 410.733ZM283.093 424.055C283.093 423.859 283.093 423.663 283.044 423.468C283.039 419.01 284.669 414.705 287.626 411.369L300.32 424.055H283.093ZM300.923 423.443L288.213 410.733C288.278 410.66 288.352 410.594 288.425 410.521C291.746 407.187 296.227 405.268 300.932 405.165L300.923 423.443ZM301.739 405.165C306.547 405.27 311.118 407.272 314.457 410.733L301.747 423.443L301.739 405.165ZM319.61 423.46V424.047H302.472L315.166 411.361C318.121 414.698 319.748 419.003 319.74 423.46H319.61ZM443.354 424.903H479.862C479.357 449.744 479.226 472.059 479.862 489.253H443.435C444.299 467.306 444.357 445.815 443.484 424.903H443.354ZM443.297 423.46C443.29 419 444.917 414.693 447.87 411.353L460.564 424.047H443.435L443.297 423.46ZM448.449 410.733C448.513 410.658 448.581 410.588 448.653 410.521C451.975 407.19 456.456 405.271 461.16 405.165V423.443L448.449 410.733ZM462.016 405.165C466.823 405.266 471.395 407.265 474.734 410.725L462.187 423.443L462.016 405.165ZM479.895 423.46C479.895 423.655 479.895 423.851 479.895 424.047H462.627L475.329 411.353C478.324 414.677 479.994 418.985 480.025 423.46H479.895ZM514.43 299.137V342.918C508.758 342.802 503.356 340.471 499.382 336.422C495.408 332.373 493.177 326.929 493.168 321.255C493.169 321.2 493.159 321.144 493.138 321.093C493.118 321.041 493.088 320.993 493.049 320.953C493.011 320.913 492.964 320.881 492.913 320.859C492.862 320.836 492.807 320.824 492.752 320.823C492.858 315.106 495.176 309.653 499.219 305.609C503.261 301.565 508.713 299.245 514.43 299.137ZM536.957 320.807C536.901 320.808 536.846 320.82 536.795 320.842C536.744 320.865 536.698 320.897 536.659 320.937C536.621 320.977 536.59 321.024 536.57 321.076C536.55 321.128 536.54 321.183 536.541 321.239C536.536 326.914 534.308 332.361 530.335 336.413C526.362 340.465 520.96 342.8 515.286 342.918V299.137C520.999 299.247 526.447 301.566 530.487 305.606C534.527 309.646 536.846 315.094 536.957 320.807ZM586.273 424.03H568.989L581.683 411.336C584.636 414.677 586.264 418.984 586.257 423.443C586.281 423.655 586.281 423.875 586.273 424.047V424.03ZM549.757 424.846H586.241C585.499 447.975 585.425 469.621 586.241 489.196H549.683C550.835 467.781 550.859 446.32 549.757 424.903V424.846ZM549.691 423.402C549.68 418.943 551.311 414.636 554.273 411.304L566.967 423.989H549.716L549.691 423.402ZM554.852 410.676C558.186 407.212 562.756 405.21 567.562 405.107V423.386L554.852 410.676ZM568.418 405.107C573.125 405.213 577.608 407.132 580.933 410.464C581.005 410.531 581.073 410.601 581.137 410.676L568.427 423.386L568.418 405.107ZM602.114 386.658H551.338V378.872H602.114V386.658ZM534.608 520.894H495.108C496.195 481.527 496.195 442.953 495.108 405.173H534.608C533.527 443.073 533.527 481.646 534.608 520.894ZM489.466 378.872H540.242V386.715H489.466V378.872ZM427.602 378.872H478.378V386.715H427.602V378.872Z" fill="#2A365C"/>
<path d="M410.72 527.608H534.423C528.716 522.619 520.979 518.771 513.967 521.722C511.326 512.917 506.736 504.251 499.08 499.147C491.425 494.043 480.247 493.521 473.505 499.775C470.904 491.834 468.197 483.697 462.955 477.199C457.713 470.702 449.283 466.071 441.081 467.693C432.504 469.389 426.406 477.477 424.302 485.988C422.199 494.5 423.487 503.386 424.677 512.077C417.006 510.634 408.69 520.075 410.72 527.608Z" fill="#251B37"/>
<path d="M95.1718 527.611H22C22.4076 524.635 23.8344 521.463 26.4596 520.004C27.7842 519.28 29.2573 518.87 30.7655 518.805C32.2737 518.74 33.7766 519.022 35.1587 519.629C36.8708 513.604 38.6726 507.4 42.5778 502.508C46.483 497.616 53.0623 494.298 59.0628 496.075C62.862 497.2 65.8949 500.193 67.8679 503.625C69.8409 507.057 70.9008 510.963 71.8628 514.778C73.0093 513.768 74.4562 513.163 75.9804 513.057C77.5047 512.95 79.0216 513.348 80.2974 514.189C81.5732 515.03 82.5369 516.267 83.0399 517.71C83.543 519.153 83.5575 520.721 83.0811 522.173C84.8007 521.233 86.6455 520.544 88.5598 520.126C89.519 519.923 90.5104 519.927 91.4679 520.138C92.4254 520.349 93.3268 520.762 94.112 521.349C95.6284 522.605 96.2154 525.956 95.1718 527.611Z" fill="#251B37"/>
<path d="M161.698 166.469H349.736L443.762 273.573H255.717L161.698 166.469Z" fill="#251B37"/>
<path d="M438.716 527.607H248.534V273.573L343.629 166.469L438.716 273.573C433.653 351.172 434.346 436.825 438.716 527.607Z" fill="#61629B"/>
<path d="M418.961 337.965H406.129V340.916H418.961V337.965Z" fill="#433459"/>
<path d="M411.193 333.695H398.361V336.647H411.193V333.695Z" fill="#433459"/>
<path d="M404.264 337.965H391.431V340.916H404.264V337.965Z" fill="#433459"/>
<path d="M299.669 351.318H286.836V354.27H299.669V351.318Z" fill="#433459"/>
<path d="M291.901 347.035H279.068V349.986H291.901V347.035Z" fill="#433459"/>
<path d="M284.971 351.318H272.139V354.27H284.971V351.318Z" fill="#433459"/>
<path d="M292.325 494.418H279.492V497.369H292.325V494.418Z" fill="#433459"/>
<path d="M284.554 490.141H271.722V493.092H284.554V490.141Z" fill="#433459"/>
<path d="M277.615 494.418H264.783V497.369H277.615V494.418Z" fill="#433459"/>
<path d="M361.028 255.59H373.861V252.638H361.028V255.59Z" fill="#433459"/>
<path d="M368.796 259.859H381.629V256.908H368.796V259.859Z" fill="#433459"/>
<path d="M375.728 255.59H388.561V252.638H375.728V255.59Z" fill="#433459"/>
<path d="M399.2 508.082H412.032V505.131H399.2V508.082Z" fill="#433459"/>
<path d="M406.97 512.369H419.803V509.418H406.97V512.369Z" fill="#433459"/>
<path d="M413.9 508.082H426.732V505.131H413.9V508.082Z" fill="#433459"/>
<path d="M261.996 293.836V317.829H343.63V202.564L261.996 293.836Z" fill="#FCBB65"/>
<path d="M259.428 293.832H346.671" stroke="white" stroke-width="0.949207" stroke-miterlimit="10" stroke-linecap="round"/>
<path d="M259.428 317.826H346.671" stroke="white" stroke-width="0.949207" stroke-miterlimit="10" stroke-linecap="round"/>
<path d="M290.458 317.828V261.035" stroke="white" stroke-width="0.949207" stroke-miterlimit="10" stroke-linecap="round"/>
<path d="M316.863 317.825V230.492" stroke="white" stroke-width="0.949207" stroke-miterlimit="10" stroke-linecap="round"/>
<path d="M75.8076 527.609H248.534C251.371 445.591 251.371 360.913 248.534 273.574H75.8076C78.4736 360.842 78.6448 445.697 75.8076 527.609Z" fill="#8081BB"/>
<path d="M349.737 166.469L66.7603 273.573L69.6138 278.88H258.548L353.512 170.757L349.737 166.469Z" fill="#251B37"/>
<path d="M349.784 166.469L339.675 177.989L338.656 179.146L324.478 195.305L323.459 196.463L309.623 212.214L308.621 213.364L296.497 227.167L295.495 228.316L278.553 247.614L277.534 248.772L264.734 263.357L263.715 264.515L255.766 273.573H67.7202L82.9334 256.248L83.9444 255.098L98.4728 238.548L99.4919 237.39L110.906 224.378L111.925 223.221L132.658 199.602L133.677 198.444L152.697 176.782L153.708 175.624L161.747 166.469H349.784Z" fill="#E97777"/>
<path d="M206.915 175.627V176.785H152.698L153.709 175.627H206.915Z" fill="#C64B4B"/>
<path d="M303.224 185.064H193.047V186.222H303.224V185.064Z" fill="#C64B4B"/>
<path d="M324.479 195.309L323.46 196.466H273.654V195.309H324.479Z" fill="#C64B4B"/>
<path d="M296.499 227.166L295.496 228.316H224.518V227.166H296.499Z" fill="#C64B4B"/>
<path d="M309.625 212.217L308.622 213.366H288.64V212.217H309.625Z" fill="#C64B4B"/>
<path d="M132.071 223.221V224.378H110.906L111.925 223.221H132.071Z" fill="#C64B4B"/>
<path d="M204.06 198.447V199.605H132.657L133.676 198.447H204.06Z" fill="#C64B4B"/>
<path d="M123.023 255.1V256.249H82.9351L83.946 255.1H123.023Z" fill="#C64B4B"/>
<path d="M110.825 237.391V238.548H98.4736L99.4927 237.391H110.825Z" fill="#C64B4B"/>
<path d="M278.555 247.615L277.536 248.773H202.84V247.615H278.555Z" fill="#C64B4B"/>
<path d="M264.735 263.361L263.716 264.519H143.47V263.361H264.735Z" fill="#C64B4B"/>
<path d="M339.675 177.99L338.656 179.148H318.926V177.99H339.675Z" fill="#C64B4B"/>
<path d="M184.6 252.92L218.76 206.889H149.192L184.6 252.92Z" fill="#942B2B"/>
<path d="M184.6 206.889H149.192V252.92H184.6V206.889Z" fill="#C64B4B"/>
<path d="M180.851 210.039H152.944V249.776H180.851V210.039Z" fill="#FCBB65"/>
<path d="M148.027 229.711H185.416" stroke="white" stroke-width="0.949207" stroke-miterlimit="10" stroke-linecap="round"/>
<path d="M166.723 229.711V252.922" stroke="white" stroke-width="0.949207" stroke-miterlimit="10" stroke-linecap="round"/>
<path d="M167 210V233.211" stroke="white" stroke-width="0.949207" stroke-miterlimit="10" stroke-linecap="round"/>
<path d="M220 454.923H179.872C181.747 414.363 182.171 374.748 179.872 336.902H220C218.125 373.59 218.174 413.001 220 454.923Z" fill="#251B37"/>
<path d="M178.404 417.709H221.475" stroke="white" stroke-width="0.949207" stroke-miterlimit="10" stroke-linecap="round"/>
<path d="M178.404 454.932H221.475" stroke="white" stroke-width="0.949207" stroke-miterlimit="10" stroke-linecap="round"/>
<path d="M199.943 417.709V454.935" stroke="white" stroke-width="0.949207" stroke-miterlimit="10"/>
<path d="M302.124 480.306H261.996C263.887 440.544 264.009 401.174 261.996 362.285H302.124C300.143 401.6 300.143 440.99 302.124 480.306Z" fill="#251B37"/>
<path d="M260.521 443.078H303.601" stroke="white" stroke-width="0.949207" stroke-miterlimit="10" stroke-linecap="round"/>
<path d="M260.521 480.307H303.601" stroke="white" stroke-width="0.949207" stroke-miterlimit="10" stroke-linecap="round"/>
<path d="M282.06 443.078V480.304" stroke="white" stroke-width="0.949207" stroke-miterlimit="10"/>
<path d="M425.256 480.306H385.128C386.408 443.178 386.318 403.669 385.128 362.285H425.256C423.381 402.307 423.3 441.678 425.256 480.306Z" fill="#251B37"/>
<path d="M383.661 443.078H426.732" stroke="white" stroke-width="0.949207" stroke-miterlimit="10" stroke-linecap="round"/>
<path d="M383.661 480.307H426.732" stroke="white" stroke-width="0.949207" stroke-miterlimit="10" stroke-linecap="round"/>
<path d="M405.2 443.078V480.304" stroke="white" stroke-width="0.949207" stroke-miterlimit="10"/>
<path d="M144.463 454.923H104.343C105.852 416.433 105.974 377.153 104.343 336.902H144.463C142.817 373.248 142.939 412.822 144.463 454.923Z" fill="#251B37"/>
<path d="M102.869 417.709H145.948" stroke="white" stroke-width="0.949207" stroke-miterlimit="10" stroke-linecap="round"/>
<path d="M102.869 454.932H145.948" stroke="white" stroke-width="0.949207" stroke-miterlimit="10" stroke-linecap="round"/>
<path d="M124.408 417.709V454.935" stroke="white" stroke-width="0.949207" stroke-miterlimit="10"/>
<path d="M370.379 362.285H316.88V519.007H370.379V362.285Z" fill="#251B37"/>
<path d="M362.993 476.271H324.267V512.56H362.993V476.271Z" stroke="white" stroke-width="0.949207" stroke-miterlimit="10" stroke-linecap="round"/>
<path d="M339.781 471.645H324.291V386.66C324.293 384.602 325.112 382.629 326.567 381.174C328.022 379.719 329.995 378.901 332.053 378.898C334.111 378.898 336.085 379.716 337.541 381.172C338.996 382.627 339.814 384.601 339.814 386.66L339.781 471.645Z" stroke="white" stroke-width="0.949207" stroke-miterlimit="10" stroke-linecap="round"/>
<path d="M362.993 471.645H347.502V386.66C347.502 384.601 348.32 382.627 349.776 381.172C351.231 379.716 353.205 378.898 355.264 378.898C357.322 378.898 359.297 379.716 360.752 381.172C362.208 382.627 363.025 384.601 363.025 386.66L362.993 471.645Z" stroke="white" stroke-width="0.949207" stroke-miterlimit="10" stroke-linecap="round"/>
<path d="M374.789 519.006H312.461V523.311H374.789V519.006Z" fill="#E97777"/>
<path d="M378.018 523.309H309.24V527.613H378.018V523.309Z" fill="#C64B4B"/>
<path d="M63.2192 527.611H136.391C135.983 524.635 134.557 521.463 131.931 520.004C130.607 519.28 129.134 518.87 127.626 518.805C126.117 518.74 124.614 519.022 123.232 519.629C121.52 513.604 119.71 507.4 115.813 502.508C111.916 497.616 105.329 494.298 99.3282 496.075C95.5289 497.2 92.4961 500.193 90.5231 503.625C88.5501 507.057 87.4902 510.963 86.5282 514.778C85.3829 513.76 83.9336 513.148 82.4052 513.037C80.8768 512.927 79.3545 513.323 78.0745 514.166C76.7944 515.009 75.8281 516.25 75.3253 517.697C74.8225 519.145 74.8114 520.718 75.2936 522.173C73.574 521.233 71.7291 520.544 69.8149 520.126C68.8557 519.923 67.8642 519.927 66.9068 520.138C65.9493 520.349 65.0479 520.762 64.2628 521.349C62.7626 522.605 62.1757 525.956 63.2192 527.611Z" fill="#FCBB65"/>
<path d="M407.493 527.611H480.664C480.257 524.635 478.83 521.463 476.205 520.004C474.88 519.28 473.407 518.87 471.899 518.805C470.391 518.74 468.888 519.022 467.506 519.629C465.794 513.604 463.992 507.4 460.087 502.508C456.181 497.616 449.602 494.298 443.602 496.075C439.802 497.2 436.77 500.193 434.797 503.625C432.824 507.057 431.764 510.963 430.802 514.778C429.656 513.76 428.207 513.148 426.679 513.037C425.15 512.927 423.628 513.323 422.348 514.166C421.068 515.009 420.102 516.25 419.599 517.697C419.096 519.145 419.085 520.718 419.567 522.173C417.848 521.232 416.003 520.543 414.088 520.126C413.129 519.923 412.138 519.927 411.18 520.138C410.223 520.349 409.321 520.762 408.536 521.349C407.036 522.605 406.449 525.956 407.493 527.611Z" fill="#FCBB65"/>
<path d="M219.233 527.606H296.546C292.959 524.484 288.141 522.087 283.763 523.929C282.132 518.426 279.238 513.013 274.452 509.825C269.666 506.637 262.688 506.303 258.473 510.216C256.842 505.251 255.154 500.164 251.877 496.104C248.599 492.044 243.333 489.149 238.213 490.168C232.848 491.228 229.016 496.291 227.72 501.582C226.424 506.874 227.19 512.458 227.956 517.888C223.13 516.999 217.937 522.902 219.233 527.606Z" fill="#FCBB65"/>
<path d="M196.844 527.609V423.979" stroke="#FCBB65" stroke-width="2.17248" stroke-miterlimit="10"/>
<path d="M185.357 435.465H280.917" stroke="#FCBB65" stroke-width="2.17248" stroke-miterlimit="10"/>
<path d="M277.054 443.135H203.157V475.795H277.054V443.135Z" fill="#FCDDB0"/>
<path d="M212.166 467.667V450.66H218.419C219.474 450.638 220.522 450.829 221.501 451.223C222.341 451.565 223.055 452.157 223.547 452.918C224.059 453.795 224.311 454.799 224.273 455.813C224.322 456.863 224.037 457.902 223.458 458.78C222.913 459.524 222.193 460.123 221.362 460.525L225.194 467.667H221.68L218.419 461.348H215.264V467.667H212.166ZM215.272 458.748H217.555C218.032 458.794 218.514 458.746 218.973 458.606C219.432 458.466 219.859 458.237 220.229 457.932C220.479 457.668 220.674 457.357 220.802 457.017C220.931 456.677 220.991 456.315 220.979 455.951C221.001 455.585 220.946 455.218 220.819 454.874C220.691 454.53 220.493 454.217 220.237 453.954C219.507 453.395 218.592 453.135 217.677 453.228H215.272V458.748Z" fill="#433459"/>
<path d="M227.385 467.671V450.664H238.269V453.681H230.573V457.3H236.541V460.309H230.573V464.638H238.514V467.655L227.385 467.671Z" fill="#433459"/>
<path d="M241.157 467.671V450.664H244.222L251.478 461.646V450.664H254.593V467.671H252.041L244.271 456.012V467.671H241.157Z" fill="#433459"/>
<path d="M261.628 467.671V453.681H256.826V450.664H269.545V453.681H264.743V467.671H261.628Z" fill="#433459"/>
<path d="M213.412 444.814V433.873" stroke="#251B37" stroke-width="0.721932" stroke-miterlimit="10" stroke-linecap="round"/>
<path d="M188.254 435.466C188.254 436.047 188.082 436.615 187.759 437.098C187.436 437.581 186.977 437.957 186.441 438.179C185.904 438.401 185.313 438.458 184.744 438.344C184.174 438.23 183.651 437.95 183.241 437.539C182.831 437.127 182.552 436.604 182.44 436.034C182.327 435.464 182.387 434.874 182.61 434.337C182.833 433.801 183.211 433.343 183.695 433.022C184.178 432.7 184.747 432.53 185.328 432.531C185.713 432.531 186.094 432.607 186.449 432.755C186.805 432.902 187.128 433.119 187.4 433.391C187.672 433.664 187.887 433.988 188.034 434.344C188.181 434.7 188.255 435.081 188.254 435.466Z" fill="#FCBB65"/>
<path d="M199.773 423.294C199.773 423.873 199.601 424.439 199.28 424.92C198.958 425.401 198.501 425.777 197.966 425.998C197.431 426.22 196.843 426.278 196.275 426.165C195.707 426.052 195.186 425.773 194.776 425.364C194.367 424.954 194.088 424.433 193.975 423.865C193.862 423.297 193.92 422.709 194.142 422.174C194.363 421.639 194.738 421.182 195.22 420.86C195.701 420.539 196.267 420.367 196.846 420.367C197.621 420.369 198.365 420.678 198.913 421.227C199.461 421.775 199.771 422.518 199.773 423.294Z" fill="#FCBB65"/>
<path d="M263.57 444.814V433.873" stroke="#251B37" stroke-width="0.721932" stroke-miterlimit="10" stroke-linecap="round"/>
<path d="M111.377 138.767C110.708 138.768 110.053 138.571 109.495 138.201C108.938 137.83 108.503 137.302 108.246 136.684C107.988 136.066 107.92 135.385 108.05 134.728C108.179 134.072 108.501 133.468 108.974 132.994C109.447 132.52 110.05 132.197 110.706 132.066C111.363 131.934 112.043 132.001 112.662 132.257C113.281 132.513 113.81 132.946 114.182 133.503C114.554 134.059 114.753 134.714 114.753 135.383C114.753 136.279 114.397 137.139 113.765 137.773C113.132 138.407 112.273 138.765 111.377 138.767Z" fill="#FCBB65"/>
<path d="M111.378 161.286C110.71 161.286 110.058 161.088 109.503 160.717C108.947 160.346 108.515 159.819 108.259 159.202C108.004 158.585 107.937 157.907 108.067 157.252C108.198 156.597 108.519 155.996 108.991 155.524C109.463 155.052 110.065 154.73 110.719 154.6C111.374 154.47 112.053 154.537 112.669 154.792C113.286 155.048 113.813 155.48 114.184 156.035C114.555 156.59 114.753 157.243 114.753 157.91C114.753 158.806 114.397 159.664 113.764 160.297C113.131 160.93 112.273 161.286 111.378 161.286Z" fill="#FCBB65"/>
<path d="M111.377 183.814C110.708 183.815 110.053 183.618 109.495 183.248C108.938 182.877 108.503 182.349 108.246 181.731C107.988 181.113 107.92 180.432 108.05 179.775C108.179 179.118 108.501 178.515 108.974 178.041C109.447 177.567 110.05 177.244 110.706 177.112C111.363 176.981 112.043 177.048 112.662 177.304C113.281 177.559 113.81 177.993 114.182 178.55C114.554 179.106 114.753 179.761 114.753 180.43C114.753 181.326 114.397 182.186 113.765 182.82C113.132 183.454 112.273 183.812 111.377 183.814Z" fill="#FCBB65"/>
<path d="M111.378 206.333C110.71 206.333 110.058 206.135 109.503 205.764C108.947 205.393 108.515 204.866 108.259 204.249C108.004 203.632 107.937 202.954 108.067 202.299C108.198 201.644 108.519 201.043 108.991 200.571C109.463 200.099 110.065 199.777 110.719 199.647C111.374 199.517 112.053 199.583 112.669 199.839C113.286 200.094 113.813 200.527 114.184 201.082C114.555 201.637 114.753 202.29 114.753 202.957C114.753 203.852 114.397 204.711 113.764 205.344C113.131 205.977 112.273 206.333 111.378 206.333Z" fill="#FCBB65"/>
<path d="M94.8262 138.767C94.1566 138.768 93.5017 138.571 92.9442 138.201C92.3867 137.83 91.9518 137.302 91.6945 136.684C91.4372 136.066 91.369 135.385 91.4986 134.728C91.6282 134.072 91.9498 133.468 92.4227 132.994C92.8956 132.52 93.4984 132.197 94.1549 132.066C94.8115 131.934 95.4922 132.001 96.1109 132.257C96.7296 132.513 97.2585 132.946 97.6306 133.503C98.0028 134.059 98.2014 134.714 98.2014 135.383C98.2014 136.279 97.8461 137.139 97.2133 137.773C96.5806 138.407 95.7221 138.765 94.8262 138.767Z" fill="#FCBB65"/>
<path d="M94.8264 161.286C94.1589 161.286 93.5063 161.088 92.9512 160.717C92.3962 160.346 91.9636 159.819 91.7081 159.202C91.4526 158.585 91.3858 157.907 91.516 157.252C91.6463 156.597 91.9677 155.996 92.4397 155.524C92.9118 155.052 93.5132 154.73 94.1679 154.6C94.8227 154.47 95.5014 154.537 96.1181 154.792C96.7349 155.048 97.262 155.48 97.6329 156.035C98.0038 156.59 98.2017 157.243 98.2017 157.91C98.2017 158.806 97.8461 159.664 97.2131 160.297C96.5801 160.93 95.7216 161.286 94.8264 161.286Z" fill="#FCBB65"/>
<path d="M94.8262 183.814C94.1566 183.815 93.5017 183.618 92.9442 183.248C92.3867 182.877 91.9518 182.349 91.6945 181.731C91.4372 181.113 91.369 180.432 91.4986 179.775C91.6282 179.118 91.9498 178.515 92.4227 178.041C92.8956 177.567 93.4984 177.244 94.1549 177.112C94.8115 176.981 95.4922 177.048 96.1109 177.304C96.7296 177.559 97.2585 177.993 97.6306 178.55C98.0028 179.106 98.2014 179.761 98.2014 180.43C98.2014 181.326 97.8461 182.186 97.2133 182.82C96.5806 183.454 95.7221 183.812 94.8262 183.814Z" fill="#FCBB65"/>
<path d="M94.8264 206.333C94.1589 206.333 93.5063 206.135 92.9512 205.764C92.3962 205.393 91.9636 204.866 91.7081 204.249C91.4526 203.632 91.3858 202.954 91.516 202.299C91.6463 201.644 91.9677 201.043 92.4397 200.571C92.9118 200.099 93.5132 199.777 94.1679 199.647C94.8227 199.517 95.5014 199.583 96.1181 199.839C96.7349 200.094 97.262 200.527 97.6329 201.082C98.0038 201.637 98.2017 202.29 98.2017 202.957C98.2017 203.852 97.8461 204.711 97.2131 205.344C96.5801 205.977 95.7216 206.333 94.8264 206.333Z" fill="#FCBB65"/>
<path d="M656.81 301.009C656.141 301.011 655.485 300.813 654.928 300.442C654.37 300.071 653.935 299.543 653.678 298.924C653.421 298.306 653.353 297.625 653.484 296.968C653.614 296.31 653.936 295.707 654.41 295.233C654.884 294.759 655.487 294.437 656.144 294.307C656.801 294.177 657.482 294.244 658.101 294.501C658.719 294.758 659.248 295.193 659.619 295.751C659.99 296.309 660.187 296.964 660.186 297.634C660.186 298.529 659.83 299.387 659.197 300.02C658.564 300.653 657.706 301.009 656.81 301.009Z" fill="#FCDDB0"/>
<path d="M656.811 323.524C658.675 323.524 660.186 322.013 660.186 320.149C660.186 318.285 658.675 316.773 656.811 316.773C654.947 316.773 653.436 318.285 653.436 320.149C653.436 322.013 654.947 323.524 656.811 323.524Z" fill="#FCDDB0"/>
<path d="M656.81 346.05C656.141 346.052 655.485 345.854 654.928 345.483C654.37 345.112 653.935 344.584 653.678 343.965C653.421 343.347 653.353 342.666 653.484 342.009C653.614 341.351 653.936 340.748 654.41 340.274C654.884 339.801 655.487 339.478 656.144 339.348C656.801 339.218 657.482 339.285 658.101 339.542C658.719 339.799 659.248 340.234 659.619 340.792C659.99 341.35 660.187 342.005 660.186 342.675C660.186 343.57 659.83 344.428 659.197 345.061C658.564 345.694 657.706 346.05 656.81 346.05Z" fill="#FCDDB0"/>
<path d="M656.811 368.569C658.675 368.569 660.186 367.058 660.186 365.194C660.186 363.33 658.675 361.818 656.811 361.818C654.947 361.818 653.436 363.33 653.436 365.194C653.436 367.058 654.947 368.569 656.811 368.569Z" fill="#433459"/>
<path d="M636.991 301.009C636.321 301.011 635.666 300.813 635.108 300.442C634.551 300.071 634.116 299.543 633.859 298.924C633.602 298.306 633.534 297.625 633.664 296.968C633.795 296.31 634.117 295.707 634.591 295.233C635.064 294.759 635.668 294.437 636.325 294.307C636.982 294.177 637.663 294.244 638.282 294.501C638.9 294.758 639.429 295.193 639.8 295.751C640.171 296.309 640.368 296.964 640.366 297.634C640.366 298.529 640.011 299.387 639.378 300.02C638.745 300.653 637.886 301.009 636.991 301.009Z" fill="#FCDDB0"/>
<path d="M636.991 323.534C636.322 323.536 635.667 323.339 635.109 322.968C634.552 322.597 634.117 322.07 633.859 321.451C633.602 320.833 633.534 320.153 633.664 319.496C633.793 318.839 634.115 318.235 634.588 317.761C635.061 317.287 635.663 316.964 636.32 316.833C636.977 316.702 637.657 316.768 638.276 317.024C638.895 317.28 639.424 317.714 639.796 318.27C640.168 318.827 640.366 319.481 640.366 320.151C640.366 321.047 640.011 321.906 639.378 322.541C638.746 323.175 637.887 323.532 636.991 323.534Z" fill="#FCDDB0"/>
<path d="M636.991 346.05C636.321 346.052 635.666 345.854 635.108 345.483C634.551 345.112 634.116 344.584 633.859 343.965C633.602 343.347 633.534 342.666 633.664 342.009C633.795 341.351 634.117 340.748 634.591 340.274C635.064 339.801 635.668 339.478 636.325 339.348C636.982 339.218 637.663 339.285 638.282 339.542C638.9 339.799 639.429 340.234 639.8 340.792C640.171 341.35 640.368 342.005 640.366 342.675C640.366 343.57 640.011 344.428 639.378 345.061C638.745 345.694 637.886 346.05 636.991 346.05Z" fill="#FCDDB0"/>
<path d="M636.991 368.575C636.322 368.577 635.667 368.38 635.109 368.009C634.552 367.638 634.117 367.111 633.859 366.492C633.602 365.874 633.534 365.194 633.664 364.537C633.793 363.88 634.115 363.276 634.588 362.802C635.061 362.328 635.663 362.005 636.32 361.874C636.977 361.743 637.657 361.81 638.276 362.065C638.895 362.321 639.424 362.755 639.796 363.311C640.168 363.868 640.366 364.522 640.366 365.192C640.366 366.088 640.011 366.947 639.378 367.582C638.746 368.216 637.887 368.573 636.991 368.575Z" fill="#433459"/>
<path d="M30.2605 451.504L67.7065 414.049C68.3293 413.427 68.6791 412.582 68.6791 411.701C68.6791 410.821 68.3293 409.976 67.7065 409.353C67.0838 408.731 66.2392 408.381 65.3585 408.381C64.4778 408.381 63.6332 408.731 63.0105 409.353L25.5563 446.799C25.2474 447.108 25.0024 447.475 24.8352 447.879C24.668 448.282 24.582 448.715 24.582 449.152C24.582 449.588 24.668 450.021 24.8352 450.425C25.0024 450.828 25.2474 451.195 25.5563 451.504C25.8652 451.813 26.2319 452.058 26.6355 452.225C27.039 452.392 27.4716 452.478 27.9084 452.478C28.3452 452.478 28.7778 452.392 29.1813 452.225C29.5849 452.058 29.9516 451.813 30.2605 451.504Z" fill="#675387"/>
<path d="M68.7143 425.535C68.0819 424.931 67.2409 424.594 66.3663 424.594C65.4917 424.594 64.6508 424.931 64.0183 425.535L26.5641 462.981C25.9403 463.605 25.5898 464.451 25.5898 465.333C25.5898 466.215 25.9403 467.061 26.5641 467.685C27.1879 468.309 28.034 468.659 28.9162 468.659C29.7984 468.659 30.6445 468.309 31.2683 467.685L68.7143 430.231C69.024 429.923 69.2697 429.557 69.4373 429.154C69.605 428.751 69.6913 428.319 69.6913 427.883C69.6913 427.446 69.605 427.014 69.4373 426.611C69.2697 426.208 69.024 425.842 68.7143 425.535Z" fill="#675387"/>
<path d="M605.063 221.571L642.518 184.117C643.139 183.492 643.489 182.646 643.489 181.765C643.489 180.883 643.139 180.037 642.518 179.413C641.884 178.808 641.041 178.471 640.166 178.471C639.29 178.471 638.447 178.808 637.813 179.413L600.359 216.867C599.884 217.331 599.558 217.926 599.424 218.577C599.29 219.227 599.354 219.903 599.608 220.517C599.861 221.131 600.293 221.655 600.846 222.021C601.4 222.388 602.051 222.58 602.715 222.574C603.154 222.573 603.588 222.484 603.992 222.312C604.395 222.139 604.76 221.887 605.063 221.571Z" fill="#FCBB65"/>
<path d="M638.825 195.601L601.371 233.055C600.747 233.679 600.397 234.525 600.397 235.408C600.397 236.29 600.747 237.136 601.371 237.76C601.995 238.383 602.841 238.734 603.723 238.734C604.606 238.734 605.452 238.383 606.075 237.76L643.53 200.305C644.153 199.682 644.504 198.836 644.504 197.953C644.504 197.071 644.153 196.225 643.53 195.601C642.906 194.977 642.06 194.627 641.178 194.627C640.295 194.627 639.449 194.977 638.825 195.601Z" fill="#FCBB65"/>
<path d="M558.651 353.432H539.85V372.999H558.651V353.432Z" fill="#AEAED1"/>
<g opacity="0.7">
<path d="M558.651 353.436H554.095L539.85 363.144V370.565L558.651 357.763V353.436Z" fill="white"/>
<path d="M558.651 360.354L540.088 373.007H545.331L558.651 363.935V360.354Z" fill="white"/>
</g>
<path d="M585.627 353.492H566.826V373.059H585.627V353.492Z" fill="#AEAED1"/>
<g opacity="0.7">
<path d="M585.63 353.477H581.084L566.83 363.185V370.616L585.63 357.814V353.477Z" fill="white"/>
<path d="M585.63 360.404L567.068 373.048H572.32L585.63 363.975V360.404Z" fill="white"/>
</g>
<path d="M612.645 353.461H593.844V373.028H612.645V353.461Z" fill="#AEAED1"/>
<g opacity="0.7">
<path d="M612.644 353.461H608.088L593.843 363.17V370.591L612.644 357.788V353.461Z" fill="white"/>
<path d="M612.644 360.389L594.082 373.032H599.324L612.644 363.96V360.389Z" fill="white"/>
</g>
<path d="M615.403 372.986H537.175V380.716H615.403V372.986Z" fill="#707099"/>
<path d="M558.651 392.234H539.85V411.801H558.651V392.234Z" fill="#AEAED1"/>
<g opacity="0.7">
<path d="M558.651 392.229H554.095L539.85 401.937V409.358L558.651 396.556V392.229Z" fill="white"/>
<path d="M558.651 399.146L540.088 411.8H545.331L558.651 402.728V399.146Z" fill="white"/>
</g>
<path d="M585.627 392.285H566.826V411.852H585.627V392.285Z" fill="#AEAED1"/>
<g opacity="0.7">
<path d="M585.63 392.275H581.084L566.83 401.984V409.415L585.63 396.613V392.275Z" fill="white"/>
<path d="M585.63 399.203L567.068 411.846H572.32L585.63 402.774V399.203Z" fill="white"/>
</g>
<path d="M612.645 392.26H593.844V411.827H612.645V392.26Z" fill="#AEAED1"/>
<g opacity="0.7">
<path d="M612.644 392.258H608.088L593.843 401.967V409.388L612.644 396.585V392.258Z" fill="white"/>
<path d="M612.644 399.186L594.082 411.829H599.324L612.644 402.757V399.186Z" fill="white"/>
</g>
<path d="M615.403 411.779H537.175V419.509H615.403V411.779Z" fill="#707099"/>
<path d="M558.651 431.027H539.85V450.594H558.651V431.027Z" fill="#AEAED1"/>
<g opacity="0.7">
<path d="M558.651 431.023H554.095L539.85 440.732V448.153L558.651 435.351V431.023Z" fill="white"/>
<path d="M558.651 437.951L540.088 450.595H545.331L558.651 441.522V437.951Z" fill="white"/>
</g>
<path d="M585.627 431.078H566.826V450.645H585.627V431.078Z" fill="#AEAED1"/>
<g opacity="0.7">
<path d="M585.63 431.064H581.084L566.83 440.773V448.204L585.63 435.402V431.064Z" fill="white"/>
<path d="M585.63 437.992L567.068 450.636H572.32L585.63 441.563V437.992Z" fill="white"/>
</g>
<path d="M612.645 431.053H593.844V450.62H612.645V431.053Z" fill="#AEAED1"/>
<g opacity="0.7">
<path d="M612.644 431.059H608.088L593.843 440.767V448.188L612.644 435.386V431.059Z" fill="white"/>
<path d="M612.644 437.986L594.082 450.63H599.324L612.644 441.558V437.986Z" fill="white"/>
</g>
<path d="M615.403 450.572H537.175V458.302H615.403V450.572Z" fill="#707099"/>
<path d="M558.651 469.822H539.85V489.389H558.651V469.822Z" fill="#AEAED1"/>
<g opacity="0.7">
<path d="M558.651 469.822H554.095L539.85 479.531V486.952L558.651 474.149V469.822Z" fill="white"/>
<path d="M558.651 476.75L540.088 489.393H545.331L558.651 480.321V476.75Z" fill="white"/>
</g>
<path d="M585.627 469.871H566.826V489.438H585.627V469.871Z" fill="#AEAED1"/>
<g opacity="0.7">
<path d="M585.63 469.861H581.084L566.83 479.57V487.001L585.63 474.198V469.861Z" fill="white"/>
<path d="M585.63 476.789L567.068 489.432H572.32L585.63 480.36V476.789Z" fill="white"/>
</g>
<path d="M612.645 469.848H593.844V489.415H612.645V469.848Z" fill="#AEAED1"/>
<g opacity="0.7">
<path d="M612.644 469.852H608.088L593.843 479.56V486.981L612.644 474.179V469.852Z" fill="white"/>
<path d="M612.644 476.779L594.082 489.423H599.324L612.644 480.35V476.779Z" fill="white"/>
</g>
<path d="M615.403 489.367H537.175V497.096H615.403V489.367Z" fill="#707099"/>
<path d="M558.651 508.621H539.85V528.188H558.651V508.621Z" fill="#AEAED1"/>
<g opacity="0.7">
<path d="M558.651 508.619H554.095L539.85 518.328V525.749L558.651 512.946V508.619Z" fill="white"/>
<path d="M558.651 515.547L540.088 528.19H545.331L558.651 519.118V515.547Z" fill="white"/>
</g>
<path d="M585.627 508.67H566.826V528.237H585.627V508.67Z" fill="#AEAED1"/>
<g opacity="0.7">
<path d="M585.63 508.652H581.084L566.83 518.361V525.792L585.63 512.989V508.652Z" fill="white"/>
<path d="M585.63 515.58L567.068 528.223H572.32L585.63 519.151V515.58Z" fill="white"/>
</g>
<path d="M612.645 508.641H593.844V528.208H612.645V508.641Z" fill="#AEAED1"/>
<g opacity="0.7">
<path d="M612.644 508.652H608.088L593.843 518.361V525.782L612.644 512.98V508.652Z" fill="white"/>
<path d="M612.644 515.58L594.082 528.223H599.324L612.644 519.151V515.58Z" fill="white"/>
</g>
<path d="M455.283 377.924H435.896V414.063H455.283V377.924Z" fill="#AEAED1"/>
<g opacity="0.7">
<path d="M455.299 385.619L435.901 398.83V406.489L455.299 393.279V385.619Z" fill="white"/>
<path d="M455.299 395.955L435.901 409.165V412.846L455.299 399.636V395.955Z" fill="white"/>
<path d="M455.299 378.375L435.901 391.585V395.266L455.299 382.056V378.375Z" fill="white"/>
</g>
<path d="M482.312 377.924H462.924V414.063H482.312V377.924Z" fill="#AEAED1"/>
<g opacity="0.7">
<path d="M482.31 385.619L462.922 398.83V406.489L482.31 393.279V385.619Z" fill="white"/>
<path d="M482.31 395.955L462.922 409.165V412.846L482.31 399.636V395.955Z" fill="white"/>
<path d="M482.31 378.375L462.922 391.585V395.266L482.31 382.056V378.375Z" fill="white"/>
</g>
<path d="M509.343 377.924H489.956V414.063H509.343V377.924Z" fill="#AEAED1"/>
<g opacity="0.7">
<path d="M509.341 385.619L489.953 398.83V406.489L509.341 393.279V385.619Z" fill="white"/>
<path d="M509.341 395.949L489.953 409.16V412.84L509.341 399.63V395.949Z" fill="white"/>
<path d="M509.341 378.375L489.953 391.585V395.266L509.341 382.056V378.375Z" fill="white"/>
</g>
<path d="M455.283 427.164H435.896V463.304H455.283V427.164Z" fill="#AEAED1"/>
<g opacity="0.7">
<path d="M455.299 434.869L435.901 448.08V455.739L455.299 442.529V434.869Z" fill="white"/>
<path d="M455.299 445.205L435.901 458.415V462.096L455.299 448.886V445.205Z" fill="white"/>
<path d="M455.299 427.625L435.901 440.835V444.516L455.299 431.306V427.625Z" fill="white"/>
</g>
<path d="M482.312 427.164H462.924V463.304H482.312V427.164Z" fill="#AEAED1"/>
<g opacity="0.7">
<path d="M482.31 434.869L462.922 448.08V455.739L482.31 442.529V434.869Z" fill="white"/>
<path d="M482.31 445.205L462.922 458.415V462.096L482.31 448.886V445.205Z" fill="white"/>
<path d="M482.31 427.625L462.922 440.835V444.516L482.31 431.306V427.625Z" fill="white"/>
</g>
<path d="M509.343 427.164H489.956V463.304H509.343V427.164Z" fill="#AEAED1"/>
<g opacity="0.7">
<path d="M509.341 434.869L489.953 448.08V455.739L509.341 442.529V434.869Z" fill="white"/>
<path d="M509.341 445.205L489.953 458.415V462.096L509.341 448.886V445.205Z" fill="white"/>
<path d="M509.341 427.625L489.953 440.835V444.516L509.341 431.306V427.625Z" fill="white"/>
</g>
<path d="M455.283 476.404H435.896V512.544H455.283V476.404Z" fill="#AEAED1"/>
<g opacity="0.7">
<path d="M455.299 484.113L435.901 497.324V504.983L455.299 491.773V484.113Z" fill="white"/>
<path d="M455.299 494.449L435.901 507.66V511.34L455.299 498.13V494.449Z" fill="white"/>
<path d="M455.299 476.869L435.901 490.08V493.76L455.299 480.55V476.869Z" fill="white"/>
</g>
<path d="M482.312 476.404H462.924V512.544H482.312V476.404Z" fill="#AEAED1"/>
<g opacity="0.7">
<path d="M482.31 484.113L462.922 497.324V504.983L482.31 491.773V484.113Z" fill="white"/>
<path d="M482.31 494.449L462.922 507.66V511.34L482.31 498.13V494.449Z" fill="white"/>
<path d="M482.31 476.869L462.922 490.08V493.76L482.31 480.55V476.869Z" fill="white"/>
</g>
<path d="M509.343 476.404H489.956V512.544H509.343V476.404Z" fill="#AEAED1"/>
<g opacity="0.7">
<path d="M509.341 484.113L489.953 497.324V504.983L509.341 491.773V484.113Z" fill="white"/>
<path d="M509.341 494.449L489.953 507.66V511.34L509.341 498.13V494.449Z" fill="white"/>
<path d="M509.341 476.869L489.953 490.08V493.76L509.341 480.55V476.869Z" fill="white"/>
</g>
<path d="M654.404 369.912C656.808 369.912 659.113 370.867 660.812 372.566C662.512 374.266 663.466 376.571 663.466 378.974V403.057C663.466 403.224 663.4 403.383 663.283 403.501C663.165 403.618 663.006 403.684 662.84 403.684H645.929C645.763 403.684 645.603 403.618 645.486 403.501C645.368 403.383 645.302 403.224 645.302 403.057V378.974C645.302 377.781 645.538 376.599 645.996 375.497C646.454 374.395 647.125 373.394 647.971 372.552C648.816 371.71 649.82 371.044 650.924 370.591C652.028 370.137 653.211 369.907 654.404 369.912Z" fill="#AEAED1"/>
<g opacity="0.7">
<path d="M645.37 396.6L663.464 384.305V379.012C663.464 378.425 663.407 377.839 663.295 377.262L645.389 389.487L645.37 396.6Z" fill="white"/>
<path d="M645.37 402.533L663.484 390.198V386.746L645.37 399.091V402.533Z" fill="white"/>
<path d="M660.569 372.359L645.37 382.715V386.157L662.34 374.598C661.873 373.762 661.276 373.006 660.569 372.359Z" fill="white"/>
</g>
<path d="M654.665 416.16C655.855 416.16 657.034 416.395 658.133 416.85C659.232 417.306 660.231 417.973 661.073 418.815C661.915 419.656 662.582 420.655 663.037 421.755C663.493 422.854 663.727 424.032 663.727 425.222V449.306C663.727 449.472 663.661 449.631 663.544 449.749C663.426 449.866 663.267 449.932 663.101 449.932H646.19C646.023 449.932 645.864 449.866 645.747 449.749C645.629 449.631 645.563 449.472 645.563 449.306V425.222C645.563 424.029 645.799 422.847 646.257 421.745C646.715 420.643 647.386 419.642 648.231 418.8C649.077 417.958 650.081 417.292 651.185 416.839C652.289 416.386 653.472 416.155 654.665 416.16Z" fill="#AEAED1"/>
<g opacity="0.7">
<path d="M645.616 442.86L663.731 430.515V425.233C663.731 424.646 663.674 424.059 663.562 423.482L645.656 435.708L645.616 442.86Z" fill="white"/>
<path d="M645.604 448.802L663.728 436.458V433.016L645.604 445.361V448.802Z" fill="white"/>
<path d="M660.816 418.574L645.616 428.93V432.381L662.587 420.812C662.113 419.981 661.516 419.226 660.816 418.574Z" fill="white"/>
</g>
<path d="M654.893 462.428C657.297 462.428 659.602 463.383 661.301 465.082C663.001 466.782 663.956 469.087 663.956 471.49V495.573C663.956 495.739 663.89 495.899 663.772 496.016C663.655 496.134 663.495 496.2 663.329 496.2H646.448C646.282 496.2 646.122 496.134 646.005 496.016C645.887 495.899 645.821 495.739 645.821 495.573V471.48C645.821 469.077 646.776 466.772 648.476 465.072C650.175 463.373 652.48 462.418 654.884 462.418L654.893 462.428Z" fill="#AEAED1"/>
<g opacity="0.7">
<path d="M645.841 489.129L663.956 476.824V471.532C663.955 470.944 663.899 470.358 663.787 469.781L645.881 482.007L645.841 489.129Z" fill="white"/>
<path d="M645.841 495.056L663.956 482.721V479.27L645.841 491.614V495.056Z" fill="white"/>
<path d="M661.051 464.879L645.841 475.244V478.686L662.812 467.127C662.343 466.292 661.749 465.534 661.051 464.879Z" fill="white"/>
</g>
<path d="M398.246 375.752C400.333 375.752 402.334 376.581 403.81 378.057C405.285 379.532 406.114 381.534 406.114 383.62V395.707H390.377V383.62C390.377 381.534 391.206 379.532 392.682 378.057C394.158 376.581 396.159 375.752 398.246 375.752Z" fill="#AEAED1"/>
<path d="M405.557 380.705L390.377 391.051V393.259L406.055 382.585C405.964 381.941 405.797 381.31 405.557 380.705Z" fill="#AEAED1"/>
<g opacity="0.6">
<path d="M401.989 376.689L390.38 384.598V391.044L405.56 380.698C404.874 378.986 403.611 377.568 401.989 376.689Z" fill="white"/>
<path d="M406.127 383.62C406.123 383.287 406.1 382.955 406.057 382.625L390.38 393.249V395.676H391.375L406.127 385.629V383.62Z" fill="white"/>
</g>
<path d="M398.246 418.877C400.333 418.877 402.334 419.706 403.81 421.182C405.286 422.657 406.115 424.659 406.115 426.745V438.832H390.377V426.765C390.375 425.73 390.576 424.705 390.971 423.748C391.365 422.791 391.944 421.921 392.675 421.189C393.406 420.456 394.274 419.874 395.23 419.478C396.186 419.081 397.211 418.877 398.246 418.877Z" fill="#AEAED1"/>
<path d="M405.557 423.84L390.377 434.175V436.424L406.055 425.75C405.968 425.095 405.801 424.454 405.557 423.84Z" fill="#AEAED1"/>
<g opacity="0.6">
<path d="M401.989 419.84L390.38 427.748V434.184L405.56 423.849C404.874 422.136 403.611 420.718 401.989 419.84Z" fill="white"/>
<path d="M406.127 426.77C406.123 426.437 406.1 426.105 406.057 425.775L390.38 436.429V438.856H391.375L406.127 428.799V426.77Z" fill="white"/>
</g>
<path d="M398.246 462.037C400.333 462.037 402.334 462.866 403.81 464.342C405.285 465.817 406.114 467.819 406.114 469.906V481.992H390.377V469.906C390.377 467.819 391.206 465.817 392.682 464.342C394.158 462.866 396.159 462.037 398.246 462.037Z" fill="#AEAED1"/>
<path d="M405.557 466.984L390.377 477.33V479.578L406.055 468.864C405.964 468.22 405.797 467.589 405.557 466.984Z" fill="#AEAED1"/>
<g opacity="0.6">
<path d="M401.989 462.979L390.38 470.937V477.373L405.56 467.027C404.883 465.299 403.619 463.865 401.989 462.979Z" fill="white"/>
<path d="M406.127 469.909C406.123 469.576 406.099 469.244 406.057 468.914L390.38 479.598V482.025H391.375L406.127 471.938V469.909Z" fill="white"/>
</g>
<path d="M398.246 505.176C400.333 505.176 402.334 506.005 403.81 507.48C405.285 508.956 406.114 510.957 406.114 513.044V525.131H390.377V513.054C390.377 510.967 391.206 508.966 392.682 507.49C394.158 506.015 396.159 505.186 398.246 505.186V505.176Z" fill="#AEAED1"/>
<path d="M405.557 510.119L390.377 520.465V522.713L406.055 512.029C405.967 511.375 405.8 510.733 405.557 510.119Z" fill="#AEAED1"/>
<g opacity="0.6">
<path d="M401.989 506.123L390.38 514.021V520.467L405.56 510.122C404.874 508.413 403.61 506.998 401.989 506.123Z" fill="white"/>
<path d="M406.127 513.044C406.123 512.711 406.099 512.379 406.057 512.049L390.38 522.733V525.15H391.375L406.127 515.103V513.044Z" fill="white"/>
</g>
<path d="M377.862 351H671.843C672.748 351 673.644 351.178 674.481 351.525C675.317 351.871 676.077 352.379 676.717 353.019C677.357 353.659 677.865 354.419 678.211 355.256C678.558 356.092 678.736 356.988 678.736 357.894V532.901H371.018V357.894C371.018 356.074 371.737 354.328 373.02 353.037C374.302 351.745 376.042 351.013 377.862 351Z" fill="#9393B2"/>
<path d="M352 530.727H698.016V531.512C698.016 536.504 696.033 541.291 692.504 544.821C688.974 548.35 684.187 550.333 679.195 550.333H370.821C365.829 550.333 361.042 548.35 357.512 544.821C353.983 541.291 352 536.504 352 531.512V530.727Z" fill="#9393B2"/>
<path d="M661.737 362.789H388.02C384.213 362.789 381.126 365.875 381.126 369.683V516.947C381.126 520.754 384.213 523.84 388.02 523.84H661.737C665.545 523.84 668.631 520.754 668.631 516.947V369.683C668.631 365.875 665.545 362.789 661.737 362.789Z" fill="#C6C6DB"/>
<path d="M534.121 366.785H387.643V518.794H534.121V366.785Z" fill="white"/>
<path d="M534 386H387V394H534V386Z" fill="#C6C6DB"/>
<path d="M534.341 462.654H419.815V469.906H534.341V462.654Z" fill="#C6C6DB"/>
<path d="M502.468 364.027H494.52V468.875H502.468V364.027Z" fill="#C6C6DB"/>
<path d="M464.802 467.407L457.44 470.402L478.824 522.96L486.186 519.964L464.802 467.407Z" fill="#C6C6DB"/>
<path d="M417.432 362.811L410.07 365.807L421.298 393.403L428.66 390.407L417.432 362.811Z" fill="#C6C6DB"/>
<path d="M381.386 455.835L387.006 461.455L456.706 391.755L451.086 386.135L381.386 455.835Z" fill="#C6C6DB"/>
<path d="M427.848 464.213H419.9V522.247H427.848V464.213Z" fill="#C6C6DB"/>
<path d="M655.597 370.088H551.715V413.718H655.597V370.088Z" fill="#FCDDB0"/>
<path d="M567.939 379.557L555.196 391.484H557.633V403.391H558.866H577.916V391.484H580.672L567.939 379.557Z" fill="#9393B2"/>
<path d="M562.977 380.164H559.595V388.998H562.977V380.164Z" fill="#9393B2"/>
<path d="M650.327 391.348H586.295V394.979H650.327V391.348Z" fill="#675387"/>
<path d="M650.032 383H586V386.631H650.032V383Z" fill="#675387"/>
<path d="M650.327 401.193H586.295V404.824H650.327V401.193Z" fill="#675387"/>
<path d="M551.588 465.01H655.471V421.38H551.588V465.01Z" fill="#FCDDB0"/>
<path d="M567.811 430.854L555.068 442.781H557.506V454.698H558.739H577.789V442.781H580.544L567.811 430.854Z" fill="#9393B2"/>
<path d="M562.849 431.465H559.467V440.298H562.849V431.465Z" fill="#9393B2"/>
<path d="M650.2 442.656H586.168V446.287H650.2V442.656Z" fill="#675387"/>
<path d="M650.032 433H586V436.631H650.032V433Z" fill="#675387"/>
<path d="M650.199 452.502H586.167V456.133H650.199V452.502Z" fill="#675387"/>
<path d="M655.489 472.684H551.607V516.314H655.489V472.684Z" fill="#FCDDB0"/>
<path d="M567.831 482.168L555.088 494.095H557.526V506.002H558.769H577.809V494.095H580.564L567.831 482.168Z" fill="#9393B2"/>
<path d="M562.867 482.76H559.484V491.593H562.867V482.76Z" fill="#F9FDFE"/>
<path d="M650.217 493.953H586.185V497.584H650.217V493.953Z" fill="#F9FDFE"/>
<path d="M650.217 503.809H586.185V507.439H650.217V503.809Z" fill="#675387"/>
<path d="M589.44 481.646L590.743 478.891L592.305 481.567L595.339 481.795L593.14 484.133L593.866 487.247L591.021 485.526L588.375 487.247L588.743 484.183L586.167 481.945L589.44 481.646Z" fill="white"/>
<path d="M603.097 481.675L604.4 478.92L605.962 481.596L608.996 481.825L606.798 484.152L607.524 487.276L604.679 485.545L602.033 487.276L602.401 484.212L599.834 481.974L603.097 481.675Z" fill="white"/>
<path d="M616.755 481.656L618.058 478.891L619.619 481.567L622.653 481.795L620.455 484.133L621.181 487.247L618.346 485.526L615.69 487.247L616.058 484.183L613.492 481.945L616.755 481.656Z" fill="white"/>
<path d="M490.104 437.861C490.2 433.237 489.2 428.656 487.188 424.493C485.175 420.329 482.206 416.7 478.523 413.903C474.841 411.105 470.549 409.219 465.998 408.397C461.447 407.575 456.766 407.841 452.337 409.173C447.909 410.505 443.858 412.866 440.516 416.062C437.174 419.259 434.635 423.2 433.107 427.565C431.579 431.93 431.104 436.594 431.723 441.177C432.341 445.76 434.035 450.132 436.666 453.936H436.576L459.814 484.893L484.265 454.931H484.205C487.923 450.005 489.988 444.03 490.104 437.861Z" fill="#7878A0"/>
<path d="M461.591 417.359L444.024 433.813H447.376V450.236H462.686V449.659V435.553H470.852V450.226H475.349V433.813H479.149L461.591 417.359ZM459.075 442.994H450.918V435.583H459.075V442.994Z" fill="#F9FDFE"/>
<path d="M516.405 453.668L512.542 465.801L576.354 486.116L580.216 473.984L516.405 453.668Z" fill="#47334F"/>
<path d="M558.081 469.157L555.537 477.147C553.863 482.403 556.768 488.021 562.024 489.694L641.276 514.926C646.531 516.599 652.149 513.695 653.822 508.439L656.366 500.448C658.039 495.192 655.135 489.575 649.879 487.902L570.627 462.67C565.371 460.997 559.754 463.901 558.081 469.157Z" fill="#5D4468"/>
<path d="M537.052 455.633L533.073 454.419C532.837 454.347 532.616 454.228 532.426 454.07C532.235 453.912 532.077 453.718 531.962 453.499C531.846 453.28 531.775 453.04 531.752 452.793C531.73 452.547 531.756 452.298 531.83 452.062L532.238 450.729C532.381 450.251 532.329 449.737 532.094 449.297C531.86 448.857 531.461 448.528 530.984 448.381L526.578 447.038C526.342 446.965 526.094 446.938 525.848 446.961C525.602 446.984 525.363 447.055 525.145 447.171C524.926 447.286 524.733 447.444 524.576 447.635C524.419 447.825 524.302 448.045 524.23 448.282L516.69 472.932C516.616 473.168 516.59 473.417 516.614 473.663C516.637 473.91 516.709 474.149 516.826 474.367C516.942 474.586 517.101 474.779 517.293 474.935C517.485 475.092 517.706 475.209 517.943 475.279L522.34 476.632C522.576 476.704 522.825 476.729 523.071 476.705C523.317 476.681 523.556 476.609 523.774 476.492C523.992 476.376 524.185 476.218 524.341 476.027C524.498 475.836 524.616 475.615 524.688 475.379C524.837 474.902 525.168 474.503 525.609 474.268C526.05 474.034 526.566 473.982 527.045 474.125L531.024 475.339C531.261 475.413 531.509 475.439 531.756 475.417C532.003 475.394 532.242 475.323 532.461 475.207C532.68 475.092 532.875 474.934 533.032 474.743C533.19 474.552 533.309 474.332 533.382 474.096L538.306 457.99C538.379 457.753 538.405 457.504 538.382 457.257C538.359 457.01 538.287 456.77 538.17 456.551C538.054 456.331 537.895 456.137 537.703 455.98C537.511 455.822 537.29 455.704 537.052 455.633Z" fill="#5D4468"/>
<path d="M521.826 462.001C517.99 474.054 510.667 484.699 500.781 492.59C490.896 500.48 478.892 505.262 466.289 506.331C453.686 507.4 441.049 504.708 429.975 498.595C418.902 492.481 409.891 483.222 404.08 471.987C398.269 460.753 395.92 448.047 397.33 435.477C398.741 422.908 403.846 411.038 412.002 401.37C420.158 391.703 430.997 384.67 443.15 381.163C455.302 377.655 468.222 377.83 480.275 381.665C496.424 386.828 509.867 398.184 517.657 413.244C525.446 428.304 526.945 445.838 521.826 462.001ZM410.413 426.538C407.236 436.523 407.091 447.226 409.996 457.293C412.901 467.361 418.727 476.341 426.735 483.098C434.744 489.854 444.576 494.085 454.989 495.254C465.402 496.422 475.928 494.477 485.235 489.664C494.543 484.851 502.214 477.387 507.279 468.214C512.344 459.041 514.576 448.572 513.691 438.132C512.807 427.691 508.846 417.747 502.31 409.557C495.774 401.366 486.957 395.298 476.972 392.12C463.579 387.87 449.047 389.107 436.565 395.559C424.082 402.012 414.67 413.153 410.393 426.538H410.413Z" fill="#47334F"/>
<path d="M418.996 129.95C419.066 126.403 418.298 122.889 416.752 119.696C415.206 116.503 412.927 113.72 410.101 111.576C407.274 109.431 403.981 107.986 400.49 107.357C396.998 106.727 393.408 106.933 390.011 107.956C386.614 108.979 383.507 110.791 380.944 113.244C378.38 115.697 376.434 118.721 375.262 122.07C374.091 125.419 373.728 128.997 374.203 132.513C374.678 136.028 375.977 139.382 377.996 142.3L378.396 142.88L395.736 166.05L414.486 143.05H414.426C417.296 139.276 418.896 134.69 418.996 129.95ZM396.766 114.17C398.563 114.206 400.309 114.774 401.784 115.802C403.258 116.83 404.395 118.273 405.049 119.947C405.704 121.621 405.848 123.452 405.462 125.208C405.076 126.964 404.179 128.566 402.883 129.812C401.587 131.057 399.95 131.891 398.181 132.207C396.411 132.522 394.587 132.306 392.94 131.586C391.293 130.865 389.897 129.673 388.928 128.159C387.959 126.645 387.46 124.877 387.496 123.08C387.519 121.886 387.777 120.708 388.256 119.615C388.734 118.521 389.424 117.532 390.285 116.704C391.146 115.877 392.161 115.227 393.273 114.792C394.385 114.357 395.572 114.146 396.766 114.17Z" fill="#765585"/>
<path d="M396.896 132.308C401.913 132.136 405.841 127.929 405.67 122.912C405.498 117.895 401.291 113.967 396.274 114.138C391.257 114.31 387.329 118.517 387.5 123.534C387.672 128.551 391.879 132.479 396.896 132.308Z" fill="white"/>
</svg>
