<svg width="461" height="360" viewBox="0 0 461 360" fill="none" xmlns="http://www.w3.org/2000/svg">
<g clip-path="url(#clip0_42_828)">
<path d="M451.71 118.348H402.865V358.065H451.71V118.348Z" fill="#75D3A9" stroke="#67BE97" stroke-width="3" stroke-miterlimit="10"/>
<path d="M442.255 238.868H429.238V256.623H442.255V238.868Z" fill="#67BE97"/>
<path d="M442.255 238.868H429.238V256.623H442.255V238.868Z" fill="#67BE97"/>
<path d="M429.238 236.011H442.264V256.623" stroke="#67BE97" stroke-width="2.84" stroke-miterlimit="10"/>
<path d="M424.835 238.868H411.817V256.623H424.835V238.868Z" fill="#67BE97"/>
<path d="M424.835 238.868H411.817V256.623H424.835V238.868Z" fill="#80E4B8"/>
<path d="M411.817 236.011H424.835V256.623" stroke="#67BE97" stroke-width="2.84" stroke-miterlimit="10"/>
<path d="M442.255 273.391H429.238V291.146H442.255V273.391Z" fill="#67BE97"/>
<path d="M442.255 273.391H429.238V291.146H442.255V273.391Z" fill="#80E4B8"/>
<path d="M429.238 270.534H442.264V291.146" stroke="#67BE97" stroke-width="2.84" stroke-miterlimit="10"/>
<path d="M424.835 273.391H411.817V291.146H424.835V273.391Z" fill="#67BE97"/>
<path d="M424.835 273.391H411.817V291.146H424.835V273.391Z" fill="#67BE97"/>
<path d="M411.817 270.534H424.835V291.146" stroke="#67BE97" stroke-width="2.84" stroke-miterlimit="10"/>
<path d="M442.255 307.914H429.238V325.669H442.255V307.914Z" fill="#67BE97"/>
<path d="M442.255 307.914H429.238V325.669H442.255V307.914Z" fill="#80E4B8"/>
<path d="M429.238 305.057H442.264V325.669" stroke="#67BE97" stroke-width="2.84" stroke-miterlimit="10"/>
<path d="M424.835 307.914H411.817V325.669H424.835V307.914Z" fill="#67BE97"/>
<path d="M424.835 307.914H411.817V325.669H424.835V307.914Z" fill="#80E4B8"/>
<path d="M411.817 305.057H424.835V325.669" stroke="#67BE97" stroke-width="2.84" stroke-miterlimit="10"/>
<path d="M412.822 259.973H442.264" stroke="#67BE97" stroke-width="2.84" stroke-miterlimit="10"/>
<path d="M412.822 294.624H442.264" stroke="#67BE97" stroke-width="2.84" stroke-miterlimit="10"/>
<path d="M412.822 329.274H442.264" stroke="#67BE97" stroke-width="2.84" stroke-miterlimit="10"/>
<path d="M442.255 135.399H429.238V153.154H442.255V135.399Z" fill="#67BE97"/>
<path d="M442.255 135.399H429.238V153.154H442.255V135.399Z" fill="#67BE97"/>
<path d="M429.238 132.542H442.264V153.154" stroke="#67BE97" stroke-width="2.84" stroke-miterlimit="10"/>
<path d="M424.835 135.399H411.817V153.154H424.835V135.399Z" fill="#67BE97"/>
<path d="M424.835 135.399H411.817V153.154H424.835V135.399Z" fill="#80E4B8"/>
<path d="M411.817 132.542H424.835V153.154" stroke="#67BE97" stroke-width="2.84" stroke-miterlimit="10"/>
<path d="M442.255 169.922H429.238V187.677H442.255V169.922Z" fill="#67BE97"/>
<path d="M442.255 169.922H429.238V187.677H442.255V169.922Z" fill="#80E4B8"/>
<path d="M429.238 167.065H442.264V187.677" stroke="#67BE97" stroke-width="2.84" stroke-miterlimit="10"/>
<path d="M424.835 169.922H411.817V187.677H424.835V169.922Z" fill="#67BE97"/>
<path d="M424.835 169.922H411.817V187.677H424.835V169.922Z" fill="#67BE97"/>
<path d="M411.817 167.065H424.835V187.677" stroke="#67BE97" stroke-width="2.84" stroke-miterlimit="10"/>
<path d="M442.255 204.436H429.238V222.191H442.255V204.436Z" fill="#67BE97"/>
<path d="M442.255 204.436H429.238V222.191H442.255V204.436Z" fill="#67BE97"/>
<path d="M429.238 201.579H442.264V222.2" stroke="#67BE97" stroke-width="2.84" stroke-miterlimit="10"/>
<path d="M424.835 204.436H411.817V222.191H424.835V204.436Z" fill="#67BE97"/>
<path d="M424.835 204.436H411.817V222.191H424.835V204.436Z" fill="#67BE97"/>
<path d="M411.817 201.579H424.835V222.2" stroke="#67BE97" stroke-width="2.84" stroke-miterlimit="10"/>
<path d="M412.822 156.504H442.264" stroke="#67BE97" stroke-width="2.84" stroke-miterlimit="10"/>
<path d="M412.822 191.155H442.264" stroke="#67BE97" stroke-width="2.84" stroke-miterlimit="10"/>
<path d="M412.822 225.796H442.264" stroke="#67BE97" stroke-width="2.84" stroke-miterlimit="10"/>
<path d="M415.636 118.375H239.158V358.074H415.636V118.375Z" fill="#67BE97" stroke="#67BE97" stroke-width="2.84" stroke-miterlimit="10"/>
<path d="M415.636 118.375H332.462V358.074H415.636V118.375Z" fill="#75D3A9" stroke="#67BE97" stroke-width="3" stroke-miterlimit="10"/>
<path d="M380.649 307.056C377.961 307.051 375.298 307.577 372.813 308.603C370.328 309.629 368.071 311.135 366.17 313.034C364.268 314.934 362.761 317.19 361.735 319.673C360.708 322.156 360.182 324.817 360.187 327.503V357.627H401.111V327.503C401.124 324.815 400.603 322.151 399.579 319.664C398.554 317.178 397.048 314.919 395.145 313.018C393.243 311.117 390.982 309.611 388.494 308.588C386.006 307.565 383.34 307.044 380.649 307.056V307.056Z" fill="#80E4B8"/>
<path d="M401.166 357.627V327.503C401.171 324.817 400.645 322.156 399.618 319.673C398.592 317.19 397.085 314.934 395.184 313.034C393.283 311.135 391.025 309.629 388.54 308.603C386.055 307.577 383.392 307.051 380.704 307.056V307.056C378.015 307.051 375.352 307.577 372.868 308.603C370.383 309.629 368.125 311.135 366.224 313.034C364.323 314.934 362.816 317.19 361.79 319.673C360.763 322.156 360.237 324.817 360.242 327.503" stroke="#67BE97" stroke-width="3" stroke-miterlimit="10"/>
<path d="M380.613 307.056V357.627" stroke="#67BE97" stroke-width="3" stroke-miterlimit="10"/>
<path d="M344.959 259.982H409.315" stroke="#67BE97" stroke-width="2.84" stroke-miterlimit="10"/>
<path d="M320.277 118.375H271.432V358.074H320.277V118.375Z" fill="#75D3A9" stroke="#67BE97" stroke-width="3" stroke-miterlimit="10"/>
<path d="M310.831 238.877H297.814V256.632H310.831V238.877Z" fill="#67BE97"/>
<path d="M310.831 238.877H297.814V256.632H310.831V238.877Z" fill="#80E4B8"/>
<path d="M297.805 236.02H310.831V256.632" stroke="#67BE97" stroke-width="2.84" stroke-miterlimit="10"/>
<path d="M293.402 238.877H280.384V256.632H293.402V238.877Z" fill="#67BE97"/>
<path d="M293.402 238.877H280.384V256.632H293.402V238.877Z" fill="#67BE97"/>
<path d="M280.384 236.02H293.402V256.632" stroke="#67BE97" stroke-width="2.84" stroke-miterlimit="10"/>
<path d="M310.831 273.4H297.814V291.155H310.831V273.4Z" fill="#67BE97"/>
<path d="M310.831 273.4H297.814V291.155H310.831V273.4Z" fill="#80E4B8"/>
<path d="M297.805 270.543H310.831V291.155" stroke="#67BE97" stroke-width="2.84" stroke-miterlimit="10"/>
<path d="M293.402 273.4H280.384V291.155H293.402V273.4Z" fill="#67BE97"/>
<path d="M293.402 273.4H280.384V291.155H293.402V273.4Z" fill="#67BE97"/>
<path d="M280.384 270.543H293.402V291.155" stroke="#67BE97" stroke-width="2.84" stroke-miterlimit="10"/>
<path d="M310.831 307.914H297.814V325.669H310.831V307.914Z" fill="#67BE97"/>
<path d="M310.831 307.914H297.814V325.669H310.831V307.914Z" fill="#67BE97"/>
<path d="M297.805 305.057H310.831V325.678" stroke="#67BE97" stroke-width="2.84" stroke-miterlimit="10"/>
<path d="M293.402 307.914H280.384V325.669H293.402V307.914Z" fill="#67BE97"/>
<path d="M293.402 307.914H280.384V325.669H293.402V307.914Z" fill="#67BE97"/>
<path d="M280.384 305.057H293.402V325.678" stroke="#67BE97" stroke-width="2.84" stroke-miterlimit="10"/>
<path d="M281.389 259.982H310.831" stroke="#67BE97" stroke-width="2.84" stroke-miterlimit="10"/>
<path d="M281.389 294.633H310.831" stroke="#67BE97" stroke-width="2.84" stroke-miterlimit="10"/>
<path d="M281.389 329.274H310.831" stroke="#67BE97" stroke-width="2.84" stroke-miterlimit="10"/>
<path d="M357.976 238.877H344.959V256.632H357.976V238.877Z" fill="#67BE97"/>
<path d="M357.976 273.4H344.959V291.155H357.976V273.4Z" fill="#80E4B8"/>
<path d="M374.721 238.877H361.704V256.632H374.721V238.877Z" fill="#80E4B8"/>
<path d="M374.721 273.4H361.704V291.155H374.721V273.4Z" fill="#67BE97"/>
<path d="M391.456 238.877H378.438V256.632H391.456V238.877Z" fill="#67BE97"/>
<path d="M391.456 273.4H378.438V291.155H391.456V273.4Z" fill="#80E4B8"/>
<path d="M408.191 238.877H395.174V256.632H408.191V238.877Z" fill="#80E4B8"/>
<path d="M408.191 273.4H395.174V291.155H408.191V273.4Z" fill="#67BE97"/>
<path d="M344.959 294.633H409.315" stroke="#67BE97" stroke-width="2.84" stroke-miterlimit="10"/>
<path d="M395.174 236.02H408.2V256.632" stroke="#67BE97" stroke-width="2.84" stroke-miterlimit="10"/>
<path d="M378.438 236.02H391.456V256.632" stroke="#67BE97" stroke-width="2.84" stroke-miterlimit="10"/>
<path d="M361.704 236.02H374.721V256.632" stroke="#67BE97" stroke-width="2.84" stroke-miterlimit="10"/>
<path d="M344.959 236.02H357.985V256.632" stroke="#67BE97" stroke-width="2.84" stroke-miterlimit="10"/>
<path d="M357.976 238.877H344.959V256.632H357.976V238.877Z" fill="#67BE97"/>
<path d="M344.959 236.02H357.985V256.632" stroke="#67BE97" stroke-width="2.84" stroke-miterlimit="10"/>
<path d="M395.174 270.543H408.2V291.155" stroke="#67BE97" stroke-width="2.84" stroke-miterlimit="10"/>
<path d="M378.438 270.543H391.456V291.155" stroke="#67BE97" stroke-width="2.84" stroke-miterlimit="10"/>
<path d="M361.704 270.543H374.721V291.155" stroke="#67BE97" stroke-width="2.84" stroke-miterlimit="10"/>
<path d="M344.959 270.543H357.985V291.155" stroke="#67BE97" stroke-width="2.84" stroke-miterlimit="10"/>
<path d="M344.959 156.504H409.315" stroke="#67BE97" stroke-width="2.84" stroke-miterlimit="10"/>
<path d="M310.831 135.399H297.814V153.154H310.831V135.399Z" fill="#67BE97"/>
<path d="M310.831 135.399H297.814V153.154H310.831V135.399Z" fill="#67BE97"/>
<path d="M297.805 132.542H310.831V153.154" stroke="#67BE97" stroke-width="2.84" stroke-miterlimit="10"/>
<path d="M293.402 135.399H280.384V153.154H293.402V135.399Z" fill="#67BE97"/>
<path d="M293.402 135.399H280.384V153.154H293.402V135.399Z" fill="#80E4B8"/>
<path d="M280.384 132.542H293.402V153.154" stroke="#67BE97" stroke-width="2.84" stroke-miterlimit="10"/>
<path d="M310.831 169.922H297.814V187.677H310.831V169.922Z" fill="#67BE97"/>
<path d="M310.831 169.922H297.814V187.677H310.831V169.922Z" fill="#67BE97"/>
<path d="M297.805 167.065H310.831V187.677" stroke="#67BE97" stroke-width="2.84" stroke-miterlimit="10"/>
<path d="M293.402 169.922H280.384V187.677H293.402V169.922Z" fill="#67BE97"/>
<path d="M293.402 169.922H280.384V187.677H293.402V169.922Z" fill="#80E4B8"/>
<path d="M280.384 167.065H293.402V187.677" stroke="#67BE97" stroke-width="2.84" stroke-miterlimit="10"/>
<path d="M310.831 204.436H297.814V222.191H310.831V204.436Z" fill="#67BE97"/>
<path d="M310.831 204.436H297.814V222.191H310.831V204.436Z" fill="#80E4B8"/>
<path d="M297.805 201.579H310.831V222.2" stroke="#67BE97" stroke-width="2.84" stroke-miterlimit="10"/>
<path d="M293.402 204.436H280.384V222.191H293.402V204.436Z" fill="#67BE97"/>
<path d="M293.402 204.436H280.384V222.191H293.402V204.436Z" fill="#67BE97"/>
<path d="M280.384 201.579H293.402V222.2" stroke="#67BE97" stroke-width="2.84" stroke-miterlimit="10"/>
<path d="M281.389 156.504H310.831" stroke="#67BE97" stroke-width="2.84" stroke-miterlimit="10"/>
<path d="M281.389 191.155H310.831" stroke="#67BE97" stroke-width="2.84" stroke-miterlimit="10"/>
<path d="M281.389 225.796H310.831" stroke="#67BE97" stroke-width="2.84" stroke-miterlimit="10"/>
<path d="M357.976 135.399H344.959V153.154H357.976V135.399Z" fill="#67BE97"/>
<path d="M357.976 169.922H344.959V187.677H357.976V169.922Z" fill="#67BE97"/>
<path d="M357.976 204.436H344.959V222.191H357.976V204.436Z" fill="#67BE97"/>
<path d="M374.721 135.399H361.704V153.154H374.721V135.399Z" fill="#80E4B8"/>
<path d="M374.721 169.922H361.704V187.677H374.721V169.922Z" fill="#80E4B8"/>
<path d="M374.721 204.436H361.704V222.191H374.721V204.436Z" fill="#80E4B8"/>
<path d="M391.456 135.399H378.438V153.154H391.456V135.399Z" fill="#67BE97"/>
<path d="M391.456 169.922H378.438V187.677H391.456V169.922Z" fill="#67BE97"/>
<path d="M391.456 204.436H378.438V222.191H391.456V204.436Z" fill="#80E4B8"/>
<path d="M408.191 135.399H395.174V153.154H408.191V135.399Z" fill="#80E4B8"/>
<path d="M408.191 169.922H395.174V187.677H408.191V169.922Z" fill="#67BE97"/>
<path d="M344.959 226.417H409.315" stroke="#67BE97" stroke-width="2.84" stroke-miterlimit="10"/>
<path d="M344.959 191.155H409.315" stroke="#67BE97" stroke-width="2.84" stroke-miterlimit="10"/>
<path d="M408.191 204.436H395.174V222.191H408.191V204.436Z" fill="#80E4B8"/>
<path d="M395.174 132.542H408.2V153.154" stroke="#67BE97" stroke-width="2.84" stroke-miterlimit="10"/>
<path d="M378.438 132.542H391.456V153.154" stroke="#67BE97" stroke-width="2.84" stroke-miterlimit="10"/>
<path d="M361.704 132.542H374.721V153.154" stroke="#67BE97" stroke-width="2.84" stroke-miterlimit="10"/>
<path d="M344.959 132.542H357.985V153.154" stroke="#67BE97" stroke-width="2.84" stroke-miterlimit="10"/>
<path d="M357.976 135.399H344.959V153.154H357.976V135.399Z" fill="#80E4B8"/>
<path d="M344.959 132.542H357.985V153.154" stroke="#67BE97" stroke-width="2.84" stroke-miterlimit="10"/>
<path d="M395.174 167.065H408.2V187.677" stroke="#67BE97" stroke-width="2.84" stroke-miterlimit="10"/>
<path d="M378.438 167.065H391.456V187.677" stroke="#67BE97" stroke-width="2.84" stroke-miterlimit="10"/>
<path d="M361.704 167.065H374.721V187.677" stroke="#67BE97" stroke-width="2.84" stroke-miterlimit="10"/>
<path d="M344.959 167.065H357.985V187.677" stroke="#67BE97" stroke-width="2.84" stroke-miterlimit="10"/>
<path d="M395.174 201.524H408.2V222.136" stroke="#67BE97" stroke-width="2.84" stroke-miterlimit="10"/>
<path d="M378.438 201.524H391.456V222.136" stroke="#67BE97" stroke-width="2.84" stroke-miterlimit="10"/>
<path d="M361.704 201.524H374.721V222.136" stroke="#67BE97" stroke-width="2.84" stroke-miterlimit="10"/>
<path d="M344.959 201.524H357.985V222.136" stroke="#67BE97" stroke-width="2.84" stroke-miterlimit="10"/>
<path d="M332.463 1.36914H369.149V74.6873H295.777V38.0282C295.777 28.3056 299.642 18.9812 306.522 12.1063C313.402 5.23142 322.733 1.36914 332.463 1.36914V1.36914Z" fill="#67BE97" stroke="#67BE97" stroke-width="2.84" stroke-miterlimit="10"/>
<path d="M366.179 1.36914C375.909 1.36914 385.24 5.23142 392.12 12.1063C399 18.9812 402.865 28.3056 402.865 38.0282V74.6873H329.494V38.0282C329.494 28.3056 333.359 18.9812 340.239 12.1063C347.119 5.23142 356.45 1.36914 366.179 1.36914V1.36914Z" fill="#75D3A9" stroke="#67BE97" stroke-width="3" stroke-miterlimit="10"/>
<path d="M313.563 63.7244H305.734V77.0151H313.563V63.7244Z" fill="#67BE97" stroke="#67BE97" stroke-width="2.84" stroke-miterlimit="10"/>
<path d="M281.106 63.7244H273.277V77.0151H281.106V63.7244Z" fill="#67BE97" stroke="#67BE97" stroke-width="2.84" stroke-miterlimit="10"/>
<path d="M419.737 63.7244H411.909V77.0151H419.737V63.7244Z" fill="#67BE97" stroke="#67BE97" stroke-width="2.84" stroke-miterlimit="10"/>
<path d="M417.006 63.7244V76.513H318.66V63.7244H310.831V76.513V77.0151V118.348H424.835V77.0151V76.513V63.7244H417.006Z" fill="#75D3A9" stroke="#67BE97" stroke-width="3" stroke-miterlimit="10"/>
<path d="M273.287 118.348H310.831V76.5129H273.287V118.348Z" fill="#67BE97" stroke="#67BE97" stroke-width="2.84" stroke-miterlimit="10"/>
<path d="M356.04 87.9507H380.019V106.919" stroke="#67BE97" stroke-width="2.62" stroke-miterlimit="10"/>
<path d="M378.886 91.675H356.04V106.91H378.886V91.675Z" fill="#80E4B8"/>
<path d="M387.838 87.9507H411.818V106.919" stroke="#67BE97" stroke-width="2.62" stroke-miterlimit="10"/>
<path d="M410.685 91.675H387.838V106.91H410.685V91.675Z" fill="#80E4B8"/>
<path d="M322.926 87.9507H346.905V106.919" stroke="#67BE97" stroke-width="2.62" stroke-miterlimit="10"/>
<path d="M345.772 91.675H322.926V106.91H345.772V91.675Z" fill="#80E4B8"/>
<path d="M285.683 63.7244H277.854V76.513H285.683V63.7244Z" fill="#75D3A9" stroke="#67BE97" stroke-width="3" stroke-miterlimit="10"/>
<path d="M388.243 38.7184C390.053 27.5715 382.478 17.0685 371.323 15.2591C360.168 13.4497 349.658 21.0192 347.847 32.166C346.036 43.3128 353.611 53.8159 364.766 55.6253C375.921 57.4347 386.432 49.8652 388.243 38.7184Z" fill="#80E4B8"/>
<path d="M347.562 35.4358C347.562 31.3917 348.763 27.4385 351.011 24.0759C353.259 20.7134 356.455 18.0926 360.194 16.545C363.933 14.9974 368.047 14.5925 372.017 15.3814C375.986 16.1704 379.632 18.1178 382.494 20.9774C385.355 23.837 387.304 27.4804 388.094 31.4468C388.883 35.4131 388.478 39.5244 386.929 43.2607C385.381 46.9969 382.758 50.1903 379.393 52.4371C376.028 54.6839 372.072 55.8831 368.025 55.8831" stroke="#67BE97" stroke-width="3" stroke-miterlimit="10"/>
<path d="M250.806 96.9238H79.4346V356.714H250.806V96.9238Z" fill="#67BE97" stroke="#67BE97" stroke-width="3" stroke-miterlimit="10"/>
<path d="M250.806 96.9238H148.677V356.714H250.806V96.9238Z" fill="#80E4B8" stroke="#67BE97" stroke-miterlimit="10"/>
<path d="M164.024 153.61H243.041" stroke="#67BE97" stroke-width="3" stroke-miterlimit="10"/>
<path d="M180.01 122.574H164.024V148.681H180.01V122.574Z" fill="#75D3A9"/>
<path d="M180.01 173.327H164.024V199.434H180.01V173.327Z" fill="#75D3A9"/>
<path d="M180.01 224.08H164.024V250.187H180.01V224.08Z" fill="#75D3A9"/>
<path d="M200.563 122.574H184.577V148.681H200.563V122.574Z" fill="#75D3A9"/>
<path d="M200.563 173.327H184.577V199.434H200.563V173.327Z" fill="#75D3A9"/>
<path d="M200.563 224.08H184.577V250.187H200.563V224.08Z" fill="#75D3A9"/>
<path d="M221.117 122.574H205.131V148.681H221.117V122.574Z" fill="#75D3A9"/>
<path d="M221.117 173.327H205.131V199.434H221.117V173.327Z" fill="#75D3A9"/>
<path d="M221.117 224.08H205.131V250.187H221.117V224.08Z" fill="#75D3A9"/>
<path d="M241.671 122.574H225.685V148.681H241.671V122.574Z" fill="#75D3A9"/>
<path d="M241.671 173.327H225.685V199.434H241.671V173.327Z" fill="#75D3A9"/>
<path d="M164.024 256.394H243.041" stroke="#67BE97" stroke-width="3" stroke-miterlimit="10"/>
<path d="M164.024 204.546H243.041" stroke="#67BE97" stroke-width="3" stroke-miterlimit="10"/>
<path d="M241.671 224.08H225.685V250.187H241.671V224.08Z" fill="#75D3A9"/>
<path d="M225.685 118.375H241.671V148.681" stroke="#67BE97" stroke-width="3" stroke-miterlimit="10"/>
<path d="M205.131 118.375H221.117V148.681" stroke="#67BE97" stroke-width="3" stroke-miterlimit="10"/>
<path d="M184.577 118.375H200.563V148.681" stroke="#67BE97" stroke-width="3" stroke-miterlimit="10"/>
<path d="M164.024 118.375H180.01V148.681" stroke="#67BE97" stroke-width="3" stroke-miterlimit="10"/>
<path d="M225.685 169.128H241.671V199.434" stroke="#67BE97" stroke-width="3" stroke-miterlimit="10"/>
<path d="M205.131 169.128H221.117V199.434" stroke="#67BE97" stroke-width="3" stroke-miterlimit="10"/>
<path d="M184.577 169.128H200.563V199.434" stroke="#67BE97" stroke-width="3" stroke-miterlimit="10"/>
<path d="M164.024 169.128H180.01V199.434" stroke="#67BE97" stroke-width="3" stroke-miterlimit="10"/>
<path d="M225.685 219.79H241.671V250.096" stroke="#67BE97" stroke-width="3" stroke-miterlimit="10"/>
<path d="M205.131 219.79H221.117V250.096" stroke="#67BE97" stroke-width="3" stroke-miterlimit="10"/>
<path d="M184.577 219.79H200.563V250.096" stroke="#67BE97" stroke-width="3" stroke-miterlimit="10"/>
<path d="M164.024 219.79H180.01V250.096" stroke="#67BE97" stroke-width="3" stroke-miterlimit="10"/>
<path d="M79.4341 142.748H10.1001V356.805H79.4341V142.748Z" fill="#67BE97" stroke="#67BE97" stroke-width="3" stroke-miterlimit="10"/>
<path d="M124.469 142.748H55.1353V356.805H124.469V142.748Z" fill="#75D3A9" stroke="#67BE97" stroke-width="3" stroke-miterlimit="10"/>
<path d="M78.3382 151.876H64.3618V175.975H78.3382V151.876Z" fill="#75D3A9" stroke="#67BE97" stroke-width="3" stroke-miterlimit="10"/>
<path d="M96.8822 151.876H82.9058V175.975H96.8822V151.876Z" fill="#75D3A9" stroke="#67BE97" stroke-width="3" stroke-miterlimit="10"/>
<path d="M115.426 151.876H101.45V175.975H115.426V151.876Z" fill="#75D3A9" stroke="#67BE97" stroke-width="3" stroke-miterlimit="10"/>
<path d="M78.3382 180.447H64.3618V204.546H78.3382V180.447Z" fill="#75D3A9" stroke="#67BE97" stroke-width="3" stroke-miterlimit="10"/>
<path d="M96.8822 180.447H82.9058V204.546H96.8822V180.447Z" fill="#75D3A9" stroke="#67BE97" stroke-width="3" stroke-miterlimit="10"/>
<path d="M115.426 180.447H101.45V204.546H115.426V180.447Z" fill="#75D3A9" stroke="#67BE97" stroke-width="3" stroke-miterlimit="10"/>
<path d="M78.3382 209.11H64.3618V233.209H78.3382V209.11Z" fill="#75D3A9" stroke="#67BE97" stroke-width="3" stroke-miterlimit="10"/>
<path d="M96.8822 209.11H82.9058V233.209H96.8822V209.11Z" fill="#75D3A9" stroke="#67BE97" stroke-width="3" stroke-miterlimit="10"/>
<path d="M115.426 209.11H101.45V233.209H115.426V209.11Z" fill="#75D3A9" stroke="#67BE97" stroke-width="3" stroke-miterlimit="10"/>
<path d="M78.3382 237.773H64.3618V261.871H78.3382V237.773Z" fill="#75D3A9" stroke="#67BE97" stroke-width="3" stroke-miterlimit="10"/>
<path d="M96.8822 237.773H82.9058V261.871H96.8822V237.773Z" fill="#75D3A9" stroke="#67BE97" stroke-width="3" stroke-miterlimit="10"/>
<path d="M115.426 237.773H101.45V261.871H115.426V237.773Z" fill="#75D3A9" stroke="#67BE97" stroke-width="3" stroke-miterlimit="10"/>
<path d="M78.3382 266.344H64.3618V290.443H78.3382V266.344Z" fill="#75D3A9" stroke="#67BE97" stroke-width="3" stroke-miterlimit="10"/>
<path d="M96.8822 266.344H82.9058V290.443H96.8822V266.344Z" fill="#75D3A9" stroke="#67BE97" stroke-width="3" stroke-miterlimit="10"/>
<path d="M115.426 266.344H101.45V290.443H115.426V266.344Z" fill="#75D3A9" stroke="#67BE97" stroke-width="3" stroke-miterlimit="10"/>
<path d="M78.3382 295.007H64.3618V319.105H78.3382V295.007Z" fill="#75D3A9" stroke="#67BE97" stroke-width="3" stroke-miterlimit="10"/>
<path d="M96.8822 295.007H82.9058V319.105H96.8822V295.007Z" fill="#75D3A9" stroke="#67BE97" stroke-width="3" stroke-miterlimit="10"/>
<path d="M115.426 295.007H101.45V319.105H115.426V295.007Z" fill="#75D3A9" stroke="#67BE97" stroke-width="3" stroke-miterlimit="10"/>
<path d="M96.8822 326.317H82.9058V356.805H96.8822V326.317Z" fill="#75D3A9" stroke="#67BE97" stroke-width="3" stroke-miterlimit="10"/>
<path d="M78.3382 155.527H64.3618V175.974H78.3382V155.527Z" fill="#67BE97"/>
<path d="M96.8822 155.527H82.9058V175.974H96.8822V155.527Z" fill="#67BE97"/>
<path d="M115.426 155.527H101.45V175.974H115.426V155.527Z" fill="#67BE97"/>
<path d="M78.3382 185.011H64.3618V204.546H78.3382V185.011Z" fill="#67BE97"/>
<path d="M96.8822 185.011H82.9058V204.546H96.8822V185.011Z" fill="#67BE97"/>
<path d="M115.426 185.011H101.45V204.546H115.426V185.011Z" fill="#67BE97"/>
<path d="M78.3382 213.674H64.3618V233.209H78.3382V213.674Z" fill="#67BE97"/>
<path d="M96.8822 213.674H82.9058V233.209H96.8822V213.674Z" fill="#67BE97"/>
<path d="M115.426 213.674H101.45V233.209H115.426V213.674Z" fill="#67BE97"/>
<path d="M78.3382 242.337H64.3618V261.871H78.3382V242.337Z" fill="#67BE97"/>
<path d="M96.8822 242.337H82.9058V261.871H96.8822V242.337Z" fill="#67BE97"/>
<path d="M115.426 242.337H101.45V261.871H115.426V242.337Z" fill="#67BE97"/>
<path d="M78.3382 270.908H64.3618V290.443H78.3382V270.908Z" fill="#67BE97"/>
<path d="M96.8822 270.908H82.9058V290.443H96.8822V270.908Z" fill="#67BE97"/>
<path d="M115.426 270.908H101.45V290.443H115.426V270.908Z" fill="#67BE97"/>
<path d="M78.3382 299.571H64.3618V319.105H78.3382V299.571Z" fill="#67BE97"/>
<path d="M96.8822 299.571H82.9058V319.105H96.8822V299.571Z" fill="#67BE97"/>
<path d="M115.426 299.571H101.45V319.105H115.426V299.571Z" fill="#67BE97"/>
<path d="M11.3792 222.163H-32.1943V356.805H11.3792V222.163Z" fill="#67BE97" stroke="#67BE97" stroke-width="3" stroke-miterlimit="10"/>
<path d="M39.6976 222.163H-3.87598V356.805H39.6976V222.163Z" fill="#75D3A9" stroke="#67BE97" stroke-width="3" stroke-miterlimit="10"/>
<path d="M-0.496094 236.951H10.5572V253.291" stroke="#67BE97" stroke-width="2" stroke-miterlimit="10"/>
<path d="M9.0039 241.515H1.33057V251.739H9.0039V241.515Z" fill="#67BE97" stroke="#67BE97" stroke-width="3" stroke-miterlimit="10"/>
<path d="M-0.496094 293.364H10.5572V309.703" stroke="#67BE97" stroke-width="2" stroke-miterlimit="10"/>
<path d="M9.0039 297.928H1.33057V308.152H9.0039V297.928Z" fill="#67BE97" stroke="#67BE97" stroke-width="3" stroke-miterlimit="10"/>
<path d="M20.3315 236.951H31.2934V253.291" stroke="#67BE97" stroke-width="2" stroke-miterlimit="10"/>
<path d="M29.7402 241.515H22.0669V251.739H29.7402V241.515Z" fill="#67BE97" stroke="#67BE97" stroke-width="3" stroke-miterlimit="10"/>
<path d="M20.3315 293.09H31.2934V309.429" stroke="#67BE97" stroke-width="2" stroke-miterlimit="10"/>
<path d="M29.7402 297.654H22.0669V307.878H29.7402V297.654Z" fill="#67BE97" stroke="#67BE97" stroke-width="3" stroke-miterlimit="10"/>
<path d="M20.3315 265.066H31.2934V281.406" stroke="#67BE97" stroke-width="2" stroke-miterlimit="10"/>
<path d="M29.7402 269.63H22.0669V279.854H29.7402V269.63Z" fill="#67BE97" stroke="#67BE97" stroke-width="3" stroke-miterlimit="10"/>
<path d="M20.3315 317.006H31.2934V333.345" stroke="#67BE97" stroke-width="2" stroke-miterlimit="10"/>
<path d="M29.7402 321.57H22.0669V331.794H29.7402V321.57Z" fill="#67BE97" stroke="#67BE97" stroke-width="3" stroke-miterlimit="10"/>
<path d="M1.33057 356.805V337.088H16.1291" stroke="#67BE97" stroke-width="3" stroke-miterlimit="10"/>
<path d="M14.668 356.805V341.287" stroke="#67BE97" stroke-width="3" stroke-miterlimit="10"/>
<path d="M56.6882 178.257H39.6973" stroke="#75D3A9" stroke-width="3" stroke-miterlimit="10"/>
<path d="M20.3314 207.284H9.64355" stroke="#75D3A9" stroke-width="3" stroke-miterlimit="10"/>
<path d="M56.6883 235.399H38.4185" stroke="#75D3A9" stroke-width="3" stroke-miterlimit="10"/>
<path d="M56.6881 265.066H47.5532" stroke="#75D3A9" stroke-width="3" stroke-miterlimit="10"/>
<path d="M224.68 276.933H181.106V356.805H224.68V276.933Z" fill="#67BE97" stroke="#67BE97" stroke-width="3" stroke-miterlimit="10"/>
<path d="M289.629 276.933H209.516V356.805H289.629V276.933Z" fill="#75D3A9" stroke="#67BE97" stroke-width="3" stroke-miterlimit="10"/>
<path d="M212.896 293.364H223.949V309.703" stroke="#67BE97" stroke-width="2" stroke-miterlimit="10"/>
<path d="M222.305 297.928H214.631V308.152H222.305V297.928Z" fill="#67BE97" stroke="#67BE97" stroke-width="3" stroke-miterlimit="10"/>
<path d="M233.632 293.09H244.685V309.429" stroke="#67BE97" stroke-width="2" stroke-miterlimit="10"/>
<path d="M243.041 297.654H235.404V307.878H243.077L243.041 297.654Z" fill="#67BE97" stroke="#67BE97" stroke-width="3" stroke-miterlimit="10"/>
<path d="M250.806 293.364H261.859V309.703" stroke="#67BE97" stroke-width="2" stroke-miterlimit="10"/>
<path d="M260.214 297.928H252.541V308.152H260.214V297.928Z" fill="#67BE97" stroke="#67BE97" stroke-width="3" stroke-miterlimit="10"/>
<path d="M271.542 293.09H282.595V309.429" stroke="#67BE97" stroke-width="2" stroke-miterlimit="10"/>
<path d="M280.951 297.654H273.277V307.878H280.951V297.654Z" fill="#67BE97" stroke="#67BE97" stroke-width="3" stroke-miterlimit="10"/>
<path d="M235.094 326.317H221.117V356.805H235.094V326.317Z" stroke="#67BE97" stroke-width="3" stroke-miterlimit="10"/>
<path d="M82.9058 96.9237L100.006 66.4536H229.695L246.631 96.9237H82.9058Z" fill="#67BE97" stroke="#67BE97" stroke-width="2.84" stroke-miterlimit="10"/>
<path d="M154.852 66.4536L142.136 96.9237H246.631L229.694 66.4536H154.852Z" fill="#80E4B8" stroke="#67BE97" stroke-miterlimit="10"/>
<path d="M201.139 77.9553H225.118V96.9238" stroke="#67BE97" stroke-width="2.62" stroke-miterlimit="10"/>
<path d="M223.985 81.6887H201.139V96.9238H223.985V81.6887Z" fill="#75D3A9"/>
<path d="M168.025 77.9553H192.004V96.9238" stroke="#67BE97" stroke-width="2.62" stroke-miterlimit="10"/>
<path d="M190.871 81.6887H168.025V96.9238H190.871V81.6887Z" fill="#75D3A9"/>
<path d="M147.307 98.293H74.876V103.414H147.307V98.293Z" fill="#67BE97"/>
<path d="M145.937 99.6623V102.045H76.2463V99.6623H145.937ZM148.677 96.9238H73.5059V104.783H148.677V96.9238Z" fill="#67BE97"/>
<path d="M148.686 104.783L253.272 104.783V96.9238L148.686 96.9238V104.783Z" fill="#80E4B8" stroke="#67BE97" stroke-miterlimit="10"/>
<path d="M56.6882 142.748L44.4291 118.01H23.8938L10.1001 142.748H56.6882Z" fill="#67BE97"/>
<path d="M44.4292 118.01H110.968L124.469 142.748H56.6883L44.4292 118.01Z" fill="#80E4B8" stroke="#67BE97" stroke-miterlimit="10"/>
<path d="M96.7909 126.152H82.8145V142.036H96.7909V126.152Z" fill="#75D3A9" stroke="#67BE97" stroke-width="3" stroke-miterlimit="10"/>
<path d="M96.7909 129.804H82.8145V142.036H96.7909V129.804Z" fill="#67BE97"/>
<path d="M414.138 331.52C410.473 331.528 406.845 332.241 403.45 333.619C400.042 335.007 396.962 337.09 394.406 339.735C391.838 342.354 389.764 345.416 388.286 348.772C386.907 352.165 386.193 355.791 386.185 359.452H461.037C461.021 356.652 460.332 353.897 459.027 351.419C457.727 348.935 455.808 346.829 453.455 345.303C451.099 343.764 448.402 342.823 445.599 342.565C442.794 342.302 439.969 342.741 437.377 343.843C434.812 340.05 431.356 336.944 427.311 334.796C423.266 332.647 418.755 331.523 414.174 331.52H414.138Z" fill="#009194"/>
<path d="M237.286 276.933H193.712V356.805H237.286V276.933Z" fill="#67BE97" stroke="#67BE97" stroke-width="3" stroke-miterlimit="10"/>
<path d="M302.235 276.933H222.122V356.805H302.235V276.933Z" fill="#75D3A9" stroke="#67BE97" stroke-width="3" stroke-miterlimit="10"/>
<path d="M225.502 293.364H236.555V309.703" stroke="#67BE97" stroke-width="2" stroke-miterlimit="10"/>
<path d="M234.911 297.928H227.237V308.152H234.911V297.928Z" fill="#67BE97" stroke="#67BE97" stroke-width="3" stroke-miterlimit="10"/>
<path d="M246.238 293.09H257.291V309.429" stroke="#67BE97" stroke-width="2" stroke-miterlimit="10"/>
<path d="M255.647 297.654H247.974V307.878H255.647V297.654Z" fill="#67BE97" stroke="#67BE97" stroke-width="3" stroke-miterlimit="10"/>
<path d="M263.412 293.364H274.465V309.703" stroke="#67BE97" stroke-width="2" stroke-miterlimit="10"/>
<path d="M272.857 297.928H265.184V308.152H272.857V297.928Z" fill="#67BE97" stroke="#67BE97" stroke-width="3" stroke-miterlimit="10"/>
<path d="M284.148 293.09H295.201V309.429" stroke="#67BE97" stroke-width="2" stroke-miterlimit="10"/>
<path d="M293.557 297.654H285.884V307.878H293.557V297.654Z" fill="#67BE97" stroke="#67BE97" stroke-width="3" stroke-miterlimit="10"/>
<path d="M247.7 326.317H233.723V356.805H247.7V326.317Z" stroke="#67BE97" stroke-width="3" stroke-miterlimit="10"/>
<path d="M48.5581 344.391C46.1689 344.206 43.7655 344.39 41.4328 344.938C40.6727 341.341 38.7848 338.079 36.0432 335.627C33.3109 333.174 29.8408 331.697 26.1775 331.428H25.6294C24.8711 326.565 22.6023 322.062 19.1436 318.558C15.6728 315.068 11.2047 312.74 6.35473 311.894C1.50193 311.069 -3.48762 311.804 -7.89574 313.994C-12.2904 316.197 -15.8958 319.704 -18.2182 324.035C-23.1455 322.575 -28.3623 322.387 -33.3822 323.487C-38.3429 324.595 -42.8974 327.06 -46.5365 330.607C-50.3284 334.08 -53.136 338.492 -54.6757 343.396C-56.2155 348.301 -56.4329 353.524 -55.306 358.539H67.102C65.6279 354.715 63.1317 351.368 59.8854 348.863C56.6183 346.316 52.6856 344.763 48.5581 344.391Z" fill="#009194"/>
<path d="M173.067 197.17H183.481V236.878L173.067 226.472V197.17Z" fill="#31273E"/>
<path d="M183.481 236.86H200.563V197.17H183.481V236.86Z" fill="white"/>
<path d="M174.803 358.448H84.3672V268.17L131.321 221.342L174.803 264.701V358.448Z" fill="#FDD740"/>
<path d="M93.8677 358.448H42.2554V305.413L67.8331 279.489L93.7763 305.413V358.448H93.8677Z" fill="#FDD740" stroke="#31273E" stroke-width="1.01"/>
<path d="M155.437 358.448H94.8726V305.687H155.437V358.448Z" fill="#FFFEFA"/>
<path d="M148.494 318.832H101.724V319.471L146.485 320.84V358.813H148.494" fill="#413653"/>
<path d="M103.368 334.715H102.363L101.45 358.905H103.459" fill="#413653"/>
<path d="M131.266 220.703L134.829 224.263L86.1394 272.825H79.0142L131.266 220.703Z" fill="#2B251F"/>
<path d="M318.861 359.452H175.716V264.975H318.861V359.452Z" fill="#FFFEFA"/>
<path d="M131.266 215.774H275.689L327.758 267.987H183.664L131.266 215.774Z" fill="#31273E"/>
<path d="M326.899 268.444L324.159 277.024H183.846L175.625 268.809L131.595 224.993L131.229 224.628L130.864 224.993L79.3428 276.385L79.2515 268.17L131.138 216.504L183.335 268.371L183.517 268.553H326.936L326.899 268.444Z" fill="white" stroke="#31273E" stroke-width="1.01"/>
<path d="M273.095 328.617H299.769V307.896C299.775 306.144 299.434 304.408 298.766 302.789C298.098 301.169 297.116 299.697 295.876 298.459C294.636 297.22 293.164 296.238 291.543 295.571C289.922 294.903 288.185 294.563 286.432 294.569V294.569C284.679 294.563 282.942 294.903 281.321 295.571C279.7 296.238 278.227 297.22 276.988 298.459C275.748 299.697 274.766 301.169 274.098 302.789C273.43 304.408 273.089 306.144 273.095 307.896V328.617Z" fill="#FDD740"/>
<path d="M300.317 328.617V311.273C300.225 308.809 300.591 305.157 300.043 302.784C299.471 300.104 298.129 297.649 296.182 295.72C294.235 293.79 291.767 292.47 289.081 291.921C280.494 290.096 272.09 296.942 271.907 305.705H271.359C270.993 294.204 283.6 286.536 293.648 291.921C296.346 293.364 298.572 295.55 300.062 298.22C301.552 300.89 302.242 303.932 302.052 306.983V311.273C302.144 317.024 302.052 322.866 302.052 328.617H300.317Z" fill="#31273E"/>
<path d="M222.213 328.617V311.273C222.122 308.809 222.487 305.157 221.939 302.784C221.367 300.104 220.026 297.649 218.079 295.72C216.132 293.79 213.664 292.47 210.977 291.921C202.39 290.096 193.986 296.942 193.803 305.705H193.255C192.89 294.204 205.496 286.536 215.545 291.921C218.242 293.364 220.468 295.55 221.958 298.22C223.448 300.89 224.139 303.932 223.949 306.983V311.273C224.04 317.024 223.949 322.866 223.949 328.617H222.213Z" fill="#31273E"/>
<path d="M271.268 330.698H303.605V326.499H271.268V330.698Z" fill="#FDD740"/>
<path d="M271.633 326.499H268.527V330.698H271.633V326.499Z" fill="#FDD740"/>
<path d="M273.095 322.665C272.684 322.833 272.311 323.081 271.998 323.396C271.693 323.716 271.446 324.086 271.268 324.491C271.09 324.894 270.997 325.329 270.994 325.769C270.994 326.043 271.085 326.317 271.085 326.499H301.596C301.794 325.654 301.762 324.772 301.504 323.943C301.247 323.132 300.773 322.406 300.134 321.844C299.512 321.275 298.759 320.867 297.942 320.657C297.096 320.459 296.213 320.491 295.384 320.749V320.749C294.998 320.028 294.389 319.451 293.648 319.105C292.922 318.735 292.096 318.605 291.29 318.737C290.485 318.868 289.743 319.253 289.172 319.836C288.63 320.463 288.253 321.216 288.076 322.026H287.985C287.37 322.078 286.791 322.335 286.34 322.757C285.881 323.166 285.562 323.709 285.427 324.309C285.042 324.192 284.637 324.16 284.239 324.217C283.506 324.297 282.809 324.582 282.23 325.039C282.167 324.605 281.938 324.212 281.59 323.943C281.276 323.673 280.899 323.484 280.494 323.396H280.585C280.496 322.846 280.241 322.336 279.855 321.935C279.458 321.524 278.95 321.238 278.393 321.114C277.83 321.009 277.248 321.106 276.749 321.388C276.228 321.635 275.808 322.054 275.561 322.574V322.574C275.238 322.461 274.899 322.4 274.556 322.392C274.057 322.394 273.561 322.487 273.095 322.665V322.665Z" fill="#3F3350"/>
<path d="M131.595 272.825L165.577 306.508H100.354L66.2803 272.825H131.595Z" fill="#31273E"/>
<path d="M131.595 272.825L165.577 306.508H100.354L66.2803 272.825H131.595Z" fill="url(#paint0_linear_42_828)"/>
<path d="M66.1888 278.85L92.5887 305.231L97.6129 310.251H160.918L165.577 306.691H100.353L66.2802 273.008L34.6733 304.226L34.7647 310.16L66.1888 278.85Z" fill="white" stroke="#31273E" stroke-width="1.01"/>
<path d="M66.1888 278.85L69.7514 282.41L41.7986 310.251H34.6733L66.1888 278.85Z" fill="#15111B"/>
<path d="M194.991 328.617H221.702V307.896C221.708 306.144 221.367 304.408 220.699 302.789C220.031 301.169 219.049 299.697 217.809 298.459C216.569 297.22 215.097 296.238 213.476 295.571C211.855 294.903 210.118 294.563 208.365 294.569V294.569C206.612 294.563 204.875 294.903 203.254 295.571C201.633 296.238 200.16 297.22 198.921 298.459C197.681 299.697 196.699 301.169 196.031 302.789C195.363 304.408 195.022 306.144 195.028 307.896L194.991 328.617Z" fill="#FDD740"/>
<path d="M193.164 330.698H225.502V326.499H193.164V330.698Z" fill="#FDD740"/>
<path d="M193.53 326.499H190.424V330.698H193.53V326.499Z" fill="#FDD740"/>
<path d="M228.607 359.452V296.011V295.098H229.521L264.782 295.646V296.467L229.521 297.015L230.434 296.011V359.452H228.607Z" fill="#31273E"/>
<path d="M133.239 262.51C138.083 262.51 142.009 257.892 142.009 252.195C142.009 246.499 138.083 241.88 133.239 241.88C128.396 241.88 124.47 246.499 124.47 252.195C124.47 257.892 128.396 262.51 133.239 262.51Z" fill="#FFFEFA"/>
<path d="M124.013 252.195C123.739 246.262 128.854 239.872 135.249 241.424C141.369 242.976 144.11 250.461 142.191 256.12C141.004 260.046 137.533 263.423 133.239 263.423V261.597C136.711 261.689 139.634 258.859 140.639 255.573C142.374 250.735 140.182 244.071 134.884 242.611C131.412 241.606 127.758 243.797 126.114 246.901C125.233 248.491 124.791 250.287 124.835 252.104H124.013V252.195Z" fill="#31273E"/>
<path d="M264.051 359.452L264.325 318.74H265.239L265.604 359.452H264.051Z" fill="#31273E"/>
<path d="M183.481 203.542H191.976" stroke="#31273E" stroke-width="2.02" stroke-miterlimit="10"/>
<path d="M192.068 210.205H200.563" stroke="#31273E" stroke-width="2.02" stroke-miterlimit="10"/>
<path d="M193.804 324.126C194.232 324.107 194.661 324.138 195.083 324.217C195.195 323.536 195.553 322.92 196.087 322.483C196.328 322.246 196.614 322.06 196.928 321.934C197.241 321.809 197.577 321.747 197.914 321.753H198.006C198.158 320.861 198.571 320.035 199.193 319.379C199.824 318.721 200.663 318.302 201.568 318.193C202.438 318.03 203.337 318.158 204.126 318.558C204.949 318.939 205.624 319.58 206.045 320.383V320.383C206.543 320.204 207.068 320.112 207.597 320.109C208.392 320.106 209.175 320.294 209.881 320.657C210.601 320.986 211.229 321.488 211.708 322.118C212.169 322.75 212.51 323.462 212.713 324.217C212.896 324.998 212.896 325.81 212.713 326.591H190.424C190.69 325.885 191.169 325.279 191.794 324.856C192.36 324.389 193.07 324.131 193.804 324.126V324.126Z" fill="#3F3350"/>
<path d="M216.275 321.114C215.552 321.124 214.837 321.279 214.174 321.57C213.513 321.879 212.898 322.278 212.347 322.757C211.819 323.268 211.413 323.892 211.16 324.582C210.869 325.245 210.713 325.959 210.703 326.682H225.593C225.559 326.118 225.436 325.564 225.228 325.039C224.962 324.561 224.587 324.154 224.131 323.852C223.652 323.576 223.126 323.39 222.579 323.304C222.015 323.216 221.438 323.312 220.934 323.578C220.403 322.833 219.718 322.21 218.925 321.753C218.107 321.327 217.197 321.108 216.275 321.114V321.114Z" fill="#3F3350"/>
<path d="M259.392 330.698C260.552 330.698 261.493 329.758 261.493 328.599C261.493 327.439 260.552 326.499 259.392 326.499C258.232 326.499 257.291 327.439 257.291 328.599C257.291 329.758 258.232 330.698 259.392 330.698Z" fill="#3F3350"/>
<path d="M192.342 281.68C192.342 282.454 192.034 283.197 191.486 283.745C190.938 284.293 190.194 284.601 189.419 284.601C188.644 284.601 187.9 284.293 187.352 283.745C186.804 283.197 186.496 282.454 186.496 281.68H192.342Z" fill="#FEECB4"/>
<path d="M202.208 281.68C202.203 282.453 201.894 283.193 201.346 283.74C200.799 284.287 200.059 284.596 199.285 284.601C198.899 284.606 198.517 284.533 198.16 284.388C197.803 284.243 197.479 284.028 197.207 283.756C196.934 283.484 196.719 283.16 196.574 282.803C196.429 282.447 196.357 282.065 196.362 281.68H202.208Z" fill="#FEECB4"/>
<path d="M211.982 281.68C211.982 282.454 211.674 283.197 211.126 283.745C210.578 284.293 209.834 284.601 209.059 284.601C208.284 284.601 207.54 284.293 206.992 283.745C206.444 283.197 206.136 282.454 206.136 281.68H211.982Z" fill="#FEECB4"/>
<path d="M221.848 281.68C221.848 282.454 221.54 283.197 220.992 283.745C220.443 284.293 219.7 284.601 218.925 284.601C218.149 284.601 217.406 284.293 216.858 283.745C216.309 283.197 216.001 282.454 216.001 281.68H221.848Z" fill="#FEECB4"/>
<path d="M231.75 281.68C231.75 282.454 231.442 283.197 230.894 283.745C230.346 284.293 229.602 284.601 228.827 284.601C228.052 284.601 227.308 284.293 226.76 283.745C226.212 283.197 225.904 282.454 225.904 281.68H231.75Z" fill="#FEECB4"/>
<path d="M241.488 281.68C241.483 282.453 241.173 283.193 240.626 283.74C240.079 284.287 239.338 284.596 238.565 284.601C238.179 284.606 237.797 284.533 237.44 284.388C237.083 284.243 236.759 284.028 236.487 283.756C236.214 283.484 235.999 283.16 235.854 282.803C235.709 282.447 235.636 282.065 235.641 281.68H241.488Z" fill="#FEECB4"/>
<path d="M251.354 281.68C251.354 282.454 251.046 283.197 250.497 283.745C249.949 284.293 249.206 284.601 248.431 284.601C247.655 284.601 246.912 284.293 246.363 283.745C245.815 283.197 245.507 282.454 245.507 281.68H251.354Z" fill="#FEECB4"/>
<path d="M261.128 281.68C261.128 282.454 260.82 283.197 260.272 283.745C259.724 284.293 258.98 284.601 258.205 284.601C257.43 284.601 256.686 284.293 256.138 283.745C255.59 283.197 255.282 282.454 255.282 281.68H261.128Z" fill="#FEECB4"/>
<path d="M271.03 281.68C271.03 282.454 270.722 283.197 270.174 283.745C269.626 284.293 268.882 284.601 268.107 284.601C267.331 284.601 266.588 284.293 266.04 283.745C265.492 283.197 265.184 282.454 265.184 281.68H271.03Z" fill="#FEECB4"/>
<path d="M280.859 281.68C280.855 282.453 280.545 283.193 279.998 283.74C279.451 284.287 278.71 284.596 277.936 284.601C277.551 284.606 277.169 284.533 276.812 284.388C276.455 284.243 276.131 284.028 275.858 283.756C275.586 283.484 275.371 283.16 275.225 282.803C275.08 282.447 275.008 282.065 275.013 281.68H280.859Z" fill="#FEECB4"/>
<path d="M290.633 281.68C290.633 282.454 290.325 283.197 289.777 283.745C289.229 284.293 288.486 284.601 287.71 284.601C286.935 284.601 286.191 284.293 285.643 283.745C285.095 283.197 284.787 282.454 284.787 281.68H290.633Z" fill="#FEECB4"/>
<path d="M300.499 281.68C300.499 282.454 300.191 283.197 299.643 283.745C299.095 284.293 298.351 284.601 297.576 284.601C296.801 284.601 296.057 284.293 295.509 283.745C294.961 283.197 294.653 282.454 294.653 281.68H300.499Z" fill="#FEECB4"/>
<path d="M310.31 281.68C310.31 282.454 310.002 283.197 309.454 283.745C308.906 284.293 308.162 284.601 307.387 284.601C306.612 284.601 305.868 284.293 305.32 283.745C304.772 283.197 304.464 282.454 304.464 281.68H310.31Z" fill="#FEECB4"/>
<path d="M197.549 287.978C197.549 288.753 197.241 289.496 196.693 290.044C196.145 290.591 195.401 290.899 194.626 290.899C193.851 290.899 193.107 290.591 192.559 290.044C192.011 289.496 191.703 288.753 191.703 287.978H197.549Z" fill="#FEECB4"/>
<path d="M227.055 287.978C227.055 288.753 226.747 289.496 226.199 290.044C225.65 290.591 224.907 290.899 224.132 290.899C223.356 290.899 222.613 290.591 222.065 290.044C221.516 289.496 221.208 288.753 221.208 287.978H227.055Z" fill="#FEECB4"/>
<path d="M236.921 287.978C236.921 288.753 236.613 289.496 236.064 290.044C235.516 290.591 234.773 290.899 233.997 290.899C233.222 290.899 232.479 290.591 231.93 290.044C231.382 289.496 231.074 288.753 231.074 287.978H236.921Z" fill="#FEECB4"/>
<path d="M246.695 287.978C246.695 288.753 246.387 289.496 245.839 290.044C245.291 290.591 244.547 290.899 243.772 290.899C242.997 290.899 242.253 290.591 241.705 290.044C241.157 289.496 240.849 288.753 240.849 287.978H246.695Z" fill="#FEECB4"/>
<path d="M256.56 287.978C256.556 288.751 256.246 289.491 255.699 290.038C255.152 290.585 254.411 290.894 253.637 290.899C253.252 290.904 252.87 290.832 252.513 290.687C252.156 290.542 251.832 290.327 251.559 290.054C251.287 289.782 251.072 289.458 250.927 289.102C250.781 288.745 250.709 288.363 250.714 287.978H256.56Z" fill="#FEECB4"/>
<path d="M266.335 287.978C266.335 288.753 266.027 289.496 265.478 290.044C264.93 290.591 264.187 290.899 263.411 290.899C262.636 290.899 261.893 290.591 261.344 290.044C260.796 289.496 260.488 288.753 260.488 287.978H266.335Z" fill="#FEECB4"/>
<path d="M276.2 287.978C276.2 288.753 275.892 289.496 275.344 290.044C274.796 290.591 274.052 290.899 273.277 290.899C272.502 290.899 271.758 290.591 271.21 290.044C270.662 289.496 270.354 288.753 270.354 287.978H276.2Z" fill="#FEECB4"/>
<path d="M305.743 287.978C305.743 288.753 305.435 289.496 304.887 290.044C304.338 290.591 303.595 290.899 302.82 290.899C302.044 290.899 301.301 290.591 300.753 290.044C300.204 289.496 299.896 288.753 299.896 287.978H305.743Z" fill="#FEECB4"/>
<path d="M315.481 287.978C315.481 288.753 315.173 289.496 314.624 290.044C314.076 290.591 313.333 290.899 312.557 290.899C311.782 290.899 311.039 290.591 310.49 290.044C309.942 289.496 309.634 288.753 309.634 287.978H315.481Z" fill="#FEECB4"/>
<path d="M301.23 346.581C303.433 346.415 305.649 346.569 307.807 347.038C308.449 343.763 310.144 340.786 312.634 338.562C315.124 336.338 318.272 334.987 321.601 334.715H322.149C322.839 330.263 324.917 326.142 328.087 322.939C331.226 319.714 335.33 317.599 339.78 316.915C344.235 316.167 348.812 316.841 352.862 318.84C356.912 320.839 360.229 324.062 362.343 328.051V328.051C364.894 327.294 367.538 326.894 370.199 326.864C374.215 326.872 378.179 327.776 381.8 329.512C385.429 331.235 388.616 333.764 391.118 336.905C393.604 340.048 395.381 343.692 396.325 347.586C397.223 351.487 397.254 355.538 396.416 359.452H284.057C285.395 355.929 287.708 352.858 290.725 350.598C293.802 348.341 297.431 346.953 301.23 346.581V346.581Z" fill="#00AAAC"/>
<path d="M354.085 304.582H353.719C353.537 304.582 353.537 304.4 353.354 304.4C353.253 304.299 353.189 304.167 353.171 304.026V303.66L353.537 293.181C353.562 292.962 353.543 292.739 353.48 292.528C353.418 292.316 353.312 292.119 353.171 291.949C352.96 291.594 352.661 291.299 352.304 291.091L347.215 287.786C346.837 287.579 346.421 287.452 345.991 287.412C345.559 287.452 345.139 287.579 344.758 287.786L339.67 290.908C339.313 291.114 339.017 291.41 338.811 291.766C338.582 292.137 338.456 292.563 338.446 292.999L338.994 312.551C339.007 312.65 338.997 312.751 338.965 312.846C338.933 312.941 338.881 313.027 338.811 313.099C338.811 313.282 338.629 313.282 338.446 313.473C338.263 313.473 338.071 313.656 337.889 313.473C337.749 313.452 337.62 313.385 337.523 313.282L328.26 304.701C328.166 304.597 328.035 304.532 327.895 304.518H327.338C327.243 304.525 327.154 304.565 327.087 304.633C327.019 304.7 326.979 304.789 326.972 304.884C326.904 304.958 326.852 305.046 326.82 305.142C326.789 305.238 326.778 305.34 326.79 305.44V315.372C326.776 315.471 326.786 315.572 326.818 315.667C326.849 315.762 326.903 315.848 326.974 315.918C327.044 315.989 327.131 316.043 327.226 316.074C327.32 316.106 327.421 316.116 327.521 316.102H338.875L340.099 360H351.143L352.185 327.321V326.956C352.185 326.773 352.002 326.773 352.002 326.591L342.063 317.335C341.881 317.152 341.881 317.152 341.881 316.96V316.413C341.887 316.318 341.928 316.229 341.995 316.162C342.062 316.094 342.151 316.054 342.246 316.047C342.319 315.977 342.407 315.924 342.504 315.893C342.6 315.861 342.703 315.852 342.803 315.865H388.807C389.131 315.858 389.44 315.723 389.665 315.491C389.89 315.259 390.023 314.954 390.04 314.633V305.377C390.037 305.216 390.003 305.057 389.939 304.91C389.874 304.763 389.782 304.63 389.665 304.518C389.431 304.3 389.127 304.171 388.807 304.153H354.03V304.582H354.085Z" fill="#31273E"/>
<path d="M389.181 318.868H349.426C349.184 318.868 348.952 318.964 348.78 319.136C348.609 319.307 348.513 319.539 348.513 319.781V344.135C348.513 344.377 348.609 344.609 348.78 344.781C348.952 344.952 349.184 345.048 349.426 345.048H389.181C389.424 345.048 389.656 344.952 389.827 344.781C389.999 344.609 390.095 344.377 390.095 344.135V319.781C390.095 319.539 389.999 319.307 389.827 319.136C389.656 318.964 389.424 318.868 389.181 318.868Z" fill="white"/>
<path d="M357.812 330.023V323.587C357.795 323.435 357.81 323.281 357.859 323.136C357.907 322.99 357.987 322.857 358.092 322.746C358.198 322.635 358.326 322.548 358.469 322.491C358.611 322.435 358.764 322.41 358.917 322.419H362.845C363.458 322.419 363.823 322.729 363.823 323.277C363.823 323.825 363.458 324.135 362.845 324.135H360.023V326.098H362.535C362.648 326.098 362.759 326.12 362.863 326.163C362.968 326.206 363.062 326.269 363.142 326.349C363.222 326.429 363.285 326.523 363.328 326.627C363.371 326.732 363.394 326.843 363.394 326.956C363.394 327.068 363.371 327.18 363.328 327.284C363.285 327.388 363.222 327.483 363.142 327.563C363.062 327.642 362.968 327.705 362.863 327.749C362.759 327.792 362.648 327.814 362.535 327.814H360.023V330.023C360.039 330.174 360.022 330.328 359.973 330.472C359.924 330.616 359.844 330.748 359.739 330.858C359.634 330.969 359.506 331.055 359.364 331.111C359.222 331.167 359.07 331.191 358.917 331.182C358.766 331.186 358.616 331.159 358.476 331.101C358.337 331.044 358.211 330.958 358.106 330.848C358.002 330.739 357.922 330.609 357.871 330.467C357.821 330.325 357.801 330.173 357.812 330.023V330.023Z" fill="#31273E"/>
<path d="M364.389 326.709C364.389 323.971 366.052 322.236 368.628 322.236C371.204 322.236 372.857 323.952 372.857 326.709C372.857 329.466 371.204 331.182 368.628 331.182C366.052 331.182 364.389 329.466 364.389 326.709ZM370.656 326.709C370.656 325.057 369.852 323.971 368.628 323.971C367.404 323.971 366.6 325.011 366.6 326.709C366.6 328.407 367.404 329.448 368.628 329.448C369.852 329.448 370.656 328.307 370.656 326.709Z" fill="#31273E"/>
<path d="M373.962 330.023V323.524C373.945 323.371 373.961 323.217 374.009 323.072C374.057 322.926 374.137 322.793 374.242 322.682C374.348 322.571 374.476 322.484 374.619 322.427C374.761 322.371 374.915 322.346 375.068 322.355H377.644C379.79 322.355 380.96 323.405 380.96 325.176C380.975 325.66 380.857 326.139 380.618 326.56C380.38 326.982 380.03 327.33 379.608 327.567L380.649 329.347C380.803 329.564 380.889 329.821 380.896 330.087C380.893 330.225 380.861 330.361 380.803 330.487C380.744 330.613 380.661 330.725 380.557 330.817C380.453 330.908 380.331 330.978 380.199 331.02C380.067 331.063 379.928 331.077 379.79 331.063C379.242 331.063 379.06 330.881 378.685 330.205L377.397 327.878H376.173V329.895C376.191 330.047 376.175 330.201 376.126 330.347C376.078 330.492 375.998 330.625 375.893 330.737C375.787 330.848 375.659 330.935 375.516 330.991C375.374 331.048 375.221 331.072 375.068 331.063C374.921 331.097 374.769 331.094 374.624 331.055C374.479 331.015 374.346 330.941 374.237 330.838C374.127 330.735 374.045 330.607 373.997 330.465C373.95 330.323 373.937 330.171 373.962 330.023ZM377.461 326.463C377.786 326.463 378.097 326.334 378.327 326.105C378.556 325.875 378.685 325.564 378.685 325.24C378.685 324.915 378.556 324.604 378.327 324.375C378.097 324.145 377.786 324.016 377.461 324.016H376.173V326.463H377.461Z" fill="#31273E"/>
<path d="M354.158 340.484V334.003C354.142 333.851 354.159 333.698 354.208 333.554C354.257 333.41 354.337 333.278 354.442 333.167C354.547 333.057 354.675 332.971 354.817 332.915C354.959 332.859 355.111 332.835 355.263 332.844H357.812C359.958 332.844 361.128 333.884 361.128 335.664C361.141 336.148 361.022 336.626 360.784 337.047C360.546 337.469 360.197 337.817 359.776 338.056L360.817 339.827C360.971 340.043 361.057 340.301 361.064 340.566C361.061 340.704 361.029 340.841 360.971 340.966C360.912 341.092 360.829 341.204 360.725 341.296C360.621 341.388 360.499 341.457 360.367 341.499C360.236 341.542 360.096 341.557 359.958 341.543C359.41 341.543 359.219 341.36 358.853 340.685L357.565 338.485H356.341V340.484C356.359 340.636 356.343 340.79 356.294 340.936C356.246 341.081 356.166 341.214 356.061 341.326C355.956 341.437 355.827 341.524 355.685 341.58C355.542 341.637 355.389 341.661 355.236 341.652C355.086 341.653 354.938 341.622 354.801 341.563C354.664 341.503 354.541 341.415 354.439 341.305C354.338 341.195 354.261 341.066 354.212 340.924C354.164 340.783 354.145 340.633 354.158 340.484V340.484ZM357.656 336.933C357.827 336.948 357.998 336.927 358.16 336.872C358.322 336.817 358.47 336.729 358.596 336.613C358.722 336.498 358.823 336.358 358.891 336.201C358.96 336.045 358.996 335.876 358.996 335.705C358.996 335.535 358.96 335.366 358.891 335.209C358.823 335.053 358.722 334.913 358.596 334.797C358.47 334.682 358.322 334.594 358.16 334.539C357.998 334.484 357.827 334.463 357.656 334.478H356.368V336.933H357.656Z" fill="#31273E"/>
<path d="M362.242 340.32V334.003C362.226 333.851 362.243 333.698 362.292 333.554C362.341 333.41 362.421 333.278 362.526 333.167C362.631 333.057 362.759 332.971 362.901 332.915C363.043 332.859 363.195 332.835 363.348 332.844H367.276C367.888 332.844 368.262 333.145 368.262 333.702C368.262 334.258 367.888 334.56 367.276 334.56H364.389V336.276H367.129C367.24 336.261 367.353 336.27 367.46 336.304C367.566 336.338 367.664 336.395 367.746 336.471C367.828 336.546 367.892 336.64 367.934 336.743C367.976 336.847 367.995 336.958 367.988 337.07C367.99 337.181 367.968 337.29 367.925 337.392C367.882 337.494 367.817 337.586 367.737 337.661C367.656 337.737 367.56 337.795 367.455 337.831C367.351 337.868 367.24 337.882 367.129 337.873H364.389V339.644H367.276C367.397 339.634 367.519 339.649 367.635 339.687C367.751 339.725 367.858 339.785 367.95 339.865C368.042 339.945 368.117 340.043 368.17 340.152C368.224 340.262 368.255 340.381 368.262 340.502C368.262 341.059 367.888 341.36 367.276 341.36H363.348C362.672 341.488 362.242 341.059 362.242 340.32Z" fill="#31273E"/>
<path d="M369.358 340.484V333.747C369.335 333.604 369.346 333.457 369.39 333.319C369.434 333.181 369.511 333.055 369.614 332.952C369.716 332.85 369.842 332.773 369.98 332.729C370.119 332.684 370.266 332.674 370.409 332.697C370.622 332.701 370.83 332.76 371.013 332.869C371.195 332.978 371.346 333.133 371.45 333.318L374.757 337.882H374.821V333.82C374.803 333.676 374.818 333.53 374.863 333.393C374.908 333.255 374.983 333.129 375.082 333.023C375.182 332.918 375.303 332.836 375.438 332.783C375.573 332.729 375.718 332.706 375.863 332.716C376.009 332.702 376.156 332.721 376.294 332.772C376.432 332.824 376.556 332.906 376.657 333.012C376.758 333.119 376.834 333.247 376.878 333.387C376.923 333.527 376.935 333.675 376.913 333.82V340.566C376.935 340.708 376.923 340.854 376.878 340.991C376.833 341.128 376.756 341.252 376.653 341.354C376.551 341.456 376.426 341.531 376.288 341.575C376.151 341.619 376.005 341.63 375.863 341.607C375.65 341.605 375.443 341.548 375.26 341.44C375.077 341.333 374.926 341.179 374.821 340.995L371.514 336.431H371.45V340.484C371.464 340.629 371.447 340.776 371.401 340.914C371.354 341.053 371.28 341.18 371.181 341.288C371.083 341.396 370.963 341.483 370.829 341.542C370.695 341.601 370.551 341.631 370.404 341.631C370.258 341.631 370.114 341.601 369.98 341.542C369.846 341.483 369.726 341.396 369.628 341.288C369.529 341.18 369.454 341.053 369.408 340.914C369.362 340.776 369.345 340.629 369.358 340.484V340.484Z" fill="#31273E"/>
<path d="M380.22 340.484V334.66H378.685C378.073 334.66 377.708 334.359 377.708 333.802C377.708 333.245 378.073 332.944 378.685 332.944H383.901C384.514 332.944 384.888 333.254 384.888 333.802C384.888 334.35 384.514 334.66 383.901 334.66H382.367V340.484C382.384 340.636 382.368 340.79 382.32 340.936C382.272 341.081 382.192 341.214 382.087 341.325C381.981 341.437 381.853 341.524 381.71 341.58C381.568 341.637 381.415 341.661 381.262 341.652C381.116 341.644 380.974 341.607 380.843 341.544C380.712 341.481 380.595 341.393 380.498 341.284C380.401 341.175 380.327 341.049 380.279 340.912C380.232 340.774 380.211 340.629 380.22 340.484V340.484Z" fill="#31273E"/>
</g>
<defs>
<linearGradient id="paint0_linear_42_828" x1="165.577" y1="289.667" x2="66.2803" y2="289.667" gradientUnits="userSpaceOnUse">
<stop stop-opacity="0"/>
<stop offset="0.51" stop-opacity="0.3"/>
</linearGradient>
<clipPath id="clip0_42_828">
<rect width="461" height="360" fill="white"/>
</clipPath>
</defs>
</svg>
