<svg width="222" height="21" viewBox="0 0 222 21" fill="none" xmlns="http://www.w3.org/2000/svg">
<g clip-path="url(#clip0_60_45)">
<g clip-path="url(#clip1_60_45)">
<path fill-rule="evenodd" clip-rule="evenodd" d="M81.1943 33.0081C77.4088 29.2309 74.9253 24.3173 74.1123 18.9962C66.0578 19.5102 58.0095 20.116 49.9612 20.7504L43.4143 21.2717C42.3219 21.3586 41.2304 21.4464 40.1396 21.5349C27.9961 22.5119 15.0677 19.5425 2.46493 16.5333C-3.34474 15.1466 -1.94866 13.395 -0.438683 12.4813L-0.288053 12.3931C0.0589964 12.1922 0.425444 12.0279 0.805547 11.9028C2.33144 11.4397 3.84387 10.8898 5.35262 10.3113L6.8626 9.72533C12.649 7.46843 18.4624 5.11967 25.0044 6.19226C40.18 8.67757 54.4152 5.39279 68.283 3.24886C84.4702 0.746162 100.574 0.890166 116.881 0.518982C139.099 0.0137258 161.628 0.0273809 183.138 -3.27106C191.174 -4.50503 197.027 -9.43842 205.646 -3.24127C216.606 4.64049 220.633 13.5414 217.385 25.2083C216.564 28.1566 215.695 28.544 207.512 28.5837C204.528 26.6505 201.225 25.2799 197.76 24.5379C195.924 25.2482 193.924 25.4047 192.002 24.9885C182.777 22.79 173.98 25.6477 165.437 27.5086C155.464 29.6799 145.611 29.5309 135.621 29.8338C134.324 29.8735 133.026 29.9095 131.728 29.9418L127.828 30.0436C116.775 30.3366 105.696 30.75 94.969 33.0652C90.0191 34.1341 86.3084 38.4505 81.1943 33.0081Z" fill="#D9FFED"/>
</g>
</g>
<defs>
<clipPath id="clip0_60_45">
<rect width="222" height="21" fill="white"/>
</clipPath>
<clipPath id="clip1_60_45">
<rect width="222" height="21" fill="white"/>
</clipPath>
</defs>
</svg>
