<svg width="302" height="201" viewBox="0 0 302 201" fill="none" xmlns="http://www.w3.org/2000/svg">
<rect x="101.558" y="20.5566" width="199.942" height="180.443" rx="8" fill="#FFEFE5" fill-opacity="0.5"/>
<path d="M118.706 8.12484V154.506C118.706 159.003 115.621 162.642 111.817 162.642H6.89907C3.08568 162.642 0 159.003 0 154.506V8.12484C0 3.6389 3.08568 0 6.89907 0H111.812C115.616 0 118.702 3.6389 118.702 8.12484H118.706Z" fill="#E7E7EA"/>
<path d="M118.706 8.12484V16.2998H0V8.12484C0 3.6389 3.08568 0 6.89907 0H111.812C115.616 0 118.702 3.6389 118.702 8.12484H118.706Z" fill="#1D1934"/>
<path d="M8.10387 10.4263C8.8346 10.4263 9.42698 9.72773 9.42698 8.86599C9.42698 8.00425 8.8346 7.30566 8.10387 7.30566C7.37314 7.30566 6.78076 8.00425 6.78076 8.86599C6.78076 9.72773 7.37314 10.4263 8.10387 10.4263Z" fill="white"/>
<path d="M14.577 10.4263C15.3077 10.4263 15.9001 9.72773 15.9001 8.86599C15.9001 8.00425 15.3077 7.30566 14.577 7.30566C13.8463 7.30566 13.2539 8.00425 13.2539 8.86599C13.2539 9.72773 13.8463 10.4263 14.577 10.4263Z" fill="white"/>
<path d="M21.0516 10.4263C21.7824 10.4263 22.3747 9.72773 22.3747 8.86599C22.3747 8.00425 21.7824 7.30566 21.0516 7.30566C20.3209 7.30566 19.7285 8.00425 19.7285 8.86599C19.7285 9.72773 20.3209 10.4263 21.0516 10.4263Z" fill="white"/>
<g style="mix-blend-mode:screen">
<path d="M43.9703 69.9971H9.0166V72.8502H43.9703V69.9971Z" fill="#D2D1D6"/>
<path d="M109.7 28.5205H59.1763V31.6021H109.7V28.5205Z" fill="#2B244C"/>
<path d="M109.365 38.791H66.1699V41.5327H109.365V38.791Z" fill="#2B244C"/>
<path d="M109.365 48.2476H66.1699V50.9893H109.365V48.2476Z" fill="#2B244C"/>
<path d="M109.365 57.6987H66.1699V60.4404H109.365V57.6987Z" fill="#2B244C"/>
<path d="M109.365 67.1553H66.1699V69.897H109.365V67.1553Z" fill="#2B244C"/>
<path d="M109.365 76.6118H66.1699V79.3535H109.365V76.6118Z" fill="#2B244C"/>
<path d="M61.5531 38.791H59.1763V41.5327H61.5531V38.791Z" fill="#2B244C"/>
<path d="M61.5531 48.2476H59.1763V50.9893H61.5531V48.2476Z" fill="#2B244C"/>
<path d="M61.5531 57.6987H59.1763V60.4404H61.5531V57.6987Z" fill="#2B244C"/>
<path d="M61.5531 67.1553H59.1763V69.897H61.5531V67.1553Z" fill="#2B244C"/>
<path d="M61.5531 76.6118H59.1763V79.3535H61.5531V76.6118Z" fill="#2B244C"/>
<path d="M109.7 97.3477H59.1763V100.429H109.7V97.3477Z" fill="#2B244C"/>
<path d="M109.365 107.618H66.1699V110.36H109.365V107.618Z" fill="#2B244C"/>
<path d="M109.365 117.075H66.1699V119.816H109.365V117.075Z" fill="#2B244C"/>
<path d="M109.365 126.531H66.1699V129.273H109.365V126.531Z" fill="#2B244C"/>
<path d="M109.365 135.982H66.1699V138.724H109.365V135.982Z" fill="#2B244C"/>
<path d="M109.365 145.439H66.1699V148.181H109.365V145.439Z" fill="#2B244C"/>
<path d="M61.5531 107.618H59.1763V110.36H61.5531V107.618Z" fill="#2B244C"/>
<path d="M61.5531 117.075H59.1763V119.816H61.5531V117.075Z" fill="#2B244C"/>
<path d="M61.5531 126.531H59.1763V129.273H61.5531V126.531Z" fill="#2B244C"/>
<path d="M61.5531 135.982H59.1763V138.724H61.5531V135.982Z" fill="#2B244C"/>
<path d="M61.5531 145.439H59.1763V148.181H61.5531V145.439Z" fill="#2B244C"/>
<path d="M43.9653 121.588H14.1528V124.442H43.9653V121.588Z" fill="#D2D1D6"/>
<path d="M43.9653 129.234H14.1528V132.087H43.9653V129.234Z" fill="#D2D1D6"/>
<path d="M43.9653 136.885H14.1528V139.738H43.9653V136.885Z" fill="#D2D1D6"/>
<path d="M11.436 121.588H9.0166V124.442H11.436V121.588Z" fill="#D2D1D6"/>
<path d="M11.436 129.234H9.0166V132.087H11.436V129.234Z" fill="#D2D1D6"/>
<path d="M11.436 136.885H9.0166V139.738H11.436V136.885Z" fill="#D2D1D6"/>
<path d="M43.9703 77.2583H9.0166V105.913H43.9703V77.2583Z" fill="#D2D1D6"/>
</g>
<mask id="mask0_1308_7677" style="mask-type:luminance" maskUnits="userSpaceOnUse" x="10" y="21" width="36" height="43">
<path d="M27.8924 63.0038C37.5929 63.0038 45.4567 53.7301 45.4567 42.2905C45.4567 30.8508 37.5929 21.5771 27.8924 21.5771C18.1919 21.5771 10.3281 30.8508 10.3281 42.2905C10.3281 53.7301 18.1919 63.0038 27.8924 63.0038Z" fill="white"/>
</mask>
<g mask="url(#mask0_1308_7677)">
<path d="M28.0585 68.5205C40.2513 68.5205 50.1355 56.8641 50.1355 42.4853C50.1355 28.1065 40.2513 16.4502 28.0585 16.4502C15.8657 16.4502 5.98145 28.1065 5.98145 42.4853C5.98145 56.8641 15.8657 68.5205 28.0585 68.5205Z" fill="#A5A3AE"/>
</g>
<path d="M154.112 49.2201V184.99C154.112 189.128 151.007 192.479 147.175 192.479H42.3472C38.5149 192.479 35.4009 189.128 35.4009 184.99V49.2201C35.4009 45.083 38.5149 41.7314 42.3472 41.7314H147.175C151.007 41.7314 154.112 45.083 154.112 49.2201Z" fill="white"/>
<path d="M154.112 49.2201V55.9283H35.4009V49.2201C35.4009 45.083 38.5149 41.7314 42.3472 41.7314H147.175C151.007 41.7314 154.112 45.083 154.112 49.2201Z" fill="#444255"/>
<path d="M43.0555 50.9954C43.7863 50.9954 44.3786 50.3559 44.3786 49.567C44.3786 48.7782 43.7863 48.1387 43.0555 48.1387C42.3248 48.1387 41.7324 48.7782 41.7324 49.567C41.7324 50.3559 42.3248 50.9954 43.0555 50.9954Z" fill="white"/>
<path d="M49.5292 50.9954C50.2599 50.9954 50.8523 50.3559 50.8523 49.567C50.8523 48.7782 50.2599 48.1387 49.5292 48.1387C48.7984 48.1387 48.2061 48.7782 48.2061 49.567C48.2061 50.3559 48.7984 50.9954 49.5292 50.9954Z" fill="white"/>
<path d="M56.0033 50.9954C56.734 50.9954 57.3264 50.3559 57.3264 49.567C57.3264 48.7782 56.734 48.1387 56.0033 48.1387C55.2725 48.1387 54.6802 48.7782 54.6802 49.567C54.6802 50.3559 55.2725 50.9954 56.0033 50.9954Z" fill="white"/>
<mask id="mask1_1308_7677" style="mask-type:luminance" maskUnits="userSpaceOnUse" x="46" y="63" width="35" height="38">
<path d="M63.21 100.065C72.5268 100.065 80.0796 91.9111 80.0796 81.8531C80.0796 71.7952 72.5268 63.6416 63.21 63.6416C53.8931 63.6416 46.3403 71.7952 46.3403 81.8531C46.3403 91.9111 53.8931 100.065 63.21 100.065Z" fill="white"/>
</mask>
<g mask="url(#mask1_1308_7677)">
<path d="M87.687 60.8765H43.7598V111.777H87.687V60.8765Z" fill="#D2D1D6"/>
</g>
<g style="mix-blend-mode:multiply">
<path d="M79.3697 107.676H44.416V110.288H79.3697V107.676Z" fill="#D2D1D6"/>
<path d="M145.1 69.707H94.5762V72.528H145.1V69.707Z" fill="#D2D1D6"/>
<path d="M144.765 79.1089H101.57V81.6187H144.765V79.1089Z" fill="#D2D1D6"/>
<path d="M144.765 87.7656H101.57V90.2754H144.765V87.7656Z" fill="#D2D1D6"/>
<path d="M144.765 96.4224H101.57V98.9322H144.765V96.4224Z" fill="#D2D1D6"/>
<path d="M144.765 105.074H101.57V107.584H144.765V105.074Z" fill="#D2D1D6"/>
<path d="M144.765 113.731H101.57V116.241H144.765V113.731Z" fill="#D2D1D6"/>
<path d="M96.953 79.1089H94.5762V81.6187H96.953V79.1089Z" fill="#D2D1D6"/>
<path d="M96.953 87.7656H94.5762V90.2754H96.953V87.7656Z" fill="#D2D1D6"/>
<path d="M96.953 96.4224H94.5762V98.9322H96.953V96.4224Z" fill="#D2D1D6"/>
<path d="M96.953 105.074H94.5762V107.584H96.953V105.074Z" fill="#D2D1D6"/>
<path d="M96.953 113.731H94.5762V116.241H96.953V113.731Z" fill="#D2D1D6"/>
<path d="M145.1 132.713H94.5762V135.534H145.1V132.713Z" fill="#D2D1D6"/>
<path d="M144.765 142.115H101.57V144.625H144.765V142.115Z" fill="#D2D1D6"/>
<path d="M144.765 150.771H101.57V153.281H144.765V150.771Z" fill="#D2D1D6"/>
<path d="M144.765 159.428H101.57V161.938H144.765V159.428Z" fill="#D2D1D6"/>
<path d="M144.765 168.08H101.57V170.59H144.765V168.08Z" fill="#D2D1D6"/>
<path d="M144.765 176.737H101.57V179.247H144.765V176.737Z" fill="#D2D1D6"/>
<path d="M96.953 142.115H94.5762V144.625H96.953V142.115Z" fill="#D2D1D6"/>
<path d="M96.953 150.771H94.5762V153.281H96.953V150.771Z" fill="#D2D1D6"/>
<path d="M96.953 159.428H94.5762V161.938H96.953V159.428Z" fill="#D2D1D6"/>
<path d="M96.953 168.08H94.5762V170.59H96.953V168.08Z" fill="#D2D1D6"/>
<path d="M96.953 176.737H94.5762V179.247H96.953V176.737Z" fill="#D2D1D6"/>
<path d="M79.3696 154.903H49.5571V157.515H79.3696V154.903Z" fill="#D2D1D6"/>
<path d="M79.3696 161.902H49.5571V164.514H79.3696V161.902Z" fill="#D2D1D6"/>
<path d="M79.3696 168.906H49.5571V171.518H79.3696V168.906Z" fill="#D2D1D6"/>
<path d="M46.8349 154.903H44.4155V157.515H46.8349V154.903Z" fill="#D2D1D6"/>
<path d="M46.8349 161.902H44.4155V164.514H46.8349V161.902Z" fill="#D2D1D6"/>
<path d="M46.8349 168.906H44.4155V171.518H46.8349V168.906Z" fill="#D2D1D6"/>
<path d="M79.3697 114.323H44.416V140.553H79.3697V114.323Z" fill="#D2D1D6"/>
</g>
<path d="M196.506 129.27L153.813 171.745L167.53 195.941L208.338 186.338L196.506 129.27Z" fill="#FB975B"/>
<path d="M206.909 121.267C206.909 121.267 192.162 128.899 191.136 139.334C190.282 147.981 177.676 200.371 177.676 200.371H274.376L241.372 127.789L206.909 121.267Z" fill="#FB975B"/>
<path d="M182.362 200.584C182.457 200.584 182.542 200.509 182.556 200.403L190.415 143.089C190.43 142.975 190.356 142.868 190.25 142.848C190.144 142.832 190.045 142.911 190.027 143.026L182.168 200.34C182.153 200.454 182.226 200.561 182.333 200.58C182.344 200.584 182.355 200.584 182.362 200.584Z" fill="#1E1936"/>
<path d="M182.362 200.766C182.541 200.766 182.699 200.62 182.725 200.43L190.584 143.117C190.613 142.903 190.474 142.702 190.276 142.67C190.18 142.655 190.081 142.682 190.004 142.745C189.927 142.809 189.876 142.899 189.861 143.006L182.003 200.32C181.988 200.422 182.014 200.529 182.072 200.612C182.131 200.695 182.215 200.75 182.314 200.766H182.362ZM190.224 143.03C190.243 143.034 190.254 143.045 190.25 143.061L182.391 200.375L182.365 200.399V200.584L182.362 200.403C182.347 200.403 182.336 200.383 182.34 200.371L190.199 143.057C190.199 143.042 190.21 143.03 190.224 143.03Z" fill="#1E1936"/>
<path d="M208.23 96.1551C208.23 96.1551 205.55 85.3091 211.126 81.6016C216.701 77.8941 221.389 84.6694 221.66 85.5973C221.928 86.5291 208.23 96.1551 208.23 96.1551Z" fill="#1E1936"/>
<path d="M208.127 96.4475L208.322 96.3093C208.355 96.2856 211.786 93.8732 215.139 91.3779C222.023 86.2569 221.891 85.7949 221.818 85.5462C221.635 84.9105 219.641 81.9295 216.793 80.7806C214.828 79.987 212.889 80.212 211.034 81.4478C205.419 85.183 208.036 96.0961 208.061 96.2027L208.127 96.4475ZM214.516 80.6819C215.231 80.6819 215.953 80.828 216.679 81.1201C219.373 82.2059 221.331 85.0724 221.499 85.6528C221.36 86.4346 213.439 92.2702 208.34 95.8631C207.992 94.2364 206.276 85.0448 211.217 81.7558C212.291 81.0412 213.395 80.6819 214.516 80.6819Z" fill="#1E1936"/>
<path d="M208.229 96.3686C208.265 96.3686 208.302 96.3568 208.335 96.3331C208.368 96.3094 211.799 93.897 215.157 91.4016C222.059 86.2688 221.927 85.8108 221.846 85.5384C221.663 84.8987 219.662 81.9059 216.806 80.753C214.83 79.9594 212.888 80.1844 211.022 81.4242C208.683 82.9799 207.426 86.0398 207.389 90.2724C207.364 93.4389 208.031 96.187 208.038 96.2146C208.053 96.2817 208.1 96.3331 208.159 96.3568C208.181 96.3607 208.207 96.3686 208.229 96.3686ZM221.461 85.6331C221.388 85.8384 220.651 86.8058 214.728 91.2042C211.946 93.2692 209.16 95.2433 208.353 95.8158C208.188 95.038 207.76 92.7875 207.782 90.2645C207.807 87.4257 208.427 83.6471 211.227 81.7835C212.983 80.6148 214.812 80.4016 216.667 81.1478C219.313 82.2139 221.245 84.9974 221.461 85.6331Z" fill="#1E1936"/>
<path d="M208.229 96.5502C208.299 96.5502 208.368 96.5265 208.427 96.487C208.79 96.2304 212.041 93.9403 215.252 91.5516C222.257 86.3398 222.125 85.8858 222.008 85.483C221.817 84.8276 219.776 81.7558 216.865 80.5832C214.838 79.7659 212.844 79.9988 210.934 81.2702C208.544 82.8614 207.258 85.9726 207.221 90.2684C207.195 93.4744 207.87 96.2304 207.877 96.258C207.907 96.3804 207.991 96.4791 208.101 96.5225C208.141 96.5423 208.185 96.5502 208.229 96.5502ZM214.515 80.4687C215.252 80.4687 216 80.6187 216.748 80.9227C219.552 82.052 221.506 84.9698 221.685 85.5896C221.803 85.9963 219.636 87.8441 215.062 91.2515C211.854 93.6363 208.61 95.9263 208.251 96.179L208.233 96.1869C208.229 96.1869 208.225 96.1869 208.222 96.1869C208.2 96.1395 207.536 93.4192 207.562 90.2723C207.599 86.1069 208.827 83.1022 211.114 81.5782C212.221 80.8398 213.357 80.4687 214.515 80.4687ZM208.244 96.1119L208.445 95.9698C209.241 95.4091 212.049 93.4152 214.823 91.3542C219.017 88.239 221.429 86.2332 221.619 85.6963L221.641 85.6331L221.619 85.5699C221.377 84.8632 219.376 82.0441 216.726 80.978C214.82 80.2081 212.939 80.4292 211.14 81.6295C208.273 83.5365 207.639 87.3782 207.613 90.2645C207.591 92.7795 208.009 95.0143 208.189 95.8592L208.244 96.1119ZM221.275 85.6212C221.117 85.8621 220.179 86.936 214.633 91.0502C212.063 92.9572 209.464 94.809 208.467 95.5157C208.273 94.5444 207.932 92.5189 207.954 90.2605C207.98 87.4651 208.585 83.7537 211.319 81.9335C213.027 80.7964 214.809 80.5911 216.612 81.3136C219.193 82.3599 220.981 84.9737 221.275 85.6212Z" fill="#1E1936"/>
<path d="M210.35 129.368L227.149 130.296V102.022L212.403 105.963L211.109 106.275L210.988 109.327L210.618 118.365L210.581 119.932L210.35 129.368Z" fill="white"/>
<path d="M227.15 130.659C227.238 130.659 227.318 130.624 227.384 130.561C227.45 130.494 227.491 130.395 227.491 130.296V102.022C227.491 101.912 227.443 101.805 227.362 101.734C227.282 101.667 227.172 101.639 227.073 101.667L212.326 105.607L211.04 105.919C210.89 105.955 210.783 106.093 210.776 106.259L210.285 118.349L210.014 129.356C210.01 129.554 210.153 129.72 210.336 129.731L227.139 130.659C227.139 130.659 227.146 130.659 227.15 130.659ZM226.813 102.488V129.913L210.695 129.025L210.956 118.38L211.436 106.575L212.477 106.322L226.813 102.488Z" fill="#2F2A2E"/>
<path d="M210.581 119.932C212.589 119.13 220.961 115.482 223.304 109.378C224.381 106.567 217.714 105.623 212.402 105.963L211.109 106.274L210.984 109.327L210.617 118.368L210.581 119.932Z" fill="#1E1936"/>
<path d="M210.406 120.196L210.64 120.101C220.204 116.295 222.872 110.985 223.462 109.449C223.675 108.9 223.627 108.387 223.323 107.929C222.139 106.136 216.93 105.493 212.396 105.781L210.948 106.128L210.45 118.356L210.406 120.196ZM214.456 106.077C218.239 106.077 222.117 106.729 223.048 108.138C223.283 108.493 223.316 108.876 223.151 109.307C220.904 115.162 212.895 118.787 210.758 119.663L210.791 118.368L211.278 106.421L212.444 106.14C213.096 106.101 213.774 106.077 214.456 106.077Z" fill="#1E1936"/>
<path d="M226.324 106.985C228.711 101.284 232.021 92.3805 230.58 89.9207C228.41 86.2211 220.958 78.6878 213.524 82.1899C213.524 82.1899 206.6 85.7789 203.778 103.827C201.344 119.383 216.163 115.269 222.182 111.869" fill="white"/>
<path d="M211.233 115.403C215.1 115.403 219.499 113.796 222.336 112.193C222.501 112.099 222.567 111.881 222.479 111.7C222.391 111.522 222.19 111.455 222.021 111.546C217.996 113.816 210.163 116.288 206.27 113.244C204.126 111.57 203.396 108.423 204.108 103.886C206.86 86.2845 213.601 82.5534 213.667 82.5179C220.797 79.1618 228.069 86.328 230.29 90.1144C231.298 91.8319 229.741 97.9281 226.013 106.832C225.936 107.017 226.013 107.23 226.181 107.313C226.35 107.396 226.552 107.313 226.629 107.132C229.37 100.574 232.332 92.2347 230.862 89.7235C228.546 85.7713 220.925 78.3011 213.381 81.8506C213.081 82.0046 206.256 85.7318 203.437 103.764C202.682 108.593 203.499 111.98 205.871 113.832C207.311 114.961 209.199 115.403 211.233 115.403Z" fill="#2F2A2E"/>
<path d="M214.491 97.5053C214.329 98.1291 213.911 98.5476 213.559 98.441C213.208 98.3344 213.054 97.7422 213.219 97.1183C213.38 96.4945 213.798 96.076 214.15 96.1826C214.502 96.2892 214.652 96.8814 214.491 97.5053Z" fill="#1E1936"/>
<path d="M213.674 98.6424C214.077 98.6424 214.488 98.2041 214.657 97.5566C214.745 97.2249 214.752 96.8854 214.679 96.6011C214.598 96.2892 214.426 96.076 214.198 96.0089C213.751 95.8746 213.249 96.3405 213.058 97.071C212.97 97.4026 212.963 97.7422 213.036 98.0264C213.117 98.3384 213.289 98.5516 213.517 98.6187C213.568 98.6345 213.619 98.6424 213.674 98.6424ZM214.041 96.3524C214.063 96.3524 214.085 96.3563 214.103 96.3603C214.253 96.4037 214.323 96.5932 214.349 96.6998C214.404 96.913 214.396 97.1894 214.327 97.4579C214.18 98.0185 213.824 98.3384 213.605 98.2712C213.454 98.2278 213.385 98.0383 213.359 97.9317C213.304 97.7185 213.311 97.4421 213.381 97.1736C213.517 96.6603 213.821 96.3524 214.041 96.3524Z" fill="#1E1936"/>
<path d="M207.662 95.1879C207.501 95.8117 207.083 96.2303 206.731 96.1236C206.379 96.017 206.225 95.4248 206.39 94.801C206.552 94.1771 206.969 93.7586 207.321 93.8652C207.673 93.9718 207.827 94.5641 207.662 95.1879Z" fill="#1E1936"/>
<path d="M206.845 96.3251C207.248 96.3251 207.659 95.8869 207.827 95.2393C207.915 94.9077 207.923 94.5681 207.849 94.2838C207.769 93.9719 207.597 93.7587 207.369 93.6916C207.138 93.6245 206.893 93.7074 206.673 93.9285C206.475 94.1299 206.317 94.422 206.229 94.7537C206.141 95.0854 206.134 95.4249 206.207 95.7092C206.288 96.0211 206.46 96.2343 206.687 96.3014C206.739 96.3172 206.79 96.3251 206.845 96.3251ZM207.208 94.0312C207.23 94.0312 207.252 94.0351 207.274 94.039C207.424 94.0825 207.494 94.272 207.52 94.3786C207.575 94.5918 207.567 94.8682 207.498 95.1367C207.351 95.6973 206.999 96.0172 206.775 95.95C206.625 95.9066 206.555 95.7171 206.53 95.6105C206.475 95.3973 206.482 95.1209 206.552 94.8524C206.621 94.5839 206.746 94.347 206.9 94.193C206.966 94.1299 207.083 94.0312 207.208 94.0312Z" fill="#1E1936"/>
<path d="M218.714 96.0958C218.751 96.0958 218.788 96.0839 218.821 96.0602C218.912 95.9971 218.938 95.8668 218.879 95.7681C218.813 95.6575 217.237 93.0911 214.088 92.7989C213.982 92.7871 213.887 92.874 213.876 92.9924C213.865 93.1069 213.945 93.2096 214.055 93.2214C217.01 93.4938 218.538 95.9734 218.553 95.9971C218.586 96.0602 218.648 96.0958 218.714 96.0958Z" fill="#1E1936"/>
<path d="M218.715 96.2774C218.784 96.2774 218.854 96.2537 218.913 96.2142C219.081 96.0958 219.129 95.851 219.023 95.6693C218.957 95.5588 217.336 92.9174 214.103 92.6173C213.898 92.6015 213.726 92.7594 213.708 92.9766C213.7 93.0832 213.73 93.1819 213.792 93.2648C213.854 93.3438 213.942 93.3951 214.041 93.403C216.9 93.6675 218.396 96.0721 218.41 96.0958C218.476 96.2103 218.59 96.2774 218.715 96.2774ZM214.071 92.9805C217.142 93.2648 218.674 95.7602 218.737 95.8668C218.744 95.8786 218.74 95.8983 218.729 95.9062L218.715 95.9102C218.711 95.9102 218.7 95.9102 218.693 95.8983C218.678 95.8747 217.113 93.3201 214.071 93.0398L214.045 93.0082C214.045 92.9924 214.056 92.9805 214.071 92.9805Z" fill="#1E1936"/>
<path d="M206.744 92.4004C206.773 92.4004 206.806 92.3925 206.836 92.3767C207.965 91.741 210.135 92.1042 210.153 92.1082C210.259 92.1279 210.362 92.049 210.377 91.9345C210.395 91.82 210.322 91.7094 210.215 91.6936C210.12 91.6778 207.895 91.3027 206.652 92.0055C206.557 92.0608 206.52 92.1871 206.568 92.2898C206.605 92.3609 206.674 92.4004 206.744 92.4004Z" fill="#1E1936"/>
<path d="M206.745 92.5818C206.804 92.5818 206.862 92.5661 206.914 92.5384C207.812 92.033 209.538 92.187 210.128 92.2897C210.326 92.3252 210.517 92.1791 210.546 91.962C210.576 91.7448 210.444 91.5434 210.242 91.5119C210.147 91.4961 207.863 91.1131 206.573 91.8396C206.393 91.9383 206.324 92.1791 206.419 92.3726C206.485 92.5029 206.609 92.5818 206.745 92.5818ZM208.765 91.8159C208.09 91.8159 207.313 91.8988 206.756 92.2146L206.745 92.2186C206.738 92.2186 206.727 92.2146 206.719 92.2028C206.712 92.187 206.719 92.1712 206.73 92.1633C207.922 91.4921 210.095 91.8554 210.187 91.8711C210.202 91.8751 210.213 91.8869 210.209 91.9027C210.205 91.9185 210.194 91.9304 210.18 91.9264C210.169 91.9264 209.535 91.8159 208.765 91.8159Z" fill="#1E1936"/>
<path d="M214.531 101.489C215.264 101.489 215.975 101.228 216.569 100.739C217.28 100.151 217.735 99.3016 217.848 98.3422C217.965 97.3867 217.727 96.4391 217.181 95.6731C216.635 94.9072 215.847 94.4176 214.956 94.2952C214.069 94.1688 213.189 94.4255 212.478 95.0138C211.767 95.6021 211.313 96.4509 211.199 97.4104C211.082 98.3659 211.32 99.3135 211.866 100.079C212.412 100.845 213.2 101.335 214.091 101.457C214.238 101.477 214.384 101.489 214.531 101.489ZM214.52 94.686C214.648 94.686 214.78 94.6939 214.908 94.7137C215.693 94.8242 216.389 95.2546 216.873 95.9298C217.357 96.6049 217.566 97.442 217.463 98.2869C217.361 99.1319 216.961 99.882 216.334 100.403C215.708 100.924 214.93 101.149 214.146 101.039C213.362 100.928 212.665 100.498 212.181 99.8228C211.697 99.1476 211.489 98.3106 211.591 97.4657C211.694 96.6207 212.093 95.8705 212.72 95.3494C213.241 94.9151 213.871 94.686 214.52 94.686Z" fill="#1E1936"/>
<path d="M214.53 101.671C215.307 101.671 216.047 101.398 216.67 100.885C217.414 100.269 217.895 99.3728 218.016 98.3699C218.137 97.3671 217.887 96.3681 217.315 95.5666C216.744 94.7612 215.912 94.2479 214.981 94.1176C214.046 93.9873 213.122 94.2558 212.378 94.8717C211.634 95.4877 211.154 96.3839 211.033 97.3868C210.912 98.3897 211.161 99.3886 211.733 100.19C212.305 100.992 213.137 101.509 214.068 101.639C214.222 101.659 214.376 101.671 214.53 101.671ZM214.515 94.4453C214.654 94.4453 214.794 94.4532 214.933 94.473C215.776 94.5914 216.527 95.0573 217.044 95.7838C217.561 96.5103 217.788 97.4105 217.678 98.3186C217.568 99.2267 217.136 100.036 216.461 100.593C215.787 101.15 214.944 101.394 214.108 101.276C213.265 101.157 212.514 100.692 211.997 99.9651C211.48 99.2386 211.253 98.3384 211.363 97.4302C211.473 96.5221 211.905 95.7127 212.58 95.156C213.144 94.6901 213.819 94.4453 214.515 94.4453ZM214.53 101.248C215.215 101.248 215.879 101.007 216.432 100.549C217.096 100.001 217.521 99.207 217.627 98.3147C217.733 97.4223 217.513 96.5379 217.004 95.8233C216.494 95.1086 215.758 94.6506 214.929 94.5361C214.104 94.4216 213.28 94.6585 212.616 95.2073C211.953 95.7562 211.528 96.5498 211.421 97.4421C211.315 98.3344 211.535 99.2188 212.044 99.9335C212.554 100.648 213.291 101.106 214.119 101.221C214.255 101.236 214.394 101.248 214.53 101.248ZM214.519 94.8678C214.64 94.8678 214.764 94.8757 214.885 94.8954C215.626 94.9981 216.282 95.4087 216.736 96.0444C217.191 96.6801 217.389 97.4697 217.29 98.2673C217.194 99.0648 216.813 99.7716 216.223 100.261C215.633 100.751 214.9 100.964 214.159 100.857C213.419 100.755 212.763 100.344 212.308 99.7084C211.854 99.0727 211.656 98.2831 211.755 97.4855C211.85 96.688 212.231 95.9812 212.822 95.4916C213.313 95.0849 213.899 94.8678 214.519 94.8678Z" fill="#1E1936"/>
<path d="M208.571 101.892C208.626 101.892 208.681 101.868 208.721 101.817C208.791 101.726 208.78 101.596 208.696 101.521C208.322 101.181 207.655 100.155 207.691 99.8114C207.717 99.7008 208.095 99.2586 209.326 98.3307C209.7 98.0504 209.957 97.6279 210.045 97.1462L210.51 94.6193C210.532 94.5048 210.462 94.3943 210.356 94.3706C210.25 94.3469 210.147 94.4219 210.125 94.5364L209.66 97.0633C209.59 97.4384 209.392 97.7661 209.103 97.9833C207.35 99.302 207.317 99.6258 207.303 99.764C207.24 100.348 208.076 101.509 208.446 101.845C208.479 101.876 208.523 101.892 208.571 101.892Z" fill="#1E1936"/>
<path d="M208.571 102.074C208.677 102.074 208.78 102.023 208.849 101.932C208.978 101.766 208.959 101.517 208.805 101.375C208.428 101.031 207.834 100.064 207.86 99.8272C207.889 99.7799 208.248 99.3613 209.421 98.4769C209.832 98.1689 210.11 97.707 210.209 97.1779L210.675 94.651C210.693 94.5483 210.675 94.4417 210.62 94.3549C210.565 94.268 210.484 94.2088 210.389 94.189C210.294 94.1693 210.198 94.189 210.114 94.2483C210.033 94.3075 209.978 94.3944 209.96 94.501L209.494 97.0279C209.436 97.3556 209.26 97.6438 209.007 97.8333C207.193 99.1995 207.16 99.539 207.138 99.7443C207.068 100.427 207.959 101.64 208.34 101.983C208.402 102.042 208.483 102.074 208.571 102.074ZM210.319 94.5483L210.341 94.5839L209.876 97.1108C209.795 97.5451 209.564 97.9281 209.227 98.1808C208.743 98.544 207.61 99.4285 207.526 99.7641C207.475 100.234 208.208 101.316 208.585 101.659C208.596 101.671 208.6 101.687 208.589 101.699L208.567 101.711C208.56 101.711 208.556 101.707 208.549 101.703C208.153 101.343 207.416 100.254 207.467 99.7838C207.5 99.4679 208.424 98.7138 209.194 98.1334C209.52 97.8886 209.744 97.5214 209.821 97.099L210.286 94.572L210.319 94.5483Z" fill="#1E1936"/>
<path d="M205.847 99.4562C207.504 99.4562 208.948 98.1295 209.168 96.3133C209.406 94.3392 208.112 92.5229 206.276 92.2663C204.443 92.0097 202.757 93.4034 202.519 95.3815C202.401 96.337 202.64 97.2846 203.186 98.0506C203.732 98.8165 204.52 99.3061 205.411 99.4285C205.557 99.4483 205.7 99.4562 205.847 99.4562ZM205.84 92.6572C205.968 92.6572 206.096 92.6651 206.225 92.6848C207.845 92.9138 208.988 94.5168 208.776 96.258C208.563 98.0032 207.075 99.2351 205.459 99.0061C204.674 98.8955 203.978 98.4651 203.494 97.79C203.01 97.1148 202.801 96.2778 202.904 95.4328C203.102 93.8259 204.377 92.6572 205.84 92.6572Z" fill="#1E1936"/>
<path d="M205.847 99.6376C207.61 99.6376 209.11 98.2162 209.337 96.3328C209.458 95.33 209.209 94.335 208.637 93.5295C208.061 92.7241 207.233 92.2108 206.302 92.0805C205.371 91.9502 204.447 92.2187 203.699 92.8346C202.952 93.4545 202.475 94.3468 202.354 95.3497C202.233 96.3526 202.482 97.3515 203.054 98.153C203.626 98.9585 204.458 99.4717 205.389 99.602C205.539 99.6257 205.693 99.6376 205.847 99.6376ZM205.84 92.4161C205.979 92.4161 206.119 92.424 206.258 92.4437C207.101 92.5622 207.849 93.0281 208.369 93.7546C208.89 94.4811 209.113 95.3813 209.003 96.2894C208.798 97.9911 207.442 99.2743 205.847 99.2743C205.708 99.2743 205.569 99.2664 205.433 99.2467C204.59 99.1282 203.839 98.6623 203.322 97.9359C202.805 97.2094 202.578 96.3091 202.688 95.401C202.798 94.4929 203.23 93.6875 203.905 93.1268C204.465 92.6609 205.144 92.4161 205.84 92.4161ZM205.847 99.2151C207.394 99.2151 208.743 97.9753 208.948 96.2815C209.055 95.3892 208.835 94.5048 208.325 93.7901C207.816 93.0755 207.079 92.6175 206.25 92.503C206.115 92.4832 205.979 92.4753 205.844 92.4753C204.278 92.4753 202.944 93.7388 202.743 95.4089C202.636 96.3012 202.856 97.1857 203.366 97.9003C203.875 98.615 204.612 99.073 205.44 99.1875C205.576 99.2072 205.712 99.2151 205.847 99.2151ZM205.84 92.8386C205.961 92.8386 206.082 92.8465 206.203 92.8623C206.94 92.9649 207.599 93.3755 208.054 94.0112C208.508 94.6469 208.706 95.4366 208.611 96.2341C208.413 97.8766 207.013 99.0414 205.481 98.8242C204.74 98.7216 204.084 98.3109 203.63 97.6753C203.175 97.0396 202.977 96.2499 203.076 95.4524C203.256 93.9638 204.447 92.8386 205.84 92.8386Z" fill="#1E1936"/>
<path d="M224.079 84.4244C224.079 84.4244 234.027 80.9933 235.72 92.6566C236.626 98.9029 228.924 109.168 227.106 110.156C226.322 110.582 226.523 109.5 225.842 106.756C225.416 105.046 224.892 99.4359 224.892 99.4359C224.892 99.4359 218.049 93.7937 224.079 84.4244Z" fill="#1E1936"/>
<path d="M226.828 110.424C226.96 110.424 227.085 110.365 227.18 110.314C229.105 109.271 236.802 98.9543 235.886 92.6251C235.365 89.0322 234.017 86.4895 231.872 85.0641C228.423 82.7701 224.072 84.231 224.028 84.2468L223.973 84.2665L223.94 84.3179C218.193 93.2529 224.072 98.9345 224.732 99.5268C224.798 100.226 225.278 105.181 225.681 106.8C225.894 107.66 226.018 108.343 226.117 108.892C226.279 109.781 226.359 110.231 226.645 110.381C226.704 110.412 226.766 110.424 226.828 110.424ZM227.25 84.1402C228.621 84.1402 230.245 84.4126 231.696 85.38C233.749 86.7461 235.047 89.2059 235.552 92.6844C236.428 98.7253 228.859 108.999 227.03 109.99C226.916 110.053 226.832 110.073 226.792 110.053C226.66 109.982 226.565 109.473 226.447 108.825C226.348 108.268 226.22 107.581 226.004 106.709C225.59 105.031 225.065 99.4755 225.058 99.4202L225.051 99.3412L224.992 99.2938C224.717 99.0688 218.376 93.6635 224.182 84.5824C224.45 84.4956 225.685 84.1402 227.25 84.1402Z" fill="#1E1936"/>
<path d="M223.523 98.8242C223.523 98.8242 228.659 95.2273 230.539 99.1914C232.713 103.771 227.464 106.914 225.011 105.418C222.559 103.918 223.523 98.8242 223.523 98.8242Z" fill="white"/>
<path d="M228.765 103.91C228.813 103.91 228.86 103.89 228.897 103.854C228.923 103.831 231.305 101.41 229.597 99.3769C228.212 97.7265 226.148 98.6306 226.13 98.6425C226.031 98.6859 225.983 98.8123 226.023 98.9189C226.064 99.0255 226.181 99.0768 226.28 99.0334C226.353 99.0018 228.109 98.2358 229.304 99.6611C230.752 101.387 228.714 103.459 228.626 103.546C228.545 103.625 228.542 103.759 228.615 103.846C228.659 103.89 228.714 103.91 228.765 103.91Z" fill="#1E1936"/>
<path d="M228.765 104.095C228.857 104.095 228.945 104.06 229.014 103.989C229.729 103.29 231.247 101.071 229.725 99.2547C228.252 97.4977 226.085 98.465 226.063 98.4729C225.88 98.5558 225.792 98.7888 225.869 98.9862C225.906 99.0849 225.979 99.1599 226.067 99.1994C226.159 99.2389 226.258 99.2389 226.346 99.1994C226.415 99.1678 228.065 98.4492 229.179 99.7838C230.513 101.375 228.596 103.329 228.512 103.412C228.365 103.558 228.354 103.807 228.494 103.969C228.567 104.048 228.662 104.095 228.765 104.095ZM227.453 98.5677C228.09 98.5677 228.857 98.7611 229.472 99.4955C231.063 101.395 228.805 103.693 228.783 103.716L228.765 103.724C228.758 103.724 228.75 103.72 228.747 103.716C228.736 103.704 228.739 103.685 228.747 103.677C228.838 103.586 230.99 101.395 229.436 99.535C228.16 98.0149 226.298 98.8243 226.221 98.8599L226.184 98.8441C226.181 98.8322 226.188 98.8125 226.199 98.8046C226.206 98.8046 226.753 98.5677 227.453 98.5677Z" fill="#1E1936"/>
<path d="M227.033 102.456C227.041 102.456 227.044 102.456 227.052 102.456L229.768 102.172C229.874 102.16 229.955 102.058 229.944 101.943C229.933 101.829 229.838 101.742 229.731 101.754L227.015 102.038C226.909 102.05 226.828 102.152 226.839 102.267C226.846 102.373 226.931 102.456 227.033 102.456Z" fill="#1E1936"/>
<path d="M227.034 102.638H227.063L229.787 102.354C229.886 102.342 229.97 102.295 230.032 102.212C230.095 102.129 230.124 102.03 230.113 101.924C230.095 101.706 229.915 101.545 229.713 101.568L226.997 101.853C226.796 101.872 226.649 102.066 226.667 102.283C226.689 102.488 226.843 102.638 227.034 102.638ZM229.75 101.931C229.765 101.931 229.776 101.943 229.776 101.959C229.776 101.975 229.765 101.991 229.75 101.991L227.034 102.275L227.03 102.457V102.275C227.019 102.275 227.005 102.267 227.005 102.247C227.005 102.232 227.016 102.216 227.03 102.216L229.75 101.931Z" fill="#1E1936"/>
<path d="M229.804 85.3329C229.804 85.3329 228.664 77.8667 224.929 77.3494C218.742 76.4966 216.396 71.802 213.911 70.7044C209.985 68.9751 203.123 82.1703 209.453 87.2597C215.743 92.3175 226.34 92.357 226.34 92.357L229.804 85.3329Z" fill="#1E1936"/>
<path d="M226.44 92.5385L229.98 85.3644L229.969 85.3051C229.922 84.9932 228.764 77.6967 224.948 77.1716C220.875 76.6109 218.511 74.3841 216.609 72.5916C215.652 71.6913 214.827 70.9135 213.973 70.5384C212.085 69.7053 209.838 71.9993 208.453 74.6407C206.312 78.7193 205.678 84.4562 209.351 87.4096C215.615 92.4437 226.231 92.5424 226.337 92.5424L226.44 92.5385ZM229.625 85.3051L226.234 92.1752C225.135 92.1515 215.395 91.8159 209.549 87.1174C206.041 84.2983 206.671 78.7667 208.742 74.8224C210.297 71.8611 212.393 70.2423 213.841 70.878C214.644 71.2333 215.45 71.9914 216.381 72.8679C218.317 74.6921 220.729 76.9584 224.9 77.5349C228.302 78.0008 229.508 84.6023 229.625 85.3051Z" fill="#1E1936"/>
<path d="M229.928 87.3026C229.928 87.3026 229.877 85.6009 234.598 84.6217C234.598 84.6217 233.169 82.0316 231.068 82.5686C231.068 82.5686 232.146 80.5313 229.034 79.1099C229.034 79.1099 229.4 82.0316 227.186 83.3425C224.973 84.6533 229.928 87.3026 229.928 87.3026Z" fill="#1E1936"/>
<path d="M230.106 87.6028L230.099 87.3028C230.099 87.2593 230.205 85.7195 234.633 84.8035L234.871 84.7561L234.746 84.535C234.688 84.4284 233.365 82.0712 231.341 82.3358C231.422 82.0436 231.484 81.5816 231.319 81.0526C231.055 80.2037 230.308 79.4969 229.105 78.9481L228.83 78.8218L228.871 79.1376C228.874 79.1653 229.193 81.9528 227.108 83.1886C226.664 83.4532 226.44 83.7927 226.451 84.1994C226.481 85.6287 229.512 87.2909 229.857 87.4765L230.106 87.6028ZM234.318 84.4955C230.784 85.2733 229.989 86.4894 229.809 87.0303C228.819 86.4697 226.803 85.1351 226.785 84.1796C226.781 83.9151 226.939 83.694 227.269 83.4966C229.124 82.3989 229.245 80.2076 229.223 79.3943C230.179 79.8799 230.773 80.4682 230.993 81.1513C231.224 81.8817 230.927 82.4661 230.923 82.474L230.736 82.8372L231.11 82.7425C232.716 82.3358 233.925 83.9033 234.318 84.4955Z" fill="#1E1936"/>
<path d="M228.559 108.035C228.6 108.035 228.636 108.024 228.673 107.996C230.04 106.961 231.858 104.691 233.302 102.204C235.029 99.2346 236.037 96.3445 236.14 94.0663C236.282 90.9155 235.047 88.7361 233.988 87.4608C232.841 86.0789 231.675 85.4511 231.627 85.4274C231.528 85.3761 231.411 85.4195 231.363 85.5221C231.316 85.6248 231.356 85.7551 231.451 85.8064C231.462 85.8143 232.61 86.4342 233.706 87.7569C235.168 89.5257 235.854 91.642 235.747 94.0466C235.516 99.1557 230.825 105.852 228.446 107.649C228.358 107.716 228.336 107.846 228.398 107.945C228.438 108.004 228.497 108.035 228.559 108.035Z" fill="#1E1936"/>
<path d="M228.559 108.217C228.636 108.217 228.705 108.194 228.768 108.146C230.15 107.1 231.986 104.806 233.445 102.299C235.19 99.302 236.205 96.3841 236.308 94.0744C236.451 90.8644 235.193 88.6375 234.116 87.3386C232.946 85.929 231.755 85.2894 231.704 85.2617C231.524 85.167 231.304 85.2459 231.216 85.4394C231.128 85.6329 231.202 85.8698 231.381 85.9685C231.392 85.9724 232.518 86.5884 233.584 87.8755C235.017 89.6049 235.688 91.6778 235.582 94.0349C235.355 99.0887 230.707 105.718 228.35 107.499C228.185 107.625 228.145 107.87 228.262 108.047C228.328 108.154 228.441 108.217 228.559 108.217ZM231.543 85.5855C231.546 85.5855 231.55 85.5855 231.554 85.5895C231.601 85.6131 232.737 86.2251 233.863 87.5834C234.9 88.835 236.11 90.971 235.97 94.0586C235.868 96.3052 234.871 99.1638 233.159 102.105C231.722 104.573 229.922 106.827 228.573 107.846L228.559 107.85C228.555 107.85 228.544 107.85 228.537 107.838C228.529 107.826 228.529 107.807 228.544 107.799C230.945 105.982 235.688 99.219 235.919 94.0546C236.029 91.5988 235.329 89.4391 233.837 87.6347C232.726 86.2922 231.583 85.6684 231.535 85.6408C231.521 85.6329 231.517 85.6171 231.521 85.6013C231.524 85.5934 231.532 85.5855 231.543 85.5855Z" fill="#1E1936"/>
<path d="M221.369 91.9543C222.267 91.9543 222.824 91.903 222.835 91.899C222.941 91.8872 223.022 91.7845 223.011 91.67C223 91.5555 222.904 91.4686 222.798 91.4805C222.776 91.4844 220.452 91.7055 217.593 91.2239C214.969 90.7816 211.347 89.6406 208.972 86.7149C207.08 84.3814 206.578 81.5584 207.484 78.3129C208.162 75.8807 209.415 74.1237 209.426 74.104C209.492 74.0132 209.478 73.8789 209.39 73.8078C209.305 73.7368 209.181 73.7526 209.115 73.8473C209.06 73.9223 207.806 75.6872 207.106 78.1944C206.175 81.5386 206.717 84.5788 208.675 86.9952C211.127 90.0196 214.851 91.1923 217.538 91.6463C219.045 91.8911 220.405 91.9543 221.369 91.9543Z" fill="#1E1936"/>
<path d="M221.368 92.1359C222.288 92.1359 222.845 92.0806 222.849 92.0806C222.944 92.0727 223.032 92.0214 223.094 91.9424C223.157 91.8635 223.186 91.7608 223.179 91.6542C223.16 91.437 222.981 91.2831 222.783 91.2988C222.761 91.3028 220.455 91.5199 217.622 91.0422C215.026 90.6039 211.442 89.4787 209.103 86.5924C207.252 84.3103 206.764 81.5426 207.648 78.3642C208.311 75.9873 209.55 74.2342 209.561 74.2145C209.62 74.1316 209.646 74.0289 209.635 73.9263C209.624 73.8236 209.572 73.7288 209.495 73.6657C209.338 73.5314 209.107 73.563 208.982 73.7367C208.927 73.8118 207.651 75.6003 206.944 78.1431C205.995 81.5465 206.552 84.6499 208.55 87.1136C211.035 90.1815 214.799 91.3699 217.515 91.824C219.07 92.0806 220.47 92.1359 221.368 92.1359ZM222.816 91.6581C222.83 91.6581 222.841 91.67 222.841 91.6858C222.841 91.7016 222.83 91.7174 222.816 91.7174C222.808 91.7174 222.255 91.7726 221.364 91.7726C220.477 91.7726 219.099 91.7174 217.567 91.4607C214.906 91.0146 211.222 89.8538 208.802 86.8688C206.885 84.5038 206.354 81.5189 207.267 78.2418C207.956 75.7662 209.195 74.0289 209.246 73.9539C209.257 73.942 209.272 73.9381 209.283 73.9499L209.286 73.9894C209.235 74.0644 207.996 75.8135 207.314 78.2576C206.394 81.5623 206.907 84.4485 208.839 86.8294C211.247 89.7985 214.909 90.9514 217.559 91.3976C220.455 91.8871 222.79 91.6621 222.816 91.6581Z" fill="#1E1936"/>
<path d="M228.453 82.6398C228.552 82.6398 228.636 82.5608 228.647 82.4503C228.651 82.4029 228.761 81.3092 228.369 80.0773C228.006 78.9323 227.13 77.4557 225.015 76.9345C221.628 76.1053 217.566 74.9287 216.203 73.1599C216.133 73.0691 216.008 73.0572 215.928 73.1323C215.844 73.2073 215.833 73.3415 215.902 73.4284C217.335 75.2801 221.272 76.4488 224.93 77.3412C226.481 77.7202 227.515 78.6796 227.995 80.1918C228.358 81.3369 228.259 82.3871 228.259 82.395C228.248 82.5095 228.325 82.6161 228.431 82.628C228.438 82.6398 228.446 82.6398 228.453 82.6398Z" fill="#1E1936"/>
<path d="M228.453 82.8256C228.64 82.8256 228.793 82.6755 228.815 82.4742C228.819 82.4268 228.929 81.2857 228.53 80.0223C228.152 78.8299 227.247 77.2979 225.055 76.761C221.693 75.9397 217.669 74.775 216.334 73.0495C216.272 72.9666 216.184 72.9192 216.085 72.9113C215.99 72.9034 215.895 72.935 215.818 73.0022C215.664 73.1403 215.642 73.3891 215.77 73.5549C217.236 75.4501 221.202 76.6267 224.89 77.5309C226.382 77.8941 227.371 78.8141 227.833 80.2631C228.181 81.3607 228.09 82.3794 228.086 82.3912C228.064 82.6084 228.211 82.8019 228.409 82.8256H228.453ZM216.202 73.168L216.074 73.2864C217.474 75.0948 221.569 76.2872 224.981 77.1202C227.019 77.6177 227.866 79.0391 228.214 80.1407C228.588 81.3292 228.489 82.3912 228.482 82.4347L228.456 82.4584C228.438 82.4544 228.427 82.4426 228.431 82.4268C228.431 82.4149 228.537 81.3252 228.159 80.1447C227.657 78.5693 226.583 77.5704 224.97 77.1755C221.338 76.2872 217.434 75.1342 216.034 73.322C216.023 73.3101 216.026 73.2904 216.037 73.2825L216.202 73.168Z" fill="#1E1936"/>
<path d="M210.195 104.648C211.023 104.648 211.734 104.285 211.775 104.261C211.874 104.21 211.914 104.084 211.866 103.977C211.819 103.871 211.701 103.827 211.602 103.878C211.588 103.886 210.286 104.55 209.278 104.009C209.183 103.957 209.062 103.997 209.014 104.104C208.967 104.206 209.003 104.336 209.102 104.388C209.462 104.581 209.839 104.648 210.195 104.648Z" fill="#1E1936"/>
<path d="M210.193 104.834C211.047 104.834 211.769 104.471 211.846 104.427C211.934 104.38 212 104.301 212.033 104.202C212.066 104.103 212.059 103.997 212.015 103.902C211.971 103.807 211.898 103.736 211.806 103.701C211.714 103.665 211.615 103.673 211.527 103.716C211.48 103.74 210.27 104.34 209.354 103.847C209.174 103.748 208.954 103.827 208.863 104.024C208.771 104.218 208.844 104.455 209.027 104.553C209.372 104.739 209.764 104.834 210.193 104.834ZM211.7 104.099C211.67 104.115 210.985 104.467 210.193 104.467C209.816 104.467 209.475 104.388 209.178 104.226C209.163 104.218 209.159 104.202 209.167 104.186C209.174 104.17 209.189 104.167 209.203 104.174C210.266 104.747 211.619 104.076 211.674 104.048L211.711 104.06L211.773 104.261L211.7 104.099Z" fill="#1E1936"/>
<path d="M210.636 119.387C210.574 122.459 212.575 125.151 215.379 125.716C216.091 125.858 218.796 125.945 219.734 125.945C222.974 125.945 223.433 125.317 224.957 124.283C226.427 123.284 227.175 121.29 227.175 119.419V114.373C227.175 114.373 237.182 112.999 244.212 120.939C251.243 128.879 249.091 131.117 249.091 131.117C249.091 131.117 240.059 137.214 224.459 131.856C224.459 131.856 209.885 139.429 206.113 131.303C202.341 123.177 210.688 116.986 210.688 116.986L210.636 119.387Z" fill="#FB975B"/>
<path d="M220.401 126.281C220.409 126.281 220.416 126.281 220.423 126.281C220.46 126.277 220.694 126.273 220.991 126.269C230.408 126.107 236.178 125.286 237.677 123.892C238.538 123.091 238.798 121.867 238.384 120.536C237.545 117.847 234.033 114.949 228.077 114.531C227.967 114.523 227.875 114.61 227.868 114.728C227.86 114.847 227.941 114.945 228.051 114.953C233.828 115.356 237.219 118.116 238.014 120.67C238.373 121.827 238.161 122.885 237.424 123.568C236.427 124.496 232.769 125.641 220.991 125.843C220.566 125.851 220.431 125.851 220.387 125.858C220.28 125.87 220.2 125.977 220.214 126.091C220.218 126.198 220.302 126.281 220.401 126.281Z" fill="#1E1936"/>
<path d="M220.4 126.462L220.437 126.458C220.477 126.455 220.69 126.451 220.965 126.447C227.584 126.332 235.85 125.823 237.782 124.026C238.698 123.173 238.973 121.878 238.537 120.477C237.683 117.729 234.116 114.771 228.079 114.349C227.984 114.345 227.889 114.377 227.815 114.444C227.742 114.511 227.698 114.61 227.691 114.716C227.683 114.819 227.716 114.921 227.782 115C227.848 115.079 227.936 115.127 228.032 115.135C233.732 115.533 237.067 118.23 237.844 120.729C238.181 121.815 237.984 122.798 237.302 123.434C236.327 124.342 232.702 125.463 220.976 125.665C220.51 125.673 220.404 125.677 220.356 125.681C220.261 125.692 220.173 125.744 220.11 125.827C220.048 125.91 220.023 126.012 220.034 126.115C220.056 126.312 220.213 126.462 220.4 126.462ZM228.061 114.712C233.94 115.123 237.401 117.962 238.222 120.591C238.614 121.847 238.372 123 237.566 123.75C236.543 124.701 232.833 125.882 220.99 126.083C220.671 126.087 220.448 126.091 220.407 126.095L220.4 126.277V126.095C220.389 126.095 220.374 126.087 220.374 126.068L220.4 126.036C220.437 126.032 220.62 126.028 220.99 126.02C230.352 125.862 236.074 125.061 237.533 123.703C238.324 122.968 238.555 121.839 238.174 120.607C237.36 117.993 233.918 115.174 228.061 114.767C228.05 114.767 228.035 114.752 228.035 114.736L228.061 114.712Z" fill="#1E1936"/>
<path d="M214.64 125.855C214.743 125.855 214.831 125.768 214.834 125.653C214.838 125.535 214.757 125.436 214.647 125.432C214.611 125.432 210.854 125.211 209.398 122.941C208.742 121.914 208.643 120.611 209.112 119.059C209.145 118.949 209.09 118.831 208.988 118.795C208.885 118.759 208.775 118.819 208.742 118.929C208.236 120.611 208.35 122.04 209.079 123.182C210.648 125.626 214.471 125.847 214.633 125.855C214.636 125.855 214.64 125.855 214.64 125.855Z" fill="#1E1936"/>
<path d="M214.641 126.036C214.835 126.036 214.997 125.87 215.008 125.661C215.011 125.554 214.978 125.456 214.912 125.377C214.846 125.298 214.758 125.254 214.659 125.25C214.623 125.25 210.946 125.029 209.539 122.834C208.912 121.859 208.824 120.607 209.275 119.115C209.304 119.016 209.297 118.909 209.253 118.814C209.209 118.72 209.132 118.653 209.04 118.621C208.948 118.589 208.849 118.597 208.762 118.645C208.674 118.692 208.611 118.775 208.578 118.874C208.054 120.611 208.175 122.096 208.937 123.284C210.554 125.803 214.458 126.028 214.623 126.036H214.641ZM208.937 118.965L208.956 119C208.472 120.607 208.575 121.965 209.264 123.039C210.77 125.388 214.608 125.61 214.645 125.61C214.659 125.61 214.67 125.625 214.67 125.641C214.67 125.657 214.659 125.669 214.645 125.669C214.487 125.661 210.745 125.448 209.22 123.075C208.52 121.985 208.413 120.607 208.904 118.984L208.937 118.965Z" fill="#1E1936"/>
<path d="M219.737 132.282C220.507 132.282 221.133 131.607 221.133 130.778C221.133 129.949 220.507 129.273 219.737 129.273C218.967 129.273 218.34 129.949 218.34 130.778C218.344 131.607 218.967 132.282 219.737 132.282ZM219.737 129.696C220.29 129.696 220.741 130.182 220.741 130.778C220.741 131.374 220.29 131.86 219.737 131.86C219.183 131.86 218.732 131.374 218.732 130.778C218.736 130.182 219.183 129.696 219.737 129.696Z" fill="#1E1936"/>
<path d="M219.736 132.464C220.601 132.464 221.301 131.706 221.301 130.778C221.301 129.85 220.597 129.092 219.736 129.092C218.875 129.092 218.171 129.85 218.171 130.778C218.171 131.706 218.875 132.464 219.736 132.464ZM219.736 129.455C220.414 129.455 220.964 130.047 220.964 130.778C220.964 131.508 220.414 132.1 219.736 132.1C219.058 132.1 218.508 131.508 218.508 130.778C218.512 130.047 219.062 129.455 219.736 129.455ZM219.736 132.041C220.385 132.041 220.909 131.473 220.909 130.778C220.909 130.083 220.381 129.514 219.736 129.514C219.091 129.514 218.563 130.083 218.563 130.778C218.563 131.473 219.091 132.041 219.736 132.041ZM219.736 129.878C220.198 129.878 220.572 130.28 220.572 130.778C220.572 131.275 220.198 131.678 219.736 131.678C219.274 131.678 218.9 131.275 218.9 130.778C218.904 130.28 219.278 129.878 219.736 129.878Z" fill="#1E1936"/>
<path d="M219.738 159.738C219.848 159.738 219.936 159.644 219.936 159.525V132.069C219.936 131.95 219.848 131.855 219.738 131.855C219.628 131.855 219.54 131.95 219.54 132.069V159.525C219.543 159.644 219.631 159.738 219.738 159.738Z" fill="#1E1936"/>
<path d="M219.737 159.92C219.939 159.92 220.104 159.742 220.104 159.525V132.069C220.104 131.852 219.939 131.674 219.737 131.674C219.535 131.674 219.37 131.852 219.37 132.069V159.525C219.374 159.742 219.535 159.92 219.737 159.92ZM219.737 132.041C219.752 132.041 219.763 132.053 219.763 132.069V159.525C219.763 159.557 219.708 159.557 219.708 159.525V132.069C219.711 132.053 219.722 132.041 219.737 132.041Z" fill="#1E1936"/>
<path d="M218.012 164.828H221.465C221.524 164.828 221.575 164.8 221.615 164.753C221.652 164.706 221.67 164.646 221.659 164.583L221.135 160.734C221.033 159.991 220.435 159.435 219.739 159.435C219.042 159.435 218.441 159.995 218.342 160.734L217.818 164.583C217.811 164.642 217.825 164.706 217.862 164.753C217.902 164.8 217.957 164.828 218.012 164.828ZM221.242 164.405H218.243L218.734 160.797C218.808 160.26 219.24 159.857 219.742 159.857C220.245 159.857 220.677 160.26 220.75 160.797L221.242 164.405Z" fill="#1E1936"/>
<path d="M218.012 165.01H221.465C221.571 165.01 221.67 164.958 221.74 164.875C221.809 164.788 221.839 164.674 221.824 164.559L221.3 160.71C221.186 159.881 220.515 159.253 219.735 159.253C218.954 159.253 218.283 159.881 218.169 160.71L217.645 164.559C217.631 164.674 217.66 164.788 217.73 164.875C217.807 164.958 217.906 165.01 218.012 165.01ZM219.738 159.616C220.35 159.616 220.878 160.11 220.966 160.761L221.49 164.611L221.465 164.642H218.012C218.004 164.642 217.997 164.638 217.99 164.631L218.507 160.757C218.598 160.11 219.126 159.616 219.738 159.616ZM218.045 164.587H221.435L220.915 160.769C220.831 160.145 220.325 159.675 219.738 159.675C219.152 159.675 218.646 160.145 218.562 160.769L218.045 164.587ZM221.043 164.22H218.433L218.895 160.82C218.958 160.374 219.317 160.039 219.735 160.039C220.152 160.039 220.515 160.374 220.578 160.82L221.043 164.22Z" fill="#1E1936"/>
<path d="M221.465 164.828C221.509 164.828 221.553 164.812 221.59 164.781C221.674 164.706 221.688 164.575 221.619 164.484C221.168 163.884 220.501 163.533 219.782 163.517C219.068 163.501 218.386 163.829 217.917 164.409L217.862 164.477C217.792 164.563 217.799 164.698 217.88 164.777C217.961 164.852 218.085 164.844 218.159 164.757L218.214 164.69C218.606 164.204 219.178 163.932 219.775 163.94C220.376 163.951 220.933 164.248 221.311 164.749C221.351 164.8 221.406 164.828 221.465 164.828Z" fill="#1E1936"/>
<path d="M221.466 165.01C221.55 165.01 221.631 164.978 221.697 164.923C221.774 164.856 221.821 164.761 221.829 164.658C221.84 164.552 221.81 164.449 221.748 164.37C221.268 163.726 220.55 163.351 219.783 163.335C219.769 163.335 219.75 163.335 219.736 163.335C218.988 163.335 218.277 163.683 217.786 164.291L217.731 164.358C217.599 164.524 217.613 164.773 217.767 164.915C217.918 165.057 218.152 165.041 218.284 164.875L218.339 164.808C218.698 164.362 219.215 164.101 219.772 164.121C220.322 164.133 220.835 164.401 221.18 164.863C221.25 164.954 221.352 165.01 221.466 165.01ZM219.739 163.699C219.754 163.699 219.765 163.699 219.78 163.699C220.447 163.711 221.066 164.038 221.488 164.595L221.466 164.642C221.462 164.642 221.451 164.642 221.444 164.63C221.037 164.086 220.429 163.766 219.78 163.754C219.142 163.754 218.511 164.038 218.086 164.563L218.031 164.63C218.02 164.642 218.006 164.642 217.995 164.634C217.984 164.623 217.984 164.607 217.991 164.595L218.046 164.528C218.471 163.999 219.087 163.699 219.739 163.699Z" fill="#1E1936"/>
<path d="M213.653 132.128C214.423 132.128 215.05 131.453 215.05 130.624C215.05 129.795 214.423 129.12 213.653 129.12C212.883 129.12 212.257 129.795 212.257 130.624C212.257 131.453 212.883 132.128 213.653 132.128ZM213.653 129.542C214.207 129.542 214.658 130.028 214.658 130.624C214.658 131.22 214.207 131.706 213.653 131.706C213.1 131.706 212.649 131.22 212.649 130.624C212.649 130.028 213.1 129.542 213.653 129.542Z" fill="#1E1936"/>
<path d="M213.653 132.31C214.514 132.31 215.218 131.552 215.218 130.624C215.218 129.696 214.514 128.938 213.653 128.938C212.788 128.938 212.087 129.696 212.087 130.624C212.087 131.552 212.788 132.31 213.653 132.31ZM213.653 129.301C214.331 129.301 214.881 129.893 214.881 130.624C214.881 131.354 214.331 131.947 213.653 131.947C212.974 131.947 212.425 131.354 212.425 130.624C212.425 129.893 212.974 129.301 213.653 129.301ZM213.653 131.887C214.298 131.887 214.826 131.319 214.826 130.624C214.826 129.929 214.298 129.36 213.653 129.36C213.007 129.36 212.48 129.929 212.48 130.624C212.48 131.319 213.004 131.887 213.653 131.887ZM213.653 129.724C214.114 129.724 214.488 130.126 214.488 130.624C214.488 131.121 214.114 131.524 213.653 131.524C213.191 131.524 212.817 131.121 212.817 130.624C212.817 130.126 213.191 129.724 213.653 129.724Z" fill="#1E1936"/>
<path d="M213.656 159.585C213.766 159.585 213.854 159.49 213.854 159.371V131.915C213.854 131.796 213.766 131.702 213.656 131.702C213.546 131.702 213.458 131.796 213.458 131.915V159.371C213.458 159.49 213.546 159.585 213.656 159.585Z" fill="#1E1936"/>
<path d="M213.655 159.766C213.857 159.766 214.022 159.589 214.022 159.371V131.915C214.022 131.698 213.857 131.52 213.655 131.52C213.454 131.52 213.289 131.698 213.289 131.915V159.371C213.289 159.589 213.454 159.766 213.655 159.766ZM213.655 131.887C213.67 131.887 213.681 131.899 213.681 131.915V159.371C213.681 159.403 213.626 159.403 213.626 159.371V131.915C213.63 131.899 213.641 131.887 213.655 131.887Z" fill="#1E1936"/>
<path d="M211.929 164.674H215.382C215.441 164.674 215.492 164.647 215.532 164.599C215.569 164.552 215.587 164.493 215.576 164.429L215.052 160.58C214.95 159.837 214.352 159.281 213.656 159.281C212.959 159.281 212.358 159.841 212.259 160.58L211.735 164.429C211.728 164.489 211.742 164.552 211.779 164.599C211.816 164.647 211.871 164.674 211.929 164.674ZM215.155 164.252H212.156L212.648 160.643C212.721 160.106 213.154 159.703 213.656 159.703C214.158 159.703 214.59 160.106 214.664 160.643L215.155 164.252Z" fill="#1E1936"/>
<path d="M211.929 164.856H215.382C215.489 164.856 215.587 164.804 215.657 164.722C215.727 164.635 215.756 164.52 215.741 164.406L215.217 160.556C215.104 159.727 214.433 159.099 213.652 159.099C212.871 159.099 212.201 159.727 212.087 160.556L211.563 164.406C211.548 164.52 211.577 164.635 211.647 164.722C211.72 164.804 211.823 164.856 211.929 164.856ZM213.656 159.462C214.268 159.462 214.796 159.956 214.884 160.607L215.408 164.457L215.382 164.489H211.929C211.922 164.489 211.915 164.485 211.907 164.477L212.424 160.603C212.516 159.956 213.044 159.462 213.656 159.462ZM211.959 164.433H215.349L214.829 160.615C214.744 159.991 214.239 159.522 213.652 159.522C213.066 159.522 212.56 159.991 212.475 160.615L211.959 164.433ZM214.961 164.066H212.351L212.813 160.667C212.875 160.22 213.234 159.885 213.656 159.885C214.077 159.885 214.437 160.22 214.499 160.667L214.961 164.066Z" fill="#1E1936"/>
<path d="M215.381 164.674C215.425 164.674 215.469 164.658 215.506 164.626C215.59 164.551 215.605 164.421 215.535 164.33C215.084 163.73 214.417 163.379 213.699 163.363C212.984 163.347 212.302 163.675 211.833 164.255L211.778 164.322C211.709 164.409 211.716 164.543 211.797 164.622C211.877 164.697 212.002 164.689 212.075 164.603L212.13 164.536C212.522 164.05 213.094 163.777 213.692 163.785C214.293 163.797 214.85 164.093 215.227 164.595C215.268 164.646 215.326 164.674 215.381 164.674Z" fill="#1E1936"/>
<path d="M215.381 164.856C215.466 164.856 215.546 164.824 215.612 164.769C215.77 164.63 215.792 164.382 215.667 164.216C215.187 163.576 214.469 163.197 213.703 163.181C212.94 163.162 212.207 163.513 211.705 164.137L211.65 164.204C211.518 164.37 211.533 164.619 211.686 164.761C211.76 164.832 211.851 164.867 211.954 164.856C212.053 164.848 212.141 164.8 212.203 164.721L212.258 164.654C212.618 164.208 213.145 163.947 213.692 163.967C214.241 163.979 214.755 164.248 215.099 164.709C215.169 164.8 215.271 164.856 215.381 164.856ZM213.659 163.604C213.021 163.604 212.42 163.9 212.002 164.417L211.947 164.484L211.796 164.627L211.906 164.488C211.895 164.476 211.895 164.461 211.903 164.445L211.958 164.378C212.394 163.837 213.024 163.521 213.695 163.549C214.362 163.56 214.982 163.888 215.4 164.445C215.411 164.457 215.407 164.477 215.396 164.484L215.378 164.492C215.374 164.492 215.363 164.492 215.356 164.48C214.949 163.936 214.34 163.616 213.692 163.604C213.684 163.604 213.67 163.604 213.659 163.604Z" fill="#1E1936"/>
<path fill-rule="evenodd" clip-rule="evenodd" d="M227.913 185.505C227.913 185.505 220.454 185.877 218.313 187.997C216.979 189.319 216.143 190.532 215.703 191.262C215.469 191.649 215.656 192.166 216.07 192.277C217.093 192.553 218.595 192.545 221.312 190.492L232.286 192.983L227.913 185.505Z" fill="white"/>
<path fill-rule="evenodd" clip-rule="evenodd" d="M245.89 175.07L238.603 176.179L223.713 176.981C223.713 176.981 223.427 192.525 232.686 192.987C241.946 193.449 249.317 187.353 249.317 187.353L245.89 175.07Z" fill="white"/>
<path fill-rule="evenodd" clip-rule="evenodd" d="M226.199 177.009C226.199 177.009 218.226 176.732 217.196 177.009C216.166 177.285 208.366 180.519 208.11 181.162C207.853 181.81 208.366 183.563 212.226 183.01C216.082 182.457 219.685 181.162 219.685 181.162L229.117 182.915L226.199 177.009Z" fill="white"/>
<path fill-rule="evenodd" clip-rule="evenodd" d="M226.543 179.871C226.287 179.871 217.541 180.242 216.342 180.519C215.144 180.795 208.542 185.967 208.198 186.52C207.853 187.073 208.113 188.735 210.771 188.368C213.428 187.997 218.915 184.767 218.915 184.767L228.431 184.214L226.543 179.871Z" fill="white"/>
<path d="M208.713 186.086C208.75 186.086 208.79 186.074 208.823 186.05C208.885 186.007 214.915 181.521 215.758 180.98C216.356 180.594 220.234 180.29 222.693 180.179C222.803 180.175 222.888 180.076 222.88 179.958C222.877 179.839 222.785 179.753 222.675 179.756C222.037 179.784 216.429 180.053 215.553 180.617C214.699 181.17 208.849 185.517 208.6 185.703C208.512 185.77 208.49 185.9 208.548 185.995C208.592 186.054 208.651 186.086 208.713 186.086Z" fill="#1E1936"/>
<path d="M208.712 186.267C208.785 186.267 208.859 186.244 208.917 186.196C209.566 185.715 215.053 181.64 215.841 181.131C216.347 180.803 219.753 180.487 222.7 180.357C222.901 180.349 223.059 180.163 223.052 179.946C223.044 179.729 222.872 179.559 222.67 179.567C221.622 179.615 216.355 179.879 215.468 180.456C214.665 180.977 209.54 184.779 208.521 185.537C208.426 185.608 208.371 185.699 208.353 185.802C208.334 185.904 208.356 186.011 208.411 186.098C208.481 186.204 208.595 186.267 208.712 186.267ZM222.685 179.934C222.7 179.934 222.711 179.946 222.711 179.962C222.711 179.978 222.7 179.994 222.685 179.994C220.552 180.088 216.34 180.384 215.669 180.819C214.888 181.324 209.768 185.122 208.752 185.877L208.712 185.9C208.708 185.9 208.697 185.9 208.69 185.888C208.683 185.877 208.686 185.857 208.697 185.849C209.335 185.375 214.83 181.293 215.644 180.767C216.322 180.333 220.39 180.041 222.685 179.934Z" fill="#1E1936"/>
<path fill-rule="evenodd" clip-rule="evenodd" d="M226.629 183.104C226.629 183.104 218.997 183.566 217.285 184.305C215.574 185.043 211.97 189.568 211.798 190.121C211.626 190.673 213.426 191.783 215.742 190.673C218.055 189.564 221.141 187.073 221.141 187.073L229.458 186.701L226.629 183.104Z" fill="white"/>
<path d="M212.052 189.687C212.103 189.687 212.154 189.667 212.191 189.624C212.228 189.58 216.043 185.387 217.037 184.763C217.825 184.27 221.82 183.539 223.825 183.219C223.932 183.204 224.005 183.093 223.99 182.979C223.976 182.864 223.873 182.785 223.767 182.801C223.528 182.84 217.887 183.737 216.839 184.396C215.798 185.047 212.07 189.15 211.912 189.323C211.835 189.406 211.839 189.541 211.916 189.624C211.953 189.667 212.004 189.687 212.052 189.687Z" fill="#1E1936"/>
<path d="M212.053 189.868C212.152 189.868 212.244 189.825 212.314 189.75C212.471 189.576 216.17 185.521 217.123 184.921C217.834 184.475 221.536 183.768 223.849 183.401C223.944 183.385 224.032 183.33 224.087 183.247C224.142 183.164 224.172 183.057 224.157 182.955C224.142 182.852 224.091 182.757 224.014 182.694C223.937 182.631 223.842 182.607 223.743 182.619C223.501 182.659 217.841 183.555 216.753 184.238C215.69 184.905 211.947 189.023 211.789 189.197C211.65 189.351 211.65 189.604 211.797 189.754C211.866 189.829 211.958 189.868 212.053 189.868ZM223.798 182.982C223.809 182.982 223.823 182.994 223.827 183.006C223.831 183.018 223.816 183.038 223.805 183.038C223.567 183.077 217.97 183.969 216.958 184.605C215.983 185.217 212.475 189.055 212.079 189.493L212.057 189.505C212.053 189.505 212.046 189.505 212.039 189.497C212.028 189.485 212.028 189.466 212.039 189.454C213.373 187.985 216.111 185.071 216.932 184.554C217.959 183.91 223.735 182.994 223.798 182.982Z" fill="#1E1936"/>
<path d="M216.084 190.887C216.139 190.887 216.19 190.863 216.23 190.816L218.268 188.368C218.855 187.665 219.658 187.235 220.534 187.16L225.365 186.548C225.471 186.536 225.548 186.429 225.537 186.315C225.526 186.2 225.427 186.117 225.321 186.129L220.497 186.741C219.529 186.824 218.631 187.306 217.979 188.091L215.941 190.539C215.867 190.626 215.875 190.76 215.955 190.839C215.988 190.871 216.036 190.887 216.084 190.887Z" fill="#1E1936"/>
<path d="M216.084 191.068C216.187 191.068 216.286 191.021 216.356 190.938L218.394 188.49C218.951 187.823 219.717 187.412 220.549 187.341L225.384 186.729C225.585 186.702 225.728 186.508 225.703 186.291C225.692 186.184 225.644 186.093 225.567 186.026C225.49 185.963 225.395 185.932 225.299 185.947L220.476 186.559C219.468 186.646 218.533 187.148 217.851 187.969L215.813 190.417C215.747 190.496 215.714 190.595 215.721 190.701C215.725 190.808 215.769 190.903 215.842 190.974C215.905 191.033 215.993 191.068 216.084 191.068ZM225.34 186.307L225.369 186.33C225.369 186.346 225.362 186.362 225.343 186.362L220.512 186.974C219.6 187.053 218.756 187.507 218.141 188.245L216.081 190.701C216.073 190.701 216.066 190.697 216.062 190.693L216.059 190.654L218.097 188.206C218.72 187.456 219.578 186.998 220.505 186.919L225.34 186.307Z" fill="#1E1936"/>
<path d="M229.801 174.608L240.259 200.094L248.781 200.138L276.177 200.28C276.177 200.28 289.479 197.323 281.063 173.779C262.12 120.773 243.261 122.988 243.261 122.988L232.374 129.913L252.571 174.608H229.801Z" fill="#FB975B"/>
<path d="M248.233 199.293C248.259 199.293 248.288 199.285 248.314 199.273C248.413 199.226 248.457 199.1 248.413 198.993L238.296 174.983C238.252 174.877 238.135 174.829 238.036 174.877C237.937 174.924 237.893 175.05 237.937 175.157L248.053 199.167C248.086 199.246 248.16 199.293 248.233 199.293Z" fill="#1E1936"/>
<path d="M248.232 199.475C248.283 199.475 248.335 199.463 248.382 199.439C248.47 199.396 248.54 199.317 248.573 199.218C248.606 199.119 248.602 199.013 248.562 198.918L238.445 174.908C238.361 174.711 238.145 174.624 237.961 174.711C237.873 174.754 237.804 174.833 237.771 174.932C237.738 175.031 237.741 175.137 237.782 175.232L247.898 199.242C247.957 199.384 248.089 199.475 248.232 199.475ZM238.115 175.043C238.126 175.043 238.134 175.05 238.141 175.058L248.258 199.068C248.261 199.08 248.258 199.1 248.243 199.108L248.232 199.111C248.225 199.111 248.214 199.108 248.206 199.096L238.09 175.086C238.086 175.074 238.09 175.054 238.104 175.046C238.108 175.043 238.112 175.043 238.115 175.043Z" fill="#1E1936"/>
<path d="M229.887 174.912H258.313C258.423 174.912 258.511 174.818 258.511 174.699C258.511 174.581 258.423 174.486 258.313 174.486H229.887C229.777 174.486 229.689 174.581 229.689 174.699C229.689 174.818 229.777 174.912 229.887 174.912Z" fill="#1E1936"/>
<path d="M229.886 175.094H258.312C258.514 175.094 258.679 174.916 258.679 174.699C258.679 174.482 258.514 174.304 258.312 174.304H229.886C229.684 174.304 229.52 174.482 229.52 174.699C229.52 174.916 229.684 175.094 229.886 175.094ZM258.312 174.671C258.327 174.671 258.338 174.683 258.338 174.699C258.338 174.715 258.327 174.727 258.312 174.727H229.886C229.871 174.727 229.86 174.715 229.86 174.699C229.86 174.683 229.871 174.671 229.886 174.671H258.312Z" fill="#1E1936"/>
<path d="M233.148 179.714H238.635C238.745 179.714 238.833 179.619 238.833 179.5C238.833 179.382 238.745 179.287 238.635 179.287H233.148C233.038 179.287 232.95 179.382 232.95 179.5C232.95 179.619 233.038 179.714 233.148 179.714Z" fill="#1E1936"/>
<path d="M233.147 179.899H238.634C238.836 179.899 239.001 179.721 239.001 179.504C239.001 179.287 238.836 179.109 238.634 179.109H233.147C232.946 179.109 232.781 179.287 232.781 179.504C232.781 179.721 232.946 179.899 233.147 179.899ZM238.634 179.473C238.649 179.473 238.66 179.484 238.66 179.5C238.66 179.516 238.649 179.528 238.634 179.528H233.147C233.132 179.528 233.121 179.516 233.121 179.5C233.121 179.484 233.132 179.473 233.147 179.473H238.634Z" fill="#1E1936"/>
<path d="M234.774 183.962H240.262C240.371 183.962 240.459 183.867 240.459 183.749C240.459 183.63 240.371 183.536 240.262 183.536H234.774C234.664 183.536 234.576 183.63 234.576 183.749C234.58 183.867 234.668 183.962 234.774 183.962Z" fill="#1E1936"/>
<path d="M234.774 184.144H240.261C240.462 184.144 240.627 183.966 240.627 183.749C240.627 183.532 240.462 183.354 240.261 183.354H234.774C234.572 183.354 234.407 183.532 234.407 183.749C234.407 183.966 234.572 184.144 234.774 184.144ZM240.261 183.721C240.276 183.721 240.287 183.733 240.287 183.749C240.287 183.765 240.276 183.776 240.261 183.776H234.774C234.759 183.776 234.748 183.765 234.748 183.749C234.748 183.733 234.759 183.721 234.774 183.721H240.261Z" fill="#1E1936"/>
<path d="M236.745 188.301H242.232C242.342 188.301 242.43 188.206 242.43 188.088C242.43 187.969 242.342 187.875 242.232 187.875H236.745C236.635 187.875 236.547 187.969 236.547 188.088C236.551 188.206 236.635 188.301 236.745 188.301Z" fill="#1E1936"/>
<path d="M236.745 188.486H242.232C242.434 188.486 242.599 188.309 242.599 188.092C242.599 187.874 242.434 187.697 242.232 187.697H236.745C236.543 187.697 236.378 187.874 236.378 188.092C236.378 188.309 236.543 188.486 236.745 188.486ZM242.232 188.064C242.247 188.064 242.258 188.076 242.258 188.092C242.258 188.107 242.247 188.119 242.232 188.119H236.745C236.73 188.119 236.719 188.107 236.719 188.092C236.719 188.076 236.73 188.064 236.745 188.064H242.232Z" fill="#1E1936"/>
<path d="M238.543 192.644H244.03C244.14 192.644 244.228 192.549 244.228 192.431C244.228 192.313 244.14 192.218 244.03 192.218H238.543C238.433 192.218 238.345 192.313 238.345 192.431C238.345 192.549 238.437 192.644 238.543 192.644Z" fill="#1E1936"/>
<path d="M238.542 192.826H244.029C244.231 192.826 244.396 192.648 244.396 192.431C244.396 192.214 244.231 192.036 244.029 192.036H238.542C238.341 192.036 238.176 192.214 238.176 192.431C238.176 192.648 238.341 192.826 238.542 192.826ZM244.029 192.403C244.044 192.403 244.055 192.415 244.055 192.431C244.055 192.447 244.044 192.459 244.029 192.459H238.542C238.528 192.459 238.517 192.447 238.517 192.431C238.517 192.415 238.528 192.403 238.542 192.403H244.029Z" fill="#1E1936"/>
<path d="M240.433 196.984H245.92C246.03 196.984 246.118 196.889 246.118 196.77C246.118 196.652 246.03 196.557 245.92 196.557H240.433C240.323 196.557 240.235 196.652 240.235 196.77C240.235 196.889 240.323 196.984 240.433 196.984Z" fill="#1E1936"/>
<path d="M240.432 197.165H245.92C246.121 197.165 246.286 196.987 246.286 196.77C246.286 196.553 246.121 196.375 245.92 196.375H240.432C240.231 196.375 240.066 196.553 240.066 196.77C240.066 196.987 240.231 197.165 240.432 197.165ZM245.92 196.743C245.934 196.743 245.945 196.755 245.945 196.77C245.945 196.786 245.934 196.798 245.92 196.798H240.432C240.418 196.798 240.407 196.786 240.407 196.77C240.407 196.755 240.418 196.743 240.432 196.743H245.92Z" fill="#1E1936"/>
<path d="M252.566 174.821C252.596 174.821 252.625 174.813 252.651 174.802C252.75 174.75 252.79 174.624 252.742 174.521L241.207 148.758C241.159 148.652 241.042 148.608 240.947 148.66C240.848 148.711 240.807 148.837 240.855 148.94L252.39 174.703C252.423 174.778 252.493 174.821 252.566 174.821Z" fill="#1E1936"/>
<path d="M252.568 175.003C252.623 175.003 252.678 174.991 252.725 174.963C252.813 174.916 252.879 174.837 252.912 174.738C252.945 174.64 252.938 174.533 252.898 174.438L241.362 148.675C241.274 148.478 241.058 148.395 240.875 148.49C240.692 148.585 240.618 148.822 240.703 149.015L252.238 174.778C252.3 174.916 252.428 175.003 252.568 175.003ZM241.029 148.818C241.04 148.818 241.047 148.825 241.054 148.833L252.59 174.596C252.597 174.608 252.59 174.628 252.579 174.636L252.568 174.64C252.56 174.64 252.549 174.636 252.542 174.624L241.007 148.861C240.999 148.845 241.007 148.829 241.018 148.822C241.021 148.818 241.025 148.818 241.029 148.818Z" fill="#1E1936"/>
<path d="M238.907 198.882H244.05C244.16 198.882 244.248 198.788 244.248 198.669V195.443C244.248 194.729 243.709 194.148 243.046 194.148H239.915C239.252 194.148 238.713 194.729 238.713 195.443V198.669C238.709 198.788 238.797 198.882 238.907 198.882ZM243.852 198.46H239.102V195.447C239.102 194.966 239.465 194.575 239.912 194.575H243.042C243.489 194.575 243.852 194.966 243.852 195.447V198.46Z" fill="#1E1936"/>
<path d="M238.907 199.064H244.049C244.251 199.064 244.416 198.886 244.416 198.669V195.443C244.416 194.63 243.8 193.967 243.045 193.967H239.915C239.16 193.967 238.544 194.63 238.544 195.443V198.669C238.54 198.886 238.705 199.064 238.907 199.064ZM243.041 194.334C243.61 194.334 244.075 194.831 244.075 195.447V198.673C244.075 198.689 244.064 198.701 244.049 198.701H238.907C238.892 198.701 238.881 198.689 238.881 198.673V195.447C238.881 194.835 239.343 194.334 239.915 194.334H243.041ZM238.932 198.642H244.024V195.443C244.024 194.863 243.584 194.389 243.045 194.389H239.915C239.376 194.389 238.936 194.863 238.936 195.443V198.642H238.932ZM243.683 198.278H239.27V195.447C239.27 195.068 239.556 194.756 239.911 194.756H243.041C243.393 194.756 243.683 195.064 243.683 195.447V198.278Z" fill="#1E1936"/>
<path d="M230.01 198.882H235.153C235.263 198.882 235.351 198.788 235.351 198.669V195.443C235.351 194.729 234.812 194.148 234.148 194.148H231.018C230.354 194.148 229.816 194.729 229.816 195.443V198.669C229.816 198.788 229.904 198.882 230.01 198.882ZM234.958 198.46H230.208V195.447C230.208 194.966 230.571 194.575 231.018 194.575H234.148C234.595 194.575 234.958 194.966 234.958 195.447V198.46Z" fill="#1E1936"/>
<path d="M230.009 199.064H235.152C235.354 199.064 235.519 198.886 235.519 198.669V195.443C235.519 194.63 234.903 193.967 234.148 193.967H231.017C230.262 193.967 229.646 194.63 229.646 195.443V198.669C229.646 198.886 229.808 199.064 230.009 199.064ZM234.148 194.334C234.716 194.334 235.181 194.831 235.181 195.447V198.673C235.181 198.689 235.17 198.701 235.156 198.701H230.013C229.998 198.701 229.987 198.689 229.987 198.673V195.447C229.987 194.835 230.449 194.334 231.021 194.334H234.148ZM230.039 198.642H235.13V195.443C235.13 194.863 234.69 194.389 234.151 194.389H231.021C230.482 194.389 230.042 194.863 230.042 195.443V198.642H230.039ZM234.789 198.278H230.376V195.447C230.376 195.068 230.662 194.756 231.017 194.756H234.148C234.5 194.756 234.789 195.064 234.789 195.447V198.278Z" fill="#1E1936"/>
<path d="M221.113 198.882H226.256C226.366 198.882 226.454 198.788 226.454 198.669V195.443C226.454 194.729 225.915 194.148 225.252 194.148H222.121C221.458 194.148 220.919 194.729 220.919 195.443V198.669C220.919 198.788 221.007 198.882 221.113 198.882ZM226.062 198.46H221.311V195.447C221.311 194.966 221.674 194.575 222.121 194.575H225.252C225.699 194.575 226.062 194.966 226.062 195.447V198.46Z" fill="#1E1936"/>
<path d="M221.112 199.064H226.255C226.457 199.064 226.622 198.886 226.622 198.669V195.443C226.622 194.63 226.006 193.967 225.251 193.967H222.12C221.365 193.967 220.749 194.63 220.749 195.443V198.669C220.749 198.886 220.911 199.064 221.112 199.064ZM225.251 194.334C225.819 194.334 226.284 194.831 226.284 195.447V198.673C226.284 198.689 226.273 198.701 226.259 198.701H221.116C221.101 198.701 221.09 198.689 221.09 198.673V195.447C221.09 194.835 221.552 194.334 222.124 194.334H225.251ZM221.142 198.642H226.233V195.443C226.233 194.863 225.793 194.389 225.254 194.389H222.124C221.585 194.389 221.145 194.863 221.145 195.443V198.642H221.142ZM225.892 198.278H221.479V195.447C221.479 195.068 221.765 194.756 222.12 194.756H225.251C225.603 194.756 225.892 195.064 225.892 195.447V198.278Z" fill="#1E1936"/>
<path d="M212.216 198.882H217.358C217.468 198.882 217.556 198.788 217.556 198.669V195.443C217.556 194.729 217.017 194.148 216.354 194.148H213.224C212.56 194.148 212.021 194.729 212.021 195.443V198.669C212.021 198.788 212.109 198.882 212.216 198.882ZM217.164 198.46H212.413V195.447C212.413 194.966 212.776 194.575 213.224 194.575H216.354C216.801 194.575 217.164 194.966 217.164 195.447V198.46Z" fill="#1E1936"/>
<path d="M212.215 199.064H217.358C217.559 199.064 217.724 198.886 217.724 198.669V195.443C217.724 194.63 217.108 193.967 216.353 193.967H213.223C212.468 193.967 211.852 194.63 211.852 195.443V198.669C211.848 198.886 212.013 199.064 212.215 199.064ZM216.353 194.334C216.921 194.334 217.387 194.831 217.387 195.447V198.673C217.387 198.689 217.376 198.701 217.361 198.701H212.219C212.204 198.701 212.193 198.689 212.193 198.673V195.447C212.193 194.835 212.655 194.334 213.227 194.334H216.353ZM212.244 198.642H217.336V195.443C217.336 194.863 216.896 194.389 216.357 194.389H213.227C212.688 194.389 212.248 194.863 212.248 195.443V198.642H212.244ZM216.995 198.278H212.581V195.447C212.581 195.068 212.867 194.756 213.223 194.756H216.353C216.705 194.756 216.995 195.064 216.995 195.447V198.278Z" fill="#1E1936"/>
<path d="M148.834 200.3H211.107C207.405 200.3 208.149 199.092 207.724 198.002L191.416 156.253C191.178 155.637 190.617 155.238 189.998 155.238H127.724C126.625 155.238 125.881 156.446 126.306 157.536L142.614 199.285C142.856 199.901 143.413 200.3 148.834 200.3Z" fill="#1E1936"/>
<path d="M148.834 200.485H211.107V200.122C208.303 200.122 208.186 199.439 208.054 198.645C208.014 198.416 207.977 198.176 207.882 197.939L191.574 156.189C191.306 155.506 190.691 155.064 190.001 155.064H127.728C127.156 155.064 126.625 155.372 126.306 155.885C125.987 156.399 125.932 157.046 126.155 157.615L142.46 199.36C142.757 200.122 143.486 200.485 148.834 200.485ZM208.619 200.118H148.834C143.545 200.118 142.973 199.727 142.771 199.214L126.463 157.465C126.284 157.007 126.331 156.489 126.584 156.079C126.837 155.668 127.266 155.419 127.724 155.419H189.998C190.551 155.419 191.046 155.775 191.259 156.323L207.567 198.073C207.647 198.278 207.684 198.495 207.717 198.705C207.823 199.317 207.977 199.81 208.619 200.118Z" fill="#1E1936"/>
<path d="M189.764 200.3H253.2C254.857 200.3 255.872 198.338 254.996 196.822C254.611 196.154 253.929 195.748 253.2 195.748H189.761V200.3H189.764Z" fill="#1E1936"/>
<path d="M189.592 200.486H253.203C254.042 200.486 254.79 200.012 255.201 199.222C255.611 198.428 255.589 197.497 255.146 196.727C254.728 196 254.002 195.566 253.207 195.566H189.599V200.486H189.592ZM253.203 195.929C253.881 195.929 254.497 196.3 254.856 196.916C255.234 197.572 255.252 198.365 254.904 199.04C254.556 199.716 253.921 200.118 253.203 200.118H189.933V195.929H253.203Z" fill="#1E1936"/>
<path d="M203.135 196.573C203.161 196.573 203.186 196.569 203.212 196.557C203.311 196.51 203.359 196.387 203.315 196.281L188.568 158.973C188.524 158.866 188.411 158.815 188.312 158.862C188.213 158.91 188.165 159.032 188.209 159.139L202.955 196.446C202.985 196.525 203.058 196.573 203.135 196.573Z" fill="white"/>
<path d="M163.203 181.877C163.72 181.877 164.226 181.743 164.684 181.459C166.308 180.448 166.718 177.933 165.6 175.844C165.062 174.841 164.251 174.083 163.32 173.712C162.375 173.337 161.422 173.4 160.626 173.894C159.834 174.387 159.303 175.248 159.134 176.314C158.966 177.368 159.171 178.501 159.71 179.504C160.516 181.005 161.891 181.877 163.203 181.877ZM162.114 173.894C162.463 173.894 162.826 173.965 163.185 174.107C164.031 174.443 164.768 175.133 165.259 176.053C166.267 177.937 165.923 180.195 164.486 181.088C164.09 181.336 163.647 181.451 163.199 181.451C162.023 181.451 160.78 180.653 160.051 179.291C159.56 178.371 159.373 177.341 159.523 176.381C159.673 175.438 160.135 174.683 160.824 174.253C161.216 174.016 161.656 173.894 162.114 173.894Z" fill="white"/>
<path d="M235.259 132.696C240.328 132.696 243.789 131.725 245.555 129.806C246.681 128.582 247.087 126.983 246.772 125.045C246.754 124.93 246.651 124.851 246.545 124.875C246.439 124.895 246.365 125.005 246.387 125.12C246.681 126.912 246.307 128.389 245.28 129.51C241.16 133.991 227.888 131.67 227.756 131.646C227.649 131.626 227.547 131.705 227.528 131.82C227.51 131.934 227.583 132.045 227.69 132.065C227.723 132.073 231.113 132.673 234.98 132.7C235.068 132.696 235.164 132.696 235.259 132.696Z" fill="#1E1936"/>
<path d="M235.258 132.882C240.371 132.882 243.875 131.891 245.671 129.937C246.837 128.669 247.262 127.015 246.932 125.017C246.896 124.804 246.705 124.662 246.511 124.697C246.313 124.737 246.181 124.938 246.214 125.155C246.496 126.889 246.141 128.31 245.151 129.384C241.097 133.794 227.905 131.492 227.773 131.469C227.575 131.429 227.384 131.579 227.351 131.792C227.336 131.895 227.358 132.002 227.413 132.089C227.468 132.175 227.553 132.231 227.652 132.247C227.685 132.25 231.079 132.855 234.968 132.882H235.258ZM246.577 125.053C246.591 125.053 246.602 125.065 246.602 125.076C246.91 126.952 246.514 128.5 245.433 129.676C243.703 131.56 240.279 132.511 235.258 132.511H234.972C231.134 132.483 227.743 131.887 227.71 131.879L227.52 131.816L227.688 131.848C227.692 131.832 227.707 131.824 227.718 131.824C227.853 131.848 241.214 134.181 245.393 129.637C246.463 128.472 246.852 126.94 246.547 125.084C246.544 125.068 246.555 125.053 246.569 125.049C246.573 125.053 246.573 125.053 246.577 125.053Z" fill="#1E1936"/>
</svg>
