<svg width="299" height="195" viewBox="0 0 299 195" fill="none" xmlns="http://www.w3.org/2000/svg">
<g clip-path="url(#clip0_1861_34514)">
<path d="M100.568 200.983C100.568 200.983 122.139 191.2 143.67 178.557C175.972 159.581 212.885 124.287 229.161 138.233C233.71 142.131 234.28 149.1 223.921 161.622C220.24 166.069 210.207 181.784 219.081 184.204C227.955 186.624 242.767 164.449 255.376 164.449C270.704 164.449 270.968 194.102 279.395 200.99" stroke="#59566C" stroke-miterlimit="10" stroke-linecap="round"/>
<path d="M40.6137 27.8295C42.6542 31.2328 47.725 31.687 51.2027 29.7685C54.6804 27.8499 60.4901 23.9043 61.3917 16.4537C62.978 3.38969 50.7485 6.58958 56.6192 25.1313C57.6768 28.4668 60.3681 31.687 63.8593 31.9853C68.8216 32.4192 71.8248 26.9075 74.733 22.8602C76.7193 20.0942 79.1327 14.5283 82.346 13.9859C87.2066 13.1656 87.3761 20.223 87.8981 22.1619C88.4269 24.1009 89.681 26.1415 91.6741 26.3787C94.0671 26.6635 95.7958 24.2907 97.5312 22.6094C101.389 18.8671 107.713 17.9587 112.472 20.4671" stroke="black" stroke-miterlimit="10" stroke-linecap="round"/>
<path d="M83.9459 133.148L82.8545 134.24L80.1767 136.917L77.499 139.595L74.8212 142.273L72.1435 144.951L69.4657 147.629L66.788 150.307L64.1102 152.985L61.4325 155.663L56.2058 160.89L56.0769 161.018L53.3992 163.696L50.7214 166.374L48.0437 169.052L45.3659 171.73L44.1525 172.943C44.3219 172.943 44.4914 172.937 44.6609 172.93L46.0032 171.587L48.6809 168.91L51.3587 166.232L54.0364 163.554L56.7142 160.876L59.3919 158.198L62.0697 155.52L64.7474 152.842L67.4252 150.164L70.103 147.487L72.7807 144.809L75.4585 142.131L78.1362 139.453L80.814 136.775L83.4917 134.097L83.9324 133.657C83.9324 133.487 83.9459 133.318 83.9459 133.148Z" fill="#D2D1D6"/>
<path d="M83.79 135.989L82.8545 136.924L80.1767 139.602L77.499 142.28L74.8212 144.958L69.5945 150.185L69.4657 150.314L66.788 152.991L64.1102 155.669L61.4325 158.347L58.7547 161.025L56.077 163.703L53.3992 166.381L50.7214 169.059L48.0437 171.737L46.9861 172.794C47.1692 172.781 47.3522 172.76 47.5285 172.747L51.2231 169.052L51.3519 168.923L54.0297 166.245L56.7074 163.567L59.3852 160.89L62.0629 158.212L64.7407 155.534L67.4184 152.856L70.0962 150.178L72.7739 147.5L75.4517 144.822L78.1294 142.144L80.8072 139.467L83.4849 136.789L83.729 136.545C83.7493 136.362 83.7629 136.185 83.7764 136.002L83.79 135.989Z" fill="#D2D1D6"/>
<path d="M62.151 168.34C62.5171 168.15 62.8764 167.954 63.2357 167.75L64.7474 166.238L67.4252 163.561L70.1029 160.883L72.7807 158.205L75.4584 155.527L78.1362 152.849L78.7395 152.246C78.9429 151.886 79.1395 151.527 79.3293 151.161L77.4989 152.991L74.8212 155.669L69.5945 160.896L69.4657 161.025L66.7879 163.703L64.1102 166.381L62.151 168.34Z" fill="#D2D1D6"/>
<path d="M57.3311 170.476C57.5954 170.374 57.8666 170.279 58.131 170.171L59.3919 168.91L62.0697 166.232L64.7474 163.554L67.4252 160.876L70.1029 158.198L72.7807 155.52L75.4584 152.842L78.1362 150.164L80.8139 147.487L81.1665 147.134C81.2681 146.87 81.3698 146.605 81.4715 146.334L80.1767 147.629L77.4989 150.307L74.8212 152.985L72.1434 155.663L69.4657 158.34L66.7879 161.018L64.1102 163.696L61.4324 166.374L57.3378 170.469L57.3311 170.476Z" fill="#D2D1D6"/>
<path d="M56.7074 168.916L59.3852 166.238L62.0629 163.561L64.7407 160.883L67.4184 158.205L70.0962 155.527L72.7739 152.849L75.4517 150.171L78.1294 147.493L80.8072 144.815L82.4884 143.134C82.5494 142.91 82.6104 142.687 82.6715 142.456L80.17 144.958L77.4922 147.636L74.8145 150.314L72.1367 152.991L69.4589 155.669L66.7812 158.347L64.1034 161.025L61.4257 163.703L58.7479 166.381L56.0702 169.059L53.4399 171.689C53.6636 171.628 53.8941 171.567 54.1178 171.506L56.7074 168.916Z" fill="#D2D1D6"/>
<path d="M54.0296 168.916L56.7074 166.239L59.3851 163.561L64.6118 158.334L64.7407 158.205L67.4184 155.527L70.0962 152.849L75.4517 147.493L78.1294 144.815L80.8072 142.138L83.2883 139.656C83.3222 139.46 83.3561 139.256 83.39 139.06L81.5122 140.938L80.1699 142.28L77.4922 144.958L74.8144 147.636L72.1367 150.314L69.4589 152.991L66.7812 155.669L64.1034 158.347L61.4257 161.025L58.7479 163.703L56.0702 166.381L53.3924 169.059L50.7146 171.737L50.0503 172.401C50.2469 172.367 50.4503 172.333 50.6469 172.299L51.3519 171.594L54.0296 168.916Z" fill="#D2D1D6"/>
<path d="M17.8291 100.654C15.5581 102.485 13.4837 104.559 11.6533 106.83L13.8498 104.634L16.5275 101.956L17.8291 100.654Z" fill="#D2D1D6"/>
<path d="M83.4103 125.65L82.8544 126.206L80.1767 128.884L77.4989 131.562L74.8212 134.24L72.1434 136.917L69.4657 139.595L66.7879 142.273L64.1102 144.951L61.4324 147.629L58.7547 150.307L56.0769 152.985L53.3992 155.663L50.7214 158.34L48.0437 161.018L45.3659 163.696L42.6881 166.374L40.0104 169.052L37.3326 171.73L36.6547 172.408C36.7971 172.428 36.9394 172.455 37.0818 172.476L40.6476 168.91L43.3254 166.232L46.0031 163.554L51.2298 158.327L51.3586 158.198L54.0364 155.52L56.7142 152.842L59.3919 150.164L62.0697 147.487L64.7474 144.809L67.4252 142.131L70.1029 139.453L72.7807 136.775L75.4584 134.097L78.1362 131.419L80.8139 128.741L83.4781 126.077C83.4578 125.935 83.4307 125.792 83.4103 125.657V125.65Z" fill="#D2D1D6"/>
<path d="M83.729 128.009L82.8544 128.884L80.1767 131.562L77.4989 134.24L74.8212 136.917L70.8012 140.938L69.4589 142.28L66.7811 144.958L64.1034 147.636L61.4256 150.314L58.7479 152.991L56.0701 155.669L53.3924 158.347L50.7146 161.025L48.0369 163.703L45.3591 166.381L42.6814 169.059L40.0036 171.737L39.0071 172.733C39.1562 172.747 39.3054 172.76 39.4545 172.774L40.6341 171.594L43.3118 168.916L45.9896 166.239L48.6673 163.561L51.3451 160.883L54.0228 158.205L56.7006 155.527L59.3783 152.849L64.7339 147.493L67.4116 144.815L70.0894 142.138L74.4212 137.806L75.4449 136.782L78.1226 134.104L80.8004 131.426L83.4781 128.748L83.7561 128.47C83.7425 128.321 83.729 128.172 83.7154 128.023L83.729 128.009Z" fill="#D2D1D6"/>
<path d="M83.9188 130.504L82.8613 131.562L80.1835 134.24L77.5057 136.917L74.828 139.595L72.1502 142.273L69.4725 144.951L66.7947 147.629L64.117 150.307L61.4392 152.985L58.7615 155.663L56.0837 158.34L53.406 161.018L50.7282 163.696L48.0505 166.374L42.6949 171.73L41.5154 172.909C41.6713 172.916 41.834 172.923 41.9899 172.93L43.3322 171.587L46.0099 168.91L48.6877 166.232L51.3654 163.554L54.0432 160.876L56.721 158.198L59.3987 155.52L62.0765 152.842L64.7542 150.164L67.432 147.487L70.1097 144.809L72.7875 142.131L75.4652 139.453L78.143 136.775L80.8207 134.097L83.4985 131.419L83.9391 130.979C83.9391 130.823 83.9256 130.66 83.9188 130.504Z" fill="#D2D1D6"/>
<path d="M80.2784 115.393L80.1835 115.488L77.5057 118.166L74.828 120.843L72.1502 123.521L69.4725 126.199L66.7947 128.877L64.117 131.555L61.4392 134.233L58.7615 136.911L56.0837 139.589L53.406 142.266L50.7282 144.944L48.0505 147.622L45.3727 150.3L42.695 152.978L40.0172 155.656L37.3394 158.334L34.6617 161.012L31.9839 163.689L29.3062 166.367L26.6284 169.045L26.4115 169.262C26.5267 169.316 26.6352 169.364 26.7505 169.418L27.1369 169.032L27.2657 168.903L29.9434 166.225L32.6212 163.547L35.2989 160.869L37.9767 158.191L40.6544 155.513L43.3322 152.836L46.0099 150.158L48.6877 147.48L51.3654 144.802L54.0432 142.124L56.721 139.446L59.3987 136.768L62.0765 134.09L64.7542 131.413L67.432 128.735L70.1097 126.057L72.7875 123.379L75.4652 120.701L78.143 118.023L80.4343 115.732C80.3869 115.616 80.3326 115.508 80.2784 115.393Z" fill="#D2D1D6"/>
<path d="M81.2207 117.623C81.1733 117.508 81.1258 117.386 81.0851 117.271L80.1835 118.172L77.5057 120.85L74.828 123.528L72.1502 126.206L69.4725 128.884L66.7947 131.562L64.117 134.24L61.4392 136.917L57.4192 140.938L56.0769 142.28L53.3992 144.958L50.7214 147.636L48.0437 150.314L45.3659 152.991L42.6882 155.669L40.0104 158.347L37.3327 161.025L34.6549 163.703L31.9772 166.381L29.2994 169.059L28.2758 170.082C28.391 170.13 28.513 170.177 28.6283 170.225L29.9299 168.923L32.6076 166.245L35.2854 163.567L40.6409 158.212L43.3186 155.534L45.9964 152.856L51.3519 147.5L54.0296 144.822L56.7074 142.144L59.3852 139.466L62.0629 136.789L64.7407 134.111L67.4184 131.433L70.0962 128.755L72.7739 126.077L75.4517 123.399L78.1294 120.721L80.8072 118.043L81.2071 117.644L81.2207 117.623Z" fill="#D2D1D6"/>
<path d="M77.4244 110.213L74.8212 112.817L72.1435 115.494L69.4657 118.172L66.7879 120.85L64.1102 123.528L61.4324 126.206L58.7547 128.884L56.0769 131.562L53.3992 134.24L50.7214 136.917L48.0437 139.595L45.3659 142.273L42.6882 144.951L40.0104 147.629L37.3327 150.307L34.6549 152.985L31.9772 155.663L29.2994 158.34L26.6216 161.018L23.9439 163.696L21.2661 166.374L21.2255 166.415C21.3272 166.483 21.4221 166.544 21.5237 166.611L21.9034 166.232L24.5811 163.554L27.2589 160.876L29.9366 158.198L32.6144 155.52L35.2921 152.842L40.6477 147.487L43.3254 144.809L46.0032 142.131L50.335 137.799L51.3587 136.775L54.0364 134.097L56.7142 131.419L59.3919 128.741L62.0697 126.064L64.7474 123.386L67.4252 120.708L70.1029 118.03L72.7807 115.352L75.4584 112.674L77.6142 110.518C77.5532 110.417 77.4854 110.315 77.4176 110.22L77.4244 110.213Z" fill="#D2D1D6"/>
<path d="M78.6243 112.179C78.5633 112.078 78.5023 111.969 78.4413 111.867L77.499 112.81L74.8212 115.488L72.1435 118.166L69.4657 120.843L66.788 123.521L64.1102 126.199L61.4325 128.877L58.7547 131.555L56.0769 134.233L53.3992 136.911L50.7214 139.589L48.0437 142.266L45.3659 144.944L42.6882 147.622L40.0104 150.3L37.3327 152.978L34.6549 155.656L31.9772 158.334L29.2994 161.012L26.6217 163.689L23.9439 166.367L22.8796 167.432C22.9813 167.493 23.0897 167.554 23.1914 167.615L24.5811 166.225L27.2589 163.547L29.9366 160.869L32.6144 158.191L35.2922 155.513L37.9699 152.836L40.6477 150.158L43.3254 147.48L46.0032 144.802L48.6809 142.124L51.3587 139.446L54.0364 136.768L56.7142 134.09L59.3919 131.413L62.0697 128.735L64.7474 126.057L67.4252 123.379L70.103 120.701L72.7807 118.023L75.4585 115.345L78.1362 112.667L78.6243 112.179Z" fill="#D2D1D6"/>
<path d="M74.1975 105.895C74.1229 105.807 74.0484 105.719 73.967 105.63L72.1434 107.454L69.4657 110.132L66.7879 112.81L64.1102 115.488L61.4324 118.166L58.7547 120.843L56.0769 123.521L53.3992 126.199L50.7214 128.877L48.0437 131.555L45.3659 134.233L42.6882 136.911L40.0104 139.589L37.3326 142.266L34.6549 144.944L31.9771 147.622L29.2994 150.3L26.6216 152.978L23.9439 155.656L18.5884 161.012L16.6428 162.957C16.7309 163.032 16.819 163.113 16.9071 163.188L19.2256 160.869L21.9034 158.191L24.5811 155.513L27.2589 152.836L29.9366 150.158L32.6144 147.48L35.2921 144.802L37.9699 142.124L40.6476 139.446L43.3254 136.768L46.0031 134.09L48.6809 131.413L51.3587 128.735L54.0364 126.057L56.7142 123.379L59.3919 120.701L62.0697 118.023L64.7474 115.345L67.4252 112.667L70.1029 109.99L72.7807 107.312L74.1975 105.895Z" fill="#D2D1D6"/>
<path d="M72.9298 104.485C72.8485 104.397 72.7739 104.315 72.6926 104.227L72.1435 104.776L69.4657 107.454L66.7879 110.132L64.1102 112.81L61.4324 115.488L58.7547 118.166L56.0769 120.843L53.3992 123.521L50.7214 126.199L48.0437 128.877L45.3659 131.555L42.6882 134.233L40.0104 136.911L37.3327 139.589L34.6549 142.266L31.9772 144.944L29.2994 147.622L26.6216 150.3L23.9439 152.978L21.2661 155.656L18.5884 158.334L15.9106 161.012L15.2463 161.676C15.3276 161.757 15.4158 161.839 15.5039 161.913L16.5546 160.862L19.2324 158.185L21.9102 155.507L24.5879 152.829L27.2657 150.151L29.9434 147.473L32.6212 144.795L35.2989 142.117L40.4578 136.958L40.6544 136.762L43.3322 134.084L46.0099 131.406L48.6877 128.728L51.3654 126.05L54.0432 123.372L56.721 120.694L59.3987 118.016L62.0765 115.339L64.7542 112.661L67.432 109.983L70.1097 107.305L72.7875 104.627L72.9366 104.478L72.9298 104.485Z" fill="#D2D1D6"/>
<path d="M75.4042 107.373C75.3296 107.278 75.2618 107.19 75.1873 107.095L74.8212 107.461L72.1434 110.139L69.4657 112.817L66.7879 115.494L64.1102 118.172L61.4324 120.85L58.7547 123.528L56.0769 126.206L53.3992 128.884L50.7214 131.562L48.0437 134.24L45.3659 136.917L42.6882 139.595L40.0104 142.273L37.3326 144.951L32.1059 150.178L31.9771 150.307L29.2994 152.985L26.6216 155.663L23.9439 158.34L21.2661 161.018L18.5884 163.696L18.1071 164.178C18.202 164.252 18.2901 164.32 18.385 164.395L19.2256 163.554L21.9034 160.876L24.5811 158.198L27.2589 155.52L29.9366 152.842L32.6144 150.164L35.2921 147.487L37.9699 144.809L40.6476 142.131L43.3254 139.453L46.0031 136.775L48.6809 134.097L51.3587 131.419L54.0364 128.741L56.7142 126.064L59.3919 123.386L62.0697 120.708L64.7474 118.03L67.4252 115.352L70.1029 112.674L72.7807 109.996L75.4042 107.373Z" fill="#D2D1D6"/>
<path d="M71.6011 103.136C71.5198 103.054 71.4384 102.973 71.3503 102.891L69.4657 104.776L66.7879 107.454L64.1102 110.132L61.4324 112.81L58.7547 115.488L56.0769 118.166L53.3992 120.843L50.7214 123.521L48.0437 126.199L45.3659 128.877L42.6882 131.555L40.0104 134.233L37.3326 136.911L33.3126 140.931L31.9704 142.273L29.2926 144.951L26.6149 147.629L23.9371 150.307L21.2593 152.985L18.5816 155.663L15.9038 158.34L13.8972 160.347C13.9786 160.429 14.0599 160.517 14.1413 160.598L16.5411 158.198L19.2188 155.52L21.8966 152.842L27.2521 147.487L29.9298 144.809L32.6076 142.131L35.2853 139.453L37.9631 136.775L40.6409 134.097L43.3186 131.419L45.9964 128.741L48.6741 126.064L51.3519 123.386L54.0296 120.708L56.7074 118.03L59.3851 115.352L62.0629 112.674L64.7406 109.996L67.4184 107.318L70.0961 104.641L71.5943 103.142L71.6011 103.136Z" fill="#D2D1D6"/>
<path d="M48.0369 94.0647L45.3591 96.7425L42.6814 99.4204L40.0036 102.098L37.3259 104.776L34.6481 107.454L31.9704 110.132L29.2926 112.81L26.6148 115.488L23.9371 118.166L21.2593 120.843L18.5816 123.521L15.9038 126.199L13.2261 128.877L10.5483 131.555L7.87057 134.233L5.19282 136.911L3.22009 138.883C3.24043 139.026 3.26755 139.168 3.28788 139.311L5.83006 136.768L8.50781 134.09L11.1856 131.413L13.8633 128.735L16.5411 126.057L19.2188 123.379L21.8966 120.701L24.5743 118.023L27.2521 115.345L29.9298 112.667L32.6076 109.99L35.2853 107.312L37.9631 104.634L40.6409 101.956L43.3186 99.278L45.9964 96.6002L48.6741 93.9223L50.3214 92.2749C50.1791 92.2478 50.0367 92.2274 49.8944 92.2071L48.0369 94.0647Z" fill="#D2D1D6"/>
<path d="M45.3591 94.0646L42.6814 96.7425L40.0036 99.4204L37.3259 102.098L34.6481 104.776L31.9704 107.454L29.2926 110.132L26.6149 112.81L23.9371 115.488L21.2594 118.166L18.5816 120.843L15.9038 123.521L13.2261 126.199L10.5483 128.877L7.87059 131.555L5.19283 134.233L2.90149 136.524C2.91505 136.673 2.93538 136.823 2.94894 136.965L3.14554 136.768L5.82329 134.09L8.50104 131.413L11.1788 128.735L13.8566 126.057L16.5343 123.379L19.2121 120.701L21.8898 118.023L24.5676 115.345L27.2453 112.667L29.9231 109.99L32.6008 107.312L35.2786 104.634L37.9563 101.956L40.6341 99.278L43.3118 96.6001L45.9896 93.9222L47.9691 91.9427C47.82 91.9291 47.6708 91.9088 47.5285 91.8952L45.3524 94.0714L45.3591 94.0646Z" fill="#D2D1D6"/>
<path d="M42.6812 94.0645L40.0034 96.7424L37.3257 99.4202L34.6479 102.098L31.9702 104.776L29.2924 107.454L26.6147 110.132L23.9369 112.81L21.2592 115.488L18.5814 118.165L15.9037 120.843L13.2259 123.521L10.5481 126.199L7.87039 128.877L5.19264 131.555L2.72504 134.022C2.72504 134.178 2.7386 134.341 2.74537 134.497L3.15212 134.09L5.82988 131.412L8.50763 128.735L11.1854 126.057L13.8631 123.379L16.5409 120.701L19.2186 118.023L21.8964 115.345L24.5742 112.667L27.2519 109.989L29.9297 107.312L32.6074 104.634L35.2852 101.956L37.9629 99.2779L40.6407 96.6L43.3184 93.9221L45.5081 91.7324C45.3522 91.7256 45.1895 91.7188 45.0335 91.712L42.6812 94.0645Z" fill="#D2D1D6"/>
<path d="M40.0036 94.0646L37.3259 96.7425L34.6481 99.4204L31.9704 102.098L29.2926 104.776L26.6149 107.454L23.9371 110.132L21.2594 112.81L18.5816 115.488L15.9039 118.166L13.2261 120.843L10.5483 123.521L7.87059 126.199L5.19284 128.877L2.69812 131.372C2.69812 131.541 2.69812 131.704 2.69812 131.874L3.1591 131.413L5.83685 128.735L8.51461 126.057L11.1924 123.379L13.8701 120.701L16.5479 118.023L19.2256 115.345L21.9034 112.667L24.5811 109.99L27.2589 107.312L29.9366 104.634L32.6144 101.956L35.2921 99.278L37.9699 96.6002L40.6477 93.9223L42.8915 91.6783C42.7221 91.6783 42.5594 91.6783 42.3899 91.6783L40.0104 94.0579L40.0036 94.0646Z" fill="#D2D1D6"/>
<path d="M34.6414 94.0646L31.9636 96.7425L29.2859 99.4204L26.6081 102.098L23.9303 104.776L21.2526 107.454L18.5748 110.132L15.8971 112.81L13.2193 115.488L10.5416 118.166L7.86383 120.843L5.18607 123.521L3.2608 125.447C3.22691 125.643 3.19301 125.84 3.16589 126.036L5.83009 123.372L8.50784 120.694L11.1856 118.016L13.8634 115.339L16.5411 112.661L19.2189 109.983L21.8966 107.305L24.5744 104.627L27.2521 101.949L29.9299 99.2712L32.6076 96.5934L35.2854 93.9155L37.0547 92.1461C36.8581 92.18 36.6615 92.2139 36.465 92.241L34.6481 94.0579L34.6414 94.0646Z" fill="#D2D1D6"/>
<path d="M35.2786 171.594L37.9563 168.916L40.6341 166.239L43.3118 163.561L45.9896 160.883L48.6673 158.205L51.3451 155.527L54.0228 152.849L56.7006 150.171L59.3783 147.493L62.0561 144.816L64.7338 142.138L67.4116 139.46L70.0894 136.782L72.7671 134.104L75.4449 131.426L78.1226 128.748L80.8004 126.07L83.0443 123.826C83.0171 123.691 82.9832 123.555 82.9561 123.42L82.8409 123.535L80.1631 126.213L77.4854 128.891L74.8076 131.568L72.1299 134.246L69.4521 136.924L66.7744 139.602L64.0966 142.28L61.4189 144.958L56.1922 150.185L56.0633 150.314L53.3856 152.992L50.7078 155.669L48.0301 158.347L45.3523 161.025L42.6746 163.703L39.9968 166.381L37.3191 169.059L34.6413 171.737L34.4041 171.974C34.5396 172.001 34.6752 172.035 34.8108 172.062L35.2853 171.587L35.2786 171.594Z" fill="#D2D1D6"/>
<path d="M35.2786 168.916L37.9564 166.238L40.6341 163.561L43.3119 160.883L45.9896 158.205L48.6674 155.527L51.3451 152.849L54.0229 150.171L56.7006 147.493L59.3784 144.815L62.0561 142.138L64.7339 139.46L67.4117 136.782L70.0894 134.104L72.7672 131.426L75.4449 128.748L78.1227 126.07L80.8004 123.392L82.5291 121.664C82.4952 121.535 82.4613 121.406 82.4206 121.277L80.1632 123.535L77.4854 126.213L74.8077 128.891L72.1299 131.568L69.4522 134.246L66.7744 136.924L64.0967 139.602L61.4189 142.28L58.7412 144.958L56.0634 147.636L53.3856 150.314L50.7079 152.991L48.0301 155.669L42.6746 161.025L39.9969 163.703L37.3191 166.381L32.2619 171.438C32.3907 171.472 32.5195 171.506 32.6483 171.547L35.2786 168.916Z" fill="#D2D1D6"/>
<path d="M32.6008 168.916L35.2786 166.239L37.9564 163.561L40.6341 160.883L43.3119 158.205L45.9896 155.527L48.6674 152.849L51.3451 150.171L54.0229 147.493L56.7006 144.815L59.3784 142.138L63.7102 137.806L64.7339 136.782L67.4116 134.104L70.0894 131.426L72.7671 128.748L75.4449 126.07L78.1227 123.392L80.8004 120.715L81.9054 119.61C81.8647 119.488 81.8241 119.359 81.7834 119.237L80.1632 120.857L77.4854 123.535L74.8077 126.213L72.1299 128.891L69.4522 131.568L66.7744 134.246L64.0967 136.924L61.4189 139.602L58.7411 142.28L56.0634 144.958L53.3856 147.636L50.7079 150.314L48.0301 152.991L45.3524 155.669L42.6746 158.347L39.9969 161.025L37.3191 163.703L34.6414 166.381L31.9636 169.059L30.2214 170.801C30.3434 170.842 30.4722 170.882 30.5942 170.923L32.6076 168.91L32.6008 168.916Z" fill="#D2D1D6"/>
<path d="M29.9027 93.9359C29.6451 94.024 29.3875 94.1189 29.1299 94.2138L26.6013 96.7425L23.9236 99.4204L21.2458 102.098L18.5681 104.776L15.8903 107.454L13.2125 110.132L10.5348 112.81L7.85704 115.488L5.21996 118.125C5.12505 118.382 5.03015 118.64 4.94202 118.898L5.81652 118.023L8.49428 115.345L11.172 112.667L13.8498 109.99L16.5275 107.312L19.2053 104.634L21.883 101.956L24.5608 99.278L27.2386 96.6002L29.896 93.9426L29.9027 93.9359Z" fill="#D2D1D6"/>
<path d="M27.2453 166.238L29.9231 163.561L32.6008 160.883L35.2786 158.205L37.9563 155.527L40.6341 152.849L43.3118 150.171L45.9896 147.493L48.6673 144.815L51.3451 142.138L54.0228 139.46L56.7006 136.782L59.3783 134.104L62.0561 131.426L64.7339 128.748L67.4116 126.07L70.0894 123.392L72.7671 120.715L75.4449 118.037L78.1226 115.359L79.5462 113.935C79.492 113.827 79.431 113.718 79.3768 113.61L77.4786 115.508L74.8008 118.186L72.1231 120.864L69.4453 123.542L66.7676 126.219L64.0898 128.897L61.4121 131.575L58.7343 134.253L56.0566 136.931L53.3788 139.609L50.7011 142.287L48.0233 144.965L42.6678 150.32L39.9901 152.998L37.3123 155.676L32.0856 160.903L31.9568 161.032L29.279 163.71L26.6013 166.388L24.5879 168.401C24.6964 168.455 24.8048 168.516 24.9133 168.571L27.2385 166.245L27.2453 166.238Z" fill="#D2D1D6"/>
<path d="M24.2625 96.4035L23.9236 96.7425L21.2458 99.4204L18.5681 102.098L15.8903 104.776L13.2126 107.454L10.5348 110.132L7.85705 112.81L7.40963 113.257C7.23337 113.596 7.05711 113.928 6.88763 114.274L8.49429 112.667L11.172 109.99L13.8498 107.312L16.5275 104.634L19.2053 101.956L21.8831 99.278L24.5608 96.6001L25.2726 95.8883C24.9337 96.0578 24.5947 96.2341 24.2557 96.4103L24.2625 96.4035Z" fill="#D2D1D6"/>
<path d="M21.8898 163.561L27.1165 158.334L27.2453 158.205L29.9231 155.527L32.6009 152.849L35.2786 150.171L37.9564 147.493L40.6341 144.816L43.3119 142.138L45.9896 139.46L48.6674 136.782L51.3451 134.104L54.0229 131.426L56.7006 128.748L59.3784 126.07L62.0561 123.392L64.7339 120.715L67.4117 118.037L70.0894 115.359L72.7672 112.681L75.4449 110.003L76.5296 108.918C76.4618 108.824 76.394 108.729 76.3262 108.627L74.8145 110.139L72.1367 112.817L69.4589 115.494L66.7812 118.172L64.1034 120.85L61.4257 123.528L58.7479 126.206L56.0702 128.884L53.3924 131.562L50.7147 134.24L48.0369 136.917L42.6814 142.273L40.0037 144.951L37.3259 147.629L34.6481 150.307L31.9704 152.985L29.2926 155.663L26.6149 158.34L23.9371 161.018L21.2594 163.696L19.6256 165.33C19.7205 165.398 19.8154 165.466 19.9171 165.533L21.9034 163.547L21.8898 163.561Z" fill="#D2D1D6"/>
<path d="M12.6092 158.951C12.6838 159.039 12.7651 159.127 12.8397 159.215L13.8498 158.205L16.5275 155.527L19.2053 152.849L21.883 150.171L24.5608 147.493L27.2385 144.815L29.9163 142.138L32.594 139.46L35.2718 136.782L37.9496 134.104L40.6273 131.426L43.3051 128.748L45.9828 126.07L48.6606 123.392L51.3383 120.715L54.0161 118.037L56.6938 115.359L59.3716 112.681L62.0493 110.003L64.7271 107.325L67.4048 104.647L70.0826 101.969L70.1911 101.861C70.1029 101.786 70.0148 101.705 69.9267 101.63L69.4454 102.112L66.7676 104.79L64.0899 107.468L61.4121 110.145L58.7343 112.823L56.0566 115.501L53.3788 118.179L50.7011 120.857L48.0233 123.535L45.3456 126.213L42.6678 128.891L39.9901 131.568L37.3123 134.246L34.6346 136.924L31.9568 139.602L29.2791 142.28L26.6013 144.958L23.9235 147.636L21.2458 150.314L18.568 152.991L15.8903 155.669L13.2125 158.347L12.6092 158.951Z" fill="#D2D1D6"/>
<path d="M10.2501 155.954C10.3179 156.049 10.3924 156.144 10.4602 156.239L11.1788 155.52L13.8566 152.842L16.5343 150.164L19.2121 147.487L21.8898 144.809L24.5676 142.131L27.2453 139.453L29.9231 136.775L32.6008 134.097L35.2786 131.419L37.9563 128.741L40.6341 126.064L43.3118 123.386L45.9896 120.708L48.6674 118.03L51.3451 115.352L54.0229 112.674L56.7006 109.996L59.3784 107.318L62.0561 104.641L64.7339 101.963L67.2286 99.4679C67.1337 99.4001 67.0388 99.3255 66.9439 99.2577L66.7744 99.4272L64.0966 102.105L61.4189 104.783L58.7411 107.461L56.0634 110.139L53.3856 112.817L50.7079 115.494L48.0301 118.172L45.3524 120.85L42.6746 123.528L39.9969 126.206L37.3191 128.884L34.6413 131.562L31.9636 134.24L29.2858 136.917L26.6081 139.595L23.9303 142.273L21.2526 144.951L18.5748 147.629L15.8971 150.307L13.2193 152.985L10.5416 155.663L10.2568 155.947L10.2501 155.954Z" fill="#D2D1D6"/>
<path d="M11.172 152.849L16.5275 147.493L19.2053 144.815L21.883 142.138L26.2149 137.806L27.2385 136.782L29.9163 134.104L32.5941 131.426L35.2718 128.748L37.9496 126.07L40.6273 123.392L43.3051 120.715L45.9828 118.037L48.6606 115.359L51.3383 112.681L54.0161 110.003L56.6938 107.325L59.3716 104.647L62.0493 101.969L64.7271 99.2916L65.6423 98.3763C65.5406 98.3086 65.4457 98.2475 65.344 98.1797L64.0899 99.4339L61.4121 102.112L58.7343 104.79L56.0566 107.468L53.3788 110.145L50.7011 112.823L48.0233 115.501L45.3456 118.179L42.6678 120.857L39.9901 123.535L37.3123 126.213L34.6346 128.891L31.9568 131.568L29.2791 134.246L26.6013 136.924L23.9236 139.602L21.2458 142.28L18.568 144.958L15.8903 147.636L13.2125 150.314L10.5348 152.991L9.16541 154.361C9.2332 154.463 9.29421 154.558 9.362 154.659L11.172 152.849Z" fill="#D2D1D6"/>
<path d="M11.6195 157.757L13.8498 155.527L16.5275 152.849L19.2053 150.171L21.8831 147.493L24.5608 144.816L27.2386 142.138L29.9163 139.46L32.5941 136.782L35.2718 134.104L37.9496 131.426L40.6273 128.748L43.3051 126.07L45.9828 123.392L48.6606 120.715L51.3383 118.037L54.0161 115.359L56.6939 112.681L59.3716 110.003L62.0494 107.325L64.7271 104.647L67.4049 101.969L68.7404 100.634C68.6522 100.559 68.5573 100.485 68.4692 100.417L66.7744 102.112L64.0967 104.79L61.4189 107.468L58.7411 110.145L56.0634 112.823L53.3856 115.501L50.7079 118.179L48.0301 120.857L45.3524 123.535L42.6746 126.213L39.9969 128.891L37.3191 131.568L34.6414 134.246L31.9636 136.924L29.2859 139.602L26.6081 142.28L23.9303 144.958L18.5748 150.314L15.8971 152.992L13.2193 155.669L11.4025 157.486C11.4771 157.581 11.5517 157.669 11.6262 157.757H11.6195Z" fill="#D2D1D6"/>
<path d="M7.85704 150.314L7.19946 150.971C7.2537 151.08 7.31471 151.188 7.36894 151.297L8.49428 150.171L11.172 147.493L13.8498 144.816L16.5275 142.138L19.2053 139.46L21.883 136.782L24.5608 134.104L27.2386 131.426L29.9163 128.748L32.5941 126.07L35.2718 123.392L37.9496 120.715L40.6273 118.037L43.3051 115.359L45.9828 112.681L48.6606 110.003L51.3383 107.325L54.0161 104.647L56.6938 101.969L59.3716 99.2916L62.0493 96.6137L62.2798 96.3832C62.1714 96.329 62.0629 96.268 61.9544 96.2137L61.4121 96.7561L58.7344 99.434L56.0566 102.112L53.3788 104.79L50.7011 107.468L48.0233 110.145L45.3456 112.823L42.6678 115.501L39.9901 118.179L37.3123 120.857L34.6346 123.535L31.9568 126.213L29.2791 128.891L26.6013 131.568L23.9236 134.246L21.2458 136.924L18.5681 139.602L15.8903 142.28L13.2125 144.958L7.98584 150.185L7.85704 150.314Z" fill="#D2D1D6"/>
<path d="M8.49428 147.487L11.172 144.809L13.8498 142.131L16.5275 139.453L19.2053 136.775L21.883 134.097L24.5608 131.419L27.2386 128.741L29.9163 126.064L32.5941 123.386L35.2718 120.708L37.9496 118.03L40.6273 115.352L43.3051 112.674L45.9828 109.996L48.6606 107.318L51.3383 104.641L54.0161 101.963L56.6938 99.2848L59.3716 96.6069L60.4902 95.4883C60.3749 95.4341 60.2664 95.3799 60.1512 95.3324L58.7276 96.7561L56.0498 99.434L53.3721 102.112L50.6943 104.79L48.0166 107.468L45.3388 110.145L42.6611 112.823L39.9833 115.501L37.3055 118.179L34.6278 120.857L31.95 123.535L29.2723 126.213L26.5945 128.891L23.9168 131.568L21.239 134.246L18.5613 136.924L15.8835 139.602L13.2058 142.28L10.528 144.958L7.85026 147.636L6.3114 149.175C6.36563 149.29 6.41309 149.398 6.46732 149.514L8.48072 147.5L8.49428 147.487Z" fill="#D2D1D6"/>
<path d="M8.3316 153.012L8.49429 152.849L11.172 150.171L13.8498 147.493L16.5276 144.815L19.2053 142.138L21.8831 139.46L24.5608 136.782L27.2386 134.104L29.9163 131.426L32.5941 128.748L35.2718 126.07L37.9496 123.392L40.6273 120.715L43.3051 118.037L45.9828 115.359L48.6606 112.681L51.3384 110.003L54.0161 107.325L56.6939 104.647L59.3716 101.969L62.0494 99.2916L63.995 97.3459C63.8933 97.2849 63.7916 97.2239 63.6831 97.1628L61.4121 99.4339L58.7344 102.112L56.0566 104.79L53.3789 107.468L50.7011 110.145L48.0234 112.823L45.3456 115.501L42.6679 118.179L39.9901 120.857L37.3123 123.535L34.6346 126.213L31.9568 128.891L29.2791 131.568L26.6013 134.246L23.9236 136.924L18.5681 142.28L15.8903 144.958L13.2126 147.636L10.5348 150.314L8.14856 152.7C8.20957 152.802 8.27058 152.91 8.3316 153.012Z" fill="#D2D1D6"/>
<path d="M5.81649 120.708L8.49424 118.03L11.172 115.352L13.8497 112.674L16.5275 109.996L19.2053 107.318L21.883 104.641L24.5608 101.963L27.2385 99.2848L29.9163 96.607L32.594 93.9291L33.699 92.824C33.4821 92.8783 33.2584 92.9325 33.0414 92.9867L31.9568 94.0714L29.279 96.7493L26.6013 99.4272L23.9235 102.105L21.2458 104.783L18.568 107.461L15.8903 110.139L13.2125 112.817L10.5348 115.494L7.857 118.172L5.17925 120.85L3.98612 122.043C3.93189 122.26 3.87766 122.484 3.82343 122.701L5.82327 120.701L5.81649 120.708Z" fill="#D2D1D6"/>
<path d="M5.81649 139.453L8.49424 136.775L11.172 134.097L13.8497 131.419L16.5275 128.741L19.2053 126.064L21.883 123.386L24.5608 120.708L27.2385 118.03L29.9163 115.352L32.594 112.674L35.2718 109.996L37.9495 107.318L40.6273 104.641L43.305 101.963L45.9828 99.2848L48.6605 96.607L51.3383 93.9291L52.5314 92.7359C52.3958 92.702 52.2603 92.6749 52.1247 92.6478L50.6943 94.0782L48.0165 96.7561L45.3388 99.434L42.661 102.112L39.9833 104.79L37.3055 107.468L34.6278 110.145L31.95 112.823L29.2723 115.501L26.5945 118.179L23.9167 120.857L21.239 123.535L18.5612 126.213L15.8835 128.891L13.2057 131.568L10.528 134.246L7.85022 136.924L5.17247 139.602L3.62683 141.148C3.65395 141.283 3.68784 141.419 3.71496 141.555L5.80971 139.46L5.81649 139.453Z" fill="#D2D1D6"/>
<path d="M4.92843 145.697L5.81649 144.809L8.49425 142.131L11.172 139.453L13.8498 136.775L16.5275 134.097L19.2053 131.419L21.883 128.741L24.5608 126.064L27.2385 123.386L29.9163 120.708L32.594 118.03L35.2718 115.352L37.9495 112.674L40.6273 109.996L43.305 107.318L45.9828 104.641L48.6605 101.963L51.3383 99.2848L54.0161 96.6069L56.687 93.9358C56.565 93.8951 56.443 93.8477 56.321 93.807L56.0566 94.0714L53.3788 96.7493L50.7011 99.4272L48.0233 102.105L45.3456 104.783L42.6678 107.461L39.9901 110.139L37.3123 112.817L34.6345 115.494L31.9568 118.172L29.279 120.85L26.6013 123.528L23.9235 126.206L21.2458 128.884L18.568 131.562L15.8903 134.24L13.2125 136.917L9.1925 140.938L7.85023 142.28L5.17248 144.958L4.79285 145.337C4.83352 145.46 4.88098 145.582 4.92165 145.704L4.92843 145.697Z" fill="#D2D1D6"/>
<path d="M5.81652 142.131L8.49427 139.453L11.172 136.775L13.8498 134.097L16.5275 131.419L19.2053 128.741L21.883 126.064L24.5608 123.386L27.2386 120.708L29.9163 118.03L32.5941 115.352L35.2718 112.674L37.9496 109.996L40.6273 107.318L43.3051 104.641L45.9828 101.963L48.6606 99.2848L51.3383 96.607L54.0161 93.9291L54.6533 93.2918C54.5245 93.2579 54.3957 93.2172 54.2669 93.1833L53.3721 94.0782L50.6943 96.7561L48.0166 99.434L45.3388 102.112L42.6611 104.79L39.9833 107.468L37.3055 110.145L34.6278 112.823L31.95 115.501L29.2723 118.179L26.5945 120.857L23.9168 123.535L21.239 126.213L18.5613 128.891L15.8835 131.569L13.2058 134.246L10.528 136.924L7.85026 139.602L5.1725 142.28L4.16241 143.29C4.19631 143.419 4.23699 143.548 4.27088 143.677L5.80974 142.138L5.81652 142.131Z" fill="#D2D1D6"/>
<path d="M5.66062 147.642L5.81654 147.487L8.49429 144.809L11.172 142.131L16.331 136.972L16.5275 136.775L19.2053 134.097L21.8831 131.419L24.5608 128.741L27.2386 126.064L29.9163 123.386L32.5941 120.708L35.2718 118.03L37.9496 115.352L40.6273 112.674L43.3051 109.996L45.9828 107.318L48.6606 104.641L51.3383 101.963L54.0161 99.2848L56.6939 96.6069L58.6259 94.6748C58.5107 94.6273 58.3954 94.5799 58.2734 94.5324L56.0498 96.7561L53.3721 99.4339L50.6943 102.112L48.0166 104.79L45.3388 107.468L42.6611 110.145L39.9833 112.823L37.3056 115.501L34.6278 118.179L31.9501 120.857L29.2723 123.535L26.5945 126.213L23.9168 128.891L21.239 131.568L18.5613 134.246L15.8835 136.924L13.2058 139.602L10.528 142.28L7.85027 144.958L5.51147 147.297C5.55893 147.412 5.60638 147.527 5.65384 147.649L5.66062 147.642Z" fill="#D2D1D6"/>
<path d="M3.13876 128.741L5.81651 126.064L8.49427 123.386L11.172 120.708L13.8498 118.03L16.5275 115.352L19.2053 112.674L21.883 109.996L24.5608 107.318L27.2385 104.641L29.9163 101.963L32.5941 99.2848L35.2718 96.6069L37.9496 93.929L40.0714 91.8071C39.8884 91.8206 39.7121 91.841 39.5291 91.8545L37.3123 94.0714L34.6346 96.7493L31.9568 99.4272L29.2791 102.105L26.6013 104.783L23.9236 107.461L21.2458 110.139L18.568 112.817L15.8903 115.494L13.2125 118.172L10.5348 120.85L7.85703 123.528L5.17928 126.206L2.84726 128.538C2.8337 128.721 2.81336 128.897 2.7998 129.08L3.13876 128.741Z" fill="#D2D1D6"/>
<path d="M155.947 26.833C155.947 27.9109 155.072 28.7854 153.995 28.7854C152.917 28.7854 152.042 27.9109 152.042 26.833C152.042 25.755 152.917 24.8805 153.995 24.8805C155.072 24.8805 155.947 25.755 155.947 26.833Z" stroke="black" stroke-miterlimit="10" stroke-linecap="round"/>
<path d="M34.4379 123.826C34.4379 124.904 33.5634 125.779 32.4855 125.779C31.4076 125.779 30.5331 124.904 30.5331 123.826C30.5331 122.748 31.4076 121.874 32.4855 121.874C33.5634 121.874 34.4379 122.748 34.4379 123.826Z" stroke="black" stroke-miterlimit="10" stroke-linecap="round"/>
<path d="M298.661 73.2382C298.661 74.3161 297.786 75.1907 296.709 75.1907C295.631 75.1907 294.756 74.3161 294.756 73.2382C294.756 72.1603 295.631 71.2857 296.709 71.2857C297.786 71.2857 298.661 72.1603 298.661 73.2382Z" stroke="black" stroke-miterlimit="10" stroke-linecap="round"/>
<path d="M38.7088 71.1434C38.7088 73.2992 36.9598 75.0483 34.804 75.0483C32.6482 75.0483 30.8992 73.2992 30.8992 71.1434C30.8992 68.9875 32.6482 67.2384 34.804 67.2384C36.9598 67.2384 38.7088 68.9875 38.7088 71.1434Z" stroke="black" stroke-miterlimit="10" stroke-linecap="round"/>
<path d="M284.466 143.093C284.466 145.249 282.717 146.998 280.561 146.998C278.405 146.998 276.656 145.249 276.656 143.093C276.656 140.938 278.405 139.189 280.561 139.189C282.717 139.189 284.466 140.938 284.466 143.093Z" stroke="black" stroke-miterlimit="10" stroke-linecap="round"/>
<path d="M202.696 73.2043L216.742 65.4215" stroke="black" stroke-miterlimit="10" stroke-linecap="round"/>
<path d="M202.628 83.3192L217.725 84.5395" stroke="black" stroke-miterlimit="10" stroke-linecap="round"/>
<path d="M201.774 91.6715L215.108 98.8509" stroke="black" stroke-miterlimit="10" stroke-linecap="round"/>
<path d="M190.663 49.8763L200.689 37.9377H190.663V49.8763Z" stroke="#73D7C3" stroke-miterlimit="10" stroke-linecap="round"/>
<path d="M235.358 37.9377V6.5896H190.663V30.7854V37.9377H200.689H200.696H235.358Z" stroke="black" stroke-miterlimit="10" stroke-linecap="round"/>
<path d="M201.509 17.674H227.155" stroke="black" stroke-miterlimit="10" stroke-linecap="round"/>
<path d="M201.509 27.077H220.823" stroke="black" stroke-miterlimit="10" stroke-linecap="round"/>
<path d="M254.658 68.5197C252.495 76.1941 248.265 83.7667 243.594 91.197C249.085 94.3223 254.556 97.4747 260.02 100.641C261.362 97.5289 262.555 94.7358 263.545 92.4037C265.681 87.3801 267.369 82.1871 268.602 76.872C271.002 66.5198 273.829 52.7304 272.792 49.2729C272.372 47.8628 269.721 54.9202 269.504 55.632C270.534 52.3033 271.904 43.7545 270.758 43.3409C269.64 42.9409 266.318 53.0084 266.318 53.0084C266.318 53.0084 267.362 49.6255 267.836 44.5138C268.155 41.0563 267.491 41.0902 267.491 41.0902C265.233 41.2529 262.867 52.2966 262.867 52.2966C262.867 52.2966 263.003 42.8121 262.189 43.0698C260.02 43.7545 259.139 57.7676 259.139 57.7676C259.139 57.7676 259.139 59.2387 256.719 55.6863C254.298 52.1339 252.99 53.605 252.99 53.605C252.99 53.605 255.254 59.6116 255.79 62.2623C255.824 62.425 255.207 66.5266 254.644 68.5197H254.658Z" fill="black"/>
<path d="M261.505 56.5947C261.505 56.5947 263.552 58.2625 264.799 59.8624C265.314 60.52 266.236 60.7505 266.982 60.3776C267.836 59.9505 269.09 59.7065 270.697 60.4454" stroke="#F2F0E8" stroke-miterlimit="10" stroke-linecap="round"/>
<path d="M81.18 157.561C82.0273 147.093 83.1595 136.551 86.7117 127.711C88.2167 123.962 89.5929 120.66 91.1182 120.328C93.6807 119.772 97.2261 119.318 97.5312 118.294C97.8769 117.128 93.2129 117.332 89.8301 117.162C89.8301 117.162 99.409 117.061 99.4429 115.657C99.4768 113.956 88.5828 114.037 88.5828 114.037C88.5828 114.037 100.107 113.013 99.104 111.19C98.0939 109.366 87.4574 111.223 87.4574 111.223C87.4574 111.223 97.0499 109.271 96.9007 107.379C96.7787 105.841 89.3149 107.759 83.0103 110.261C79.2818 111.739 76.0956 114.335 73.9602 117.725C71.9129 120.972 69.4724 125.962 67.1133 133.541C67.1133 133.541 64.7406 142.334 61.7307 154.32C68.2251 155.33 74.7059 156.449 81.1867 157.554L81.18 157.561Z" fill="black"/>
<path d="M172.576 119.915L175.667 94.8782L163.614 85.0073L152.544 119.298L172.576 119.915Z" fill="black"/>
<path d="M154.266 71.3129C154.266 71.3129 124.105 91.3258 97.5651 81.7871C90.3521 79.1974 85.2136 72.3434 85.783 64.6961C86.2033 59.0285 89.7556 52.0728 99.6599 49.5712C102.643 48.8187 105.741 48.6899 108.805 49.0018C117.048 49.8356 135.447 53.7202 154.266 71.3129Z" fill="white" stroke="black" stroke-miterlimit="10" stroke-linecap="round"/>
<path d="M142.646 77.2855C142.646 89.3597 158.489 99.1492 171.315 99.1492C184.141 99.1492 190.371 91.5902 189.11 79.5838C187.748 66.6079 178.711 55.4219 165.878 55.4219C153.045 55.4219 142.646 65.2114 142.646 77.2855Z" fill="black"/>
<path d="M142.646 77.2855C142.646 65.2114 153.045 55.4219 165.878 55.4219C175.979 55.4219 184.548 62.9199 187.748 71.9976C187.626 72.0654 180.691 73.7602 175.308 67.3401C175.118 67.1164 174.752 67.2588 174.766 67.5503C174.935 70.6485 174.386 79.7939 162.191 80.8651C162.191 80.8651 162.57 97.8001 161.899 97.59C156.991 96.0714 153.479 93.7121 151.744 92.4308C146.402 88.5055 142.64 83.1701 142.64 77.2855H142.646Z" fill="white" stroke="black" stroke-miterlimit="10" stroke-linecap="round"/>
<path d="M162.99 91.563C161.56 91.4681 160.082 90.8309 158.909 89.6648C156.557 87.3395 156.293 83.7938 158.313 81.7532C159.689 80.3634 161.445 80.3702 163.167 81.2448" fill="black"/>
<path d="M162.99 91.563C161.56 91.4681 160.082 90.8309 158.909 89.6648C156.557 87.3395 156.293 83.7938 158.313 81.7532C159.689 80.3634 161.445 80.3702 163.167 81.2448" stroke="#F2F0E8" stroke-miterlimit="10" stroke-linecap="round"/>
<path d="M164.028 87.6446C164.028 87.6446 162.794 85.1565 160.584 86.1599L164.028 87.6446Z" fill="black"/>
<path d="M164.028 87.6446C164.028 87.6446 162.794 85.1565 160.584 86.1599" stroke="#F2F0E8" stroke-miterlimit="10" stroke-linecap="round"/>
<path d="M248.421 79.2584C248.421 79.2584 233.297 104.159 224.667 115.359C221.691 119.223 190.731 117.027 169.478 115.793C161.255 115.318 137.867 113.983 132.471 115.142C119.143 118.01 96.7313 146.212 81.885 167.35L86.366 142.87L64.4288 140.165C50.7282 178.387 56.1718 202.651 77.6142 200.976C93.2604 199.756 124.539 158.225 125.563 153.737L114.804 200.976H185.667L187.619 152.456C199.36 151.771 230.544 149.866 236.327 146.158C251.994 136.117 265.545 91.38 265.545 91.38L248.428 79.2516L248.421 79.2584Z" fill="white" stroke="black" stroke-miterlimit="10" stroke-linecap="round"/>
<path d="M153.466 114.986C153.466 114.986 154.266 118.511 162.306 119.23C169.505 119.867 173.057 116.01 173.057 116.01C168.251 112.078 161.614 111.23 155.974 113.833L153.466 114.993V114.986Z" fill="black"/>
<path d="M128.397 200.983L142.402 114.695C137.603 114.64 134.349 114.742 132.484 115.142C119.157 118.01 96.7448 146.212 81.8986 167.35L86.3796 142.87L64.4423 140.165C50.7417 178.387 56.1854 202.651 77.6277 200.976C93.2739 199.756 124.553 158.225 125.576 153.737L114.818 200.976H128.403L128.397 200.983Z" fill="#73D7C3" stroke="#73D7C3" stroke-miterlimit="10" stroke-linecap="round"/>
<path d="M248.421 79.2584C248.421 79.2584 233.297 104.159 224.667 115.359C222.091 118.708 202.343 117.508 182.27 116.322L173.552 200.983H185.667L187.619 152.463C199.36 151.778 230.544 149.873 236.327 146.165C251.994 136.124 265.545 91.3868 265.545 91.3868L248.428 79.2584H248.421Z" fill="#73D7C3" stroke="#73D7C3" stroke-miterlimit="10" stroke-linecap="round"/>
</g>
<defs>
<clipPath id="clip0_1861_34514">
<rect width="299" height="202" fill="white"/>
</clipPath>
</defs>
</svg>
